<svg id="Ebene_1" data-name="Ebene 1" xmlns="http://www.w3.org/2000/svg" viewBox="0 0 478.43 154.11"><title>greentec-logo</title><path d="M72.72,0h3.77c2.22.11,4.43.23,6.49.5,1.47,4.16,3,8.29,4.41,12.47A60.21,60.21,0,0,1,98.15,16.3c3.5-2.67,7-5.39,10.44-8.07A72.58,72.58,0,0,1,122,17a3.56,3.56,0,0,1,.74.65c-1.09,4.36-2,8.85-3.08,13.08,0,.2.66.82.85,1a66.13,66.13,0,0,1,5.62,7c4.37-.42,8.82-.77,13.18-1.18a34.87,34.87,0,0,1,2.07,3.74,74.64,74.64,0,0,1,4.76,11.89,4,4,0,0,1,.17.61c-.06.17-.45.45-.63.63-1.46,1.46-2.94,2.86-4.41,4.27s-2.88,2.87-4.4,4.27c-.18.16-.64.53-.61.69a53.89,53.89,0,0,1,.8,7.13,6.72,6.72,0,0,0,0,1.07c.08.2.72.42,1,.55L141,74c-6.26,8.23-13.84,15.11-23.63,19.8A47.18,47.18,0,0,0,121.12,81a49.7,49.7,0,0,0-.3-15.22A47,47,0,0,0,76.87,27.4,48.22,48.22,0,0,0,62.17,29a47,47,0,0,0-34.5,47.72,47.72,47.72,0,0,0,2.79,13.68,46.13,46.13,0,0,0,13.43,19.46,52,52,0,0,0-5.75,4.68,72.84,72.84,0,0,0-8.15,9.2,47.39,47.39,0,0,0-5.07,8.81,30.57,30.57,0,0,0-2.61,11.26,53.16,53.16,0,0,1-.75-15.25,4.55,4.55,0,0,0,.11-1c-.05-.33-.9-1-1.13-1.25a80.83,80.83,0,0,1-7.37-9l6.91-12.18c-1-1.89-2-3.83-2.95-5.86-4.68-1-9.42-1.87-14.1-2.83A77.17,77.17,0,0,1,0,78.8v-.58c4-2.09,8-4.21,12-6.3,0-.75.08-1.47.13-2.23.13-1.76.34-3.49.59-5.07a6.93,6.93,0,0,0,.13-1c0-.15-.35-.43-.55-.63-1.5-1.49-3-2.85-4.46-4.3s-2.95-2.91-4.46-4.29c-.22-.19-.55-.53-.55-.67a4.71,4.71,0,0,1,.33-1.1A76.42,76.42,0,0,1,8.78,39.4a10.56,10.56,0,0,1,1.08-1.84c4.35.42,8.79.76,13.13,1.18a77.5,77.5,0,0,1,5.67-7,4.63,4.63,0,0,0,.83-.94c-1-4.39-2-8.76-3.09-13.14A71.94,71.94,0,0,1,40.59,8.23c3.5,2.65,7,5.48,10.46,8A60.36,60.36,0,0,1,61.78,13C63.26,8.81,64.71,4.6,66.25.47,68.34.25,70.49.09,72.72,0Z" style="fill:#4a4f54;fill-rule:evenodd"/><path d="M45.21,81.91A120.11,120.11,0,0,0,68.54,68.67,145.26,145.26,0,0,0,88.22,51.79c-2.3-1.63-4.69-3.24-7-4.87-.14-.1-.32-.17-.39-.33,6.62-.94,13.27-1.87,19.8-2.81.21,0,.24-.07.16.14a10.54,10.54,0,0,1-.93,1.62A58.15,58.15,0,0,1,90.72,57a77.08,77.08,0,0,1-13.1,10.38A123.86,123.86,0,0,1,45.21,81.91Z" style="fill:#003e52;fill-rule:evenodd"/><path d="M105.92,46.45c0,17,0,34.3,0,51.35a61.24,61.24,0,0,1-12,1.57V63.85a15.21,15.21,0,0,1,0-2.34c0-.25.57-.65.85-.91A50.27,50.27,0,0,0,105.92,46.45Z" style="fill:#003e52;fill-rule:evenodd"/><path d="M90.94,99.45c-4.13,0-7.83-.46-12-.41V74a7.55,7.55,0,0,1,0-1.65c0-.12.5-.37.75-.52a110.8,110.8,0,0,0,11.28-7.85Z" style="fill:#003e52;fill-rule:evenodd"/><path d="M75.91,74H76V99.12a64.63,64.63,0,0,0-12,1.73c-.06-6.83,0-13.77,0-20.65C68,78.21,72.06,76.22,75.91,74Z" style="fill:#003e52;fill-rule:evenodd"/><path d="M37.66,145.15c-2.08,1.16-4.13,2.67-6.3,3.83a10.1,10.1,0,0,1-1.73.8,2.48,2.48,0,0,1-2-.3c-1-.66-1.41-2-1.22-3.75,14-10.25,29.65-18.66,49-23.54a91.48,91.48,0,0,1,21.33-2.84,80,80,0,0,0-20.43.34A98.6,98.6,0,0,0,58.81,124,121.11,121.11,0,0,0,29.93,138.6c5-9.95,11.39-18,20.4-23.74,6.83-4.33,14.8-7.16,25.47-7.65,3.56-.16,7,.16,10.62.28a73.48,73.48,0,0,0,20-2,62,62,0,0,0,15.87-6.19A54.14,54.14,0,0,0,144,76.74a70.55,70.55,0,0,1-1.68,22,72,72,0,0,1-11.26,25,65,65,0,0,1-5.37,6.69,73.69,73.69,0,0,1-12.89,11.23,71.58,71.58,0,0,1-36,12.34,71.66,71.66,0,0,1-39.21-8.79Z" style="fill:#789904;fill-rule:evenodd"/><path d="M60.91,81.53H61v20.12a62.07,62.07,0,0,0-12,5V86.37C53,84.86,57,83.26,60.91,81.53Z" style="fill:#003e52;fill-rule:evenodd"/><path d="M213.19,84.29q-6.37,2.8-15.95,2.8-27.9,0-27.89-27.44,0-26,28.37-26a43.49,43.49,0,0,1,15.47,2.58V45.1a36.65,36.65,0,0,0-14.74-3q-19,0-19,17.5,0,19,17.9,19a24.3,24.3,0,0,0,6.05-.89V62.41h9.76Z" style="fill:#789904"/><path d="M221.48,86.72V48H229L230.25,53Q235.32,48,241,48v7.89a13.17,13.17,0,0,0-9.76,4.53V86.72Z" style="fill:#789904"/><path d="M262.85,48q17.61,0,17.61,18a33.65,33.65,0,0,1-.34,4.79H254.45q0,8.18,12,8.18a62.92,62.92,0,0,0,11.72-1.11v7.74a60.63,60.63,0,0,1-12.46,1.1q-21,0-21-19.78Q244.68,48,262.85,48Zm-8.4,16H271v-.3q0-8-8.1-8Q255.11,55.7,254.45,64Z" style="fill:#789904"/><path d="M304.11,48q17.61,0,17.61,18a35.16,35.16,0,0,1-.33,4.79H295.71q0,8.18,12,8.18a62.92,62.92,0,0,0,11.72-1.11v7.74A60.63,60.63,0,0,1,307,86.72q-21,0-21-19.78Q285.94,48,304.11,48Zm-8.4,16h16.5v-.3q0-8-8.1-8Q296.37,55.7,295.71,64Z" style="fill:#789904"/><path d="M329.05,86.72V48h7.55l1.22,5.67A17.3,17.3,0,0,1,350.49,48q13.74,0,13.74,14.3V86.72h-9.76V62.34q0-6.42-6.37-6.41a14.39,14.39,0,0,0-9.29,3.79v27Z" style="fill:#789904"/><path d="M408.81,34v8.47h-15.1V86.72h-9.77V42.51h-15.1V34Z" style="fill:#003e52"/><path d="M424.21,48q17.61,0,17.61,18a35.16,35.16,0,0,1-.33,4.79H415.82q0,8.18,12,8.18a62.84,62.84,0,0,0,11.72-1.11v7.74a60.53,60.53,0,0,1-12.45,1.1q-21,0-21-19.78Q406.05,48,424.21,48Zm-8.39,16h16.5v-.3q0-8-8.11-8Q416.47,55.7,415.82,64Z" style="fill:#003e52"/><path d="M477.7,85.62a44.49,44.49,0,0,1-9.95,1.1q-20.62,0-20.63-20.07,0-18.6,20.63-18.61a43.92,43.92,0,0,1,9.95,1.11v7.73a41.28,41.28,0,0,0-9.21-1.1q-11.6,0-11.61,10.87Q456.88,79,468.49,79a40.74,40.74,0,0,0,9.21-1.11Z" style="fill:#003e52"/><path d="M179,108.08a2.87,2.87,0,0,0-3.12-2.44c-1.41,0-3.49,1-3.49,4.93,0,2.53,1,4.81,3.49,4.81a3,3,0,0,0,3.12-2.65h2.94c-.59,3.06-2.58,5.2-6.11,5.2-3.75,0-6.44-2.53-6.44-7.4s2.85-7.44,6.48-7.44c4.21,0,5.92,2.91,6.07,5Z" style="fill:#4a4f54"/><path d="M193.17,117.55h-3.1l5-14.08h3.39l5,14.08h-3.19l-.91-2.9h-5.19Zm1.77-5.33h3.59l-1.75-5.58h0Z" style="fill:#4a4f54"/><path d="M216.09,117.55h-3V103.47h6.44c2.72,0,4.37,1.74,4.37,4.51a4.31,4.31,0,0,1-4.49,4.49h-3.37Zm2.72-7.51c2.2,0,2.2-1.57,2.2-2.2,0-1.37-.76-1.94-2.59-1.94h-2.33V110Z" style="fill:#4a4f54"/><path d="M236.76,117.55h-2.95V103.47h2.95Z" style="fill:#4a4f54"/><path d="M253.31,117.55h-2.94V106h-4.26v-2.49h11.46V106h-4.26Z" style="fill:#4a4f54"/><path d="M267.36,117.55h-3.09l5-14.08h3.39l5,14.08h-3.19l-.91-2.9h-5.19Zm1.77-5.33h3.59L271,106.64h0Z" style="fill:#4a4f54"/><path d="M290.28,115h7v2.55h-10V103.47h2.94Z" style="fill:#4a4f54"/><path d="M323.37,117.55h-2.95V103.47h6.44c2.72,0,4.38,1.74,4.38,4.51a4.32,4.32,0,0,1-4.5,4.49h-3.37Zm2.72-7.51c2.2,0,2.2-1.57,2.2-2.2,0-1.37-.76-1.94-2.59-1.94h-2.33V110Z" style="fill:#4a4f54"/><path d="M341.36,117.55h-3.1l5-14.08h3.39l5,14.08h-3.2l-.9-2.9h-5.19Zm1.76-5.33h3.6L345,106.64h0Z" style="fill:#4a4f54"/><path d="M361.34,103.47h7.12c3.75,0,4.43,2.76,4.43,4a3.34,3.34,0,0,1-2.18,3.35c1.16.51,1.79.94,1.79,3.57,0,2.07,0,2.57.63,2.81v.37h-3.26a9.61,9.61,0,0,1-.31-2.84c0-1.92-.12-2.67-2.3-2.67h-3v5.51h-2.88Zm6.33,6.2c1.53,0,2.28-.53,2.28-1.92,0-.75-.33-1.85-2.06-1.85h-3.67v3.77Z" style="fill:#4a4f54"/><path d="M388.91,117.55h-3V106H381.7v-2.49h11.46V106h-4.25Z" style="fill:#4a4f54"/><path d="M411.32,103.47h2.74v14.08h-2.94l-5.75-10h0v10h-2.74V103.47h3.1l5.59,9.8h0Z" style="fill:#4a4f54"/><path d="M435.06,106h-7.48v3h6.87v2.49h-6.87v3.65h7.82v2.49H424.7V103.47h10.36Z" style="fill:#4a4f54"/><path d="M445.6,103.47h7.12c3.75,0,4.43,2.76,4.43,4A3.34,3.34,0,0,1,455,110.8c1.16.51,1.79.94,1.79,3.57,0,2.07,0,2.57.63,2.81v.37h-3.26a9.53,9.53,0,0,1-.32-2.84c0-1.92-.11-2.67-2.29-2.67h-3v5.51H445.6Zm6.34,6.2c1.52,0,2.27-.53,2.27-1.92,0-.75-.33-1.85-2.06-1.85h-3.67v3.77Z" style="fill:#4a4f54"/><path d="M469.68,113.21c0,.79.41,2.28,3,2.28,1.39,0,2.94-.33,2.94-1.82,0-1.1-1.06-1.39-2.55-1.75l-1.51-.35c-2.28-.53-4.47-1-4.47-4.14,0-1.57.84-4.34,5.41-4.34,4.31,0,5.47,2.83,5.49,4.56h-2.82c-.08-.63-.32-2.12-2.89-2.12-1.11,0-2.45.41-2.45,1.68,0,1.1.9,1.34,1.49,1.47l3.43.85c1.93.47,3.7,1.26,3.7,3.78,0,4.24-4.33,4.62-5.56,4.62-5.14,0-6-3-6-4.72Z" style="fill:#4a4f54"/></svg>