<svg xmlns="http://www.w3.org/2000/svg" viewBox="0 0 160.92 160.92"><title>sdg-3</title><g id="GRAPHICS"><path d="M23,46.37c5.51,0,7.9-2.92,7.9-7.42V34.17c0-3-1.29-4.89-4-5.51a5.18,5.18,0,0,0,3.73-5.26V20.57c0-4.59-2.2-7.41-7.22-7.41-5.65,0-7.61,3.35-7.61,8.13v2.87h5v-3.3c0-2,.63-3.16,2.35-3.16s2.34,1.15,2.34,2.92v3.5c0,1.72-1.14,2.63-2.91,2.63H20.43v4.16h2.3c1.91,0,2.67.91,2.67,2.63V38.9c0,1.72-.76,2.92-2.44,2.92-1.86,0-2.53-1.24-2.53-3.16V34h-5v4.26c0,4.93,2,8.09,7.51,8.09"/><path d="M134.51,100.57c0-4.53-2.91-8.2-7.31-8.2-2.2,0-4.85,2.41-6.29,3.89-1.45-1.48-3.92-3.89-6.13-3.89-4.4,0-7.48,3.67-7.48,8.2a8.25,8.25,0,0,0,2.34,5.79h0l11.28,11.31,11.26-11.29h0A8.33,8.33,0,0,0,134.51,100.57Z"/><path d="M86.48,136.11h-.11a1.84,1.84,0,0,1-1.71-1.53l-5.73-33.37L70.25,117.3a1.86,1.86,0,0,1-3.47-.62L63.1,90.93l-6.74,15.14a1.86,1.86,0,0,1-1.7,1.1H28.46a1.86,1.86,0,0,1,0-3.71h25l8.87-19.91a1.83,1.83,0,0,1,2-1.08A1.86,1.86,0,0,1,65.86,84l3.79,26.55,8.56-15.87a1.85,1.85,0,0,1,3.46.57L87,126.19,106.31,62a1.85,1.85,0,0,1,3.45-.27l10.17,21.09a1.85,1.85,0,0,1-3.33,1.61l-8.11-16.81L88.25,134.8A1.85,1.85,0,0,1,86.48,136.11Z"/></g><g id="OUTLINE"><path d="M48.29,19.42h3.24v7.24H49.89V25.18a2.05,2.05,0,0,1-2.18,1.64c-2,0-2.86-1.56-2.86-3.66V16.6c0-2.12,1-3.66,3.42-3.66s3.26,1.4,3.26,3.4v1.2H49.45V16.16c0-.84-.32-1.32-1.14-1.32s-1.18.58-1.18,1.4v7.28c0,.82.34,1.4,1.12,1.4s1.12-.42,1.12-1.3v-2.4H48.29Z"/><path d="M52.83,23.16V16.6c0-2.12,1-3.66,3.44-3.66s3.46,1.54,3.46,3.66v6.56c0,2.1-1,3.66-3.46,3.66S52.83,25.26,52.83,23.16Zm4.62.36V16.24c0-.82-.36-1.4-1.18-1.4s-1.16.58-1.16,1.4v7.28c0,.82.36,1.4,1.16,1.4S57.45,24.34,57.45,23.52Z"/><path d="M61,23.16V16.6c0-2.12,1-3.66,3.44-3.66s3.46,1.54,3.46,3.66v6.56c0,2.1-1,3.66-3.46,3.66S61,25.26,61,23.16Zm4.62.36V16.24c0-.82-.36-1.4-1.18-1.4s-1.16.58-1.16,1.4v7.28c0,.82.36,1.4,1.16,1.4S65.65,24.34,65.65,23.52Z"/><path d="M76.05,16.74V23c0,2.08-.86,3.64-3.3,3.64H69.23V13.1h3.52C75.19,13.1,76.05,14.64,76.05,16.74ZM72.47,24.8c.94,0,1.3-.56,1.3-1.38v-7.1A1.19,1.19,0,0,0,72.47,15h-1V24.8Z"/><path d="M83.93,20.68h-2.2v6H79.45V13.1h2.28v5.74h2.2V13.1h2.3V26.66h-2.3Z"/><path d="M87.53,13.1H93V15H89.81v3.88h2.26v1.84H89.81V24.8H93v1.86H87.53Z"/><path d="M93.83,26.66,96.39,13.1H99l2.58,13.56H99.23l-.42-2.48H96.39L96,26.66Zm2.86-4.3h1.82l-.9-5.44h0Z"/><path d="M102.51,13.1h2.28V24.8h2.72v1.86h-5Z"/><path d="M107,13.1h6.06V15h-1.88v11.7h-2.3V15H107Z"/><path d="M118.59,20.68h-2.2v6h-2.28V13.1h2.28v5.74h2.2V13.1h2.3V26.66h-2.3Z"/><path d="M44.49,45.66,47.05,32.1h2.6l2.58,13.56H49.89l-.42-2.48H47.05l-.4,2.48Zm2.86-4.3h1.82l-.9-5.44h0Z"/><path d="M55.09,37.14v8.52H53.17V32.1h2.24l2.46,7.78V32.1h1.9V45.66h-2Z"/><path d="M67.89,35.74V42c0,2.08-.86,3.64-3.3,3.64H61.07V32.1h3.52C67,32.1,67.89,33.64,67.89,35.74ZM64.31,43.8c.94,0,1.3-.56,1.3-1.38v-7.1A1.19,1.19,0,0,0,64.31,34h-1V43.8Z"/><path d="M76.21,37.28l-1.28,8.38H72.79L71,32.1h2.2l1.06,8.6h0l1.14-8.6h1.86l1.26,8.6h0l1-8.6h1.92L79.73,45.66H77.57l-1.34-8.38Z"/><path d="M82.47,32.1h5.44V34H84.75v3.88H87v1.84H84.75V43.8h3.16v1.86H82.47Z"/><path d="M89.13,32.1h2.28V43.8h2.72v1.86h-5Z"/><path d="M95.17,32.1h2.28V43.8h2.72v1.86h-5Z"/><path d="M99.87,38.44h3.2v1.84h-3.2Z"/><path d="M104.23,32.1h3.3c2.28,0,3,1.06,3,3v1.38a2,2,0,0,1-1.36,2.16,2.06,2.06,0,0,1,1.7,2.26v1.8c0,1.92-.86,3-3.14,3h-3.54Zm2.28,5.72h.8a1,1,0,0,0,1.08-1.1V35.06a1,1,0,0,0-1.1-1.1h-.78Zm0,1.74V43.8h1a1,1,0,0,0,1.12-1.1v-2c0-.72-.34-1.1-1.14-1.1Z"/><path d="M112.05,32.1h5.44V34h-3.16v3.88h2.26v1.84h-2.26V43.8h3.16v1.86h-5.44Z"/><path d="M118.71,32.1H121V45.66h-2.28Z"/><path d="M124.23,37.14v8.52h-1.92V32.1h2.24L127,39.88V32.1h1.9V45.66h-2Z"/><path d="M133.65,38.42h3.24v7.24h-1.64V44.18a2.05,2.05,0,0,1-2.18,1.64c-2,0-2.86-1.56-2.86-3.66V35.6c0-2.12,1-3.66,3.42-3.66s3.26,1.4,3.26,3.4v1.2h-2.08V35.16c0-.84-.32-1.32-1.14-1.32s-1.18.58-1.18,1.4v7.28c0,.82.34,1.4,1.12,1.4s1.12-.42,1.12-1.3v-2.4h-1.08Z"/></g></svg>