<svg xmlns="http://www.w3.org/2000/svg" viewBox="0 0 160.92 160.92"><title>sdg-1</title><g id="GRAPHICS"><polygon points="22.46 21.16 22.51 21.16 22.51 46 27.97 46 27.97 13.55 23.61 13.55 18.59 19.44 18.59 25.13 18.64 25.13 22.46 21.16"/><path d="M123.93,76.77a4.45,4.45,0,1,1,4.46,4.46,4.46,4.46,0,0,1-4.46-4.46"/><path d="M133.59,82.94A6,6,0,0,1,139,88.86v12.35a1.73,1.73,0,0,1-3.46,0V90.6c0-.39-.11-.93-.84-.93-.5,0-.61.53-.62.87v31.79a2.49,2.49,0,0,1-5,0V104a.67.67,0,0,0-.7-.73h0a.68.68,0,0,0-.71.73v18.32a2.48,2.48,0,0,1-5,0V90.54c0-.34-.13-.87-.63-.87-.73,0-.84.54-.84.93v10.61a1.73,1.73,0,1,1-3.45,0V88.86a6,6,0,0,1,5.4-5.92l.32,0h9.74l.34,0"/><path d="M97.44,79.11a4.22,4.22,0,1,0-4.22,4.22,4.22,4.22,0,0,0,4.22-4.22"/><path d="M84.72,88.67l-3.51,11.41s-.62,2.1,1.15,2.62,2.31-1.52,2.31-1.52l2.82-9.53s.16-.73.71-.57.34.94.34.94l-4.92,17.85H88.2v12.79a2.2,2.2,0,1,0,4.39,0V109.87h1.25v12.79a2.2,2.2,0,0,0,4.4,0V109.87h4.57L97.9,92s-.21-.79.34-.94.7.57.7.57l2.83,9.53s.54,2,2.3,1.52,1.16-2.62,1.16-2.62l-3.51-11.41s-1.25-3.3-4-3.3H88.75c-2.77,0-4,3.3-4,3.3"/><path d="M72.17,79.11A4.22,4.22,0,1,0,68,83.33a4.22,4.22,0,0,0,4.22-4.22"/><path d="M59.45,88.67,56,100.08s-.63,2.1,1.15,2.62,2.3-1.52,2.3-1.52l2.83-9.53s.15-.73.7-.57.34.94.34.94l-4.92,17.85h4.58v12.79a2.2,2.2,0,0,0,4.4,0V109.87h1.25v12.79a2.2,2.2,0,1,0,4.39,0V109.87h4.58L72.63,92s-.21-.79.34-.94.71.57.71.57l2.82,9.53s.54,2,2.31,1.52S80,100.08,80,100.08L76.45,88.67s-1.25-3.3-4-3.3H63.48c-2.77,0-4,3.3-4,3.3"/><path d="M111.6,102.72a3.51,3.51,0,1,0-3.51-3.51,3.5,3.5,0,0,0,3.51,3.51"/><path d="M103.19,113.63a1.2,1.2,0,0,0,.51,1.66,1.16,1.16,0,0,0,1.5-.49l1.91-6.09s.33-.4.33,0v14.33h0a1.8,1.8,0,0,0,3.6,0V117.4s-.1-.8.54-.8.55.8.55.8v5.66a1.81,1.81,0,0,0,3.61,0V108.73c0-.42.22-.12.22-.12l1.5,4.17a9.9,9.9,0,0,0,.85,1.94,1.34,1.34,0,0,0,1.74-.72,1.32,1.32,0,0,0-.15-1.28h0c-.05-.14-2.24-5.52-2.5-6.27-.79-2.31-2.23-2.29-3.62-2.33s-2.22,0-2.22,0-.88,0-2.72,0-2.4,1-4.42,6.18c-.29.75-1.26,3.17-1.28,3.32Z"/><path d="M34.49,76.77A4.45,4.45,0,1,0,30,81.23a4.46,4.46,0,0,0,4.46-4.46"/><path d="M24.83,82.94a6,6,0,0,0-5.39,5.92v12.35a1.73,1.73,0,1,0,3.46,0V90.6c0-.39.11-.93.84-.93.5,0,.61.53.63.87v31.79a2.48,2.48,0,1,0,5,0V104a.67.67,0,0,1,.7-.73h0a.68.68,0,0,1,.71.73v18.32a2.48,2.48,0,0,0,5,0V90.54c0-.34.13-.87.63-.87.73,0,.84.54.84.93v10.61a1.73,1.73,0,1,0,3.45,0V88.86a6,6,0,0,0-5.39-5.92l-.33,0H25.17l-.34,0"/><line x1="20.95" y1="103.01" x2="16.99" y2="123.98"/><path d="M42.75,100.88a1.28,1.28,0,0,0-2.36.68,2.45,2.45,0,0,0,.12.56l3.54,6.41a2.23,2.23,0,0,1,.22.84v13.76h0a1.73,1.73,0,1,0,3.46,0V117.7s-.1-.77.52-.77.53.77.53.77v5.43a1.73,1.73,0,0,0,3.46,0V109.37a2.23,2.23,0,0,1,.22-.84l3.27-5.92a5.83,5.83,0,0,0,.4-1,1.28,1.28,0,0,0-1.28-1.28,1.26,1.26,0,0,0-1.08.6h0c-.1.08-1.74,3-2.28,3.54a1.44,1.44,0,0,1-1.09.52H46.13a1.44,1.44,0,0,1-1.09-.52c-.54-.54-2.18-3.46-2.28-3.54Z"/><path d="M48.25,102.72a3.51,3.51,0,1,0-3.51-3.51,3.5,3.5,0,0,0,3.51,3.51"/><polygon points="48.26 107.65 52.23 110.55 54.12 117.49 48.26 117.49 42.4 117.49 44.29 110.55 48.26 107.65"/></g><g id="OUTLINE"><path d="M48,18.14v8.52H46V13.09h2.24l2.46,7.79V13.09h1.9V26.66h-2Z"/><path d="M53.94,23.16V16.6c0-2.12,1-3.67,3.44-3.67s3.46,1.55,3.46,3.67v6.56c0,2.1-1,3.66-3.46,3.66S53.94,25.26,53.94,23.16Zm4.62.36V16.24c0-.82-.36-1.4-1.18-1.4s-1.16.58-1.16,1.4v7.28c0,.82.36,1.4,1.16,1.4S58.56,24.34,58.56,23.52Z"/><path d="M46,32.09h3.38c2.3,0,3.14,1.14,3.14,3V38c0,1.9-.84,3.06-3.14,3.06h-1.1v4.6H46ZM48.32,34V39.3h.84a1,1,0,0,0,1.12-1.12V35.06c0-.74-.34-1.1-1.12-1.1Z"/><path d="M53.74,42.16V35.6c0-2.12,1-3.67,3.44-3.67s3.46,1.55,3.46,3.67v6.56c0,2.1-1,3.66-3.46,3.66S53.74,44.26,53.74,42.16Zm4.62.36V35.24c0-.82-.36-1.4-1.18-1.4S56,34.42,56,35.24v7.28c0,.82.36,1.4,1.16,1.4S58.36,43.34,58.36,42.52Z"/><path d="M68.84,32.09,66.26,45.66H63.78L61.2,32.09h2.32l1.56,9.47h0l1.6-9.47Z"/><path d="M69.78,32.09h5.44V34H72.06v3.88h2.26v1.84H72.06V43.8h3.16v1.86H69.78Z"/><path d="M78.72,39.44v6.22H76.44V32.09h3.32c2.3,0,3.14,1.14,3.14,3v1.74c0,1.46-.52,2.32-1.82,2.62l2.18,6.16h-2.4Zm0-5.48v4.22h.76a1,1,0,0,0,1.12-1.12v-2c0-.74-.34-1.1-1.12-1.1Z"/><path d="M83.68,32.09h6.06V34H87.86v11.7h-2.3V34H83.68Z"/><path d="M95.24,40.5v5.16H93V40.5l-2.54-8.41H92.8l1.38,5.15h0l1.38-5.15h2.18Z"/></g></svg>