<svg xmlns="http://www.w3.org/2000/svg" viewBox="0 0 160.92 160.92"><title>sdg-6</title><g id="GRAPHICS"><path d="M24.35,46.36c5.79,0,8-3.16,8-8.19V33.38c0-5.31-2.11-8-6-8A4.67,4.67,0,0,0,21.86,28h-.05V21c0-2,.62-3.35,2.58-3.35s2.54,1.15,2.54,3.16V23h5V21.28c0-4.79-1.58-8.14-7.61-8.14-5.74,0-7.9,3.69-7.9,8.76V37.69c0,5,2.2,8.67,8,8.67M21.81,32.71c.1-1.81.86-3,2.58-3C26.26,29.75,27,30.9,27,33v5.65c0,2.06-.77,3.25-2.63,3.25s-2.54-1.24-2.54-3.25Z"/><path d="M110.1,65.07a.7.7,0,0,0-.53-.23H51.19a.7.7,0,0,0-.53.23.66.66,0,0,0-.14.55l9.8,59.32a.7.7,0,0,0,.68.57H73l.82,9.67H68.79L80.58,147,92.4,135.15H87.33l.82-9.65H100.4a.67.67,0,0,0,.67-.58l9.18-59.31A.72.72,0,0,0,110.1,65.07ZM87.53,112.56a9.38,9.38,0,0,1-7,2.43,9.4,9.4,0,0,1-7-2.43c-4.37-4.37-2.81-9.81-1.29-12.62.94-1.76,7.66-11.85,8.24-12.71v-.06l0,0,0,0v.06c.56.86,7.29,11,8.23,12.71C90.35,102.75,91.9,108.19,87.53,112.56Zm18.52-35a7.22,7.22,0,0,0-5.51.33c-7.25,2.94-12.18,4-19.79,1.61-4.8-1.5-9.29-4.65-14.6-2.73-3.52,1.26-6.8,2.47-10.78,2.44l-2.3-11.79h54.64Z"/></g><g id="OUTLINE"><path d="M46.7,23.16V16.6c0-2.12,1-3.67,3.4-3.67s3.22,1.41,3.22,3.41v1.6H51.24V16.16c0-.84-.28-1.32-1.1-1.32S49,15.42,49,16.24v7.28c0,.82.34,1.4,1.16,1.4s1.1-.52,1.1-1.32V21.1h2.08v2.34c0,1.94-.8,3.38-3.22,3.38S46.7,25.26,46.7,23.16Z"/><path d="M54.56,13.09h2.27V24.8h2.73v1.86h-5Z"/><path d="M60.59,13.09H66V15H62.87v3.88h2.27v1.84H62.87V24.8H66v1.86H60.59Z"/><path d="M66.89,26.66l2.56-13.57h2.61l2.58,13.57H72.3l-.42-2.48H69.45l-.39,2.48Zm2.86-4.3h1.82l-.9-5.44h0Z"/><path d="M77.49,18.14v8.52H75.57V13.09h2.24l2.46,7.79V13.09h1.9V26.66h-2Z"/><path d="M90.49,18.28l-1.28,8.38H87.07L85.25,13.09h2.2l1.06,8.61h0l1.14-8.61h1.86l1.26,8.61h0l1-8.61h1.92L94,26.66H91.85l-1.34-8.38Z"/><path d="M95.59,26.66l2.56-13.57h2.6l2.58,13.57H101l-.42-2.48H98.15l-.4,2.48Zm2.86-4.3h1.82l-.9-5.44h0Z"/><path d="M103,13.09h6.06V15h-1.88v11.7h-2.3V15H103Z"/><path d="M110.13,13.09h5.44V15h-3.16v3.88h2.26v1.84h-2.26V24.8h3.16v1.86h-5.44Z"/><path d="M119.07,20.44v6.22h-2.28V13.09h3.32c2.3,0,3.14,1.14,3.14,3.05v1.74c0,1.46-.52,2.32-1.82,2.62l2.18,6.16h-2.4Zm0-5.48v4.22h.76A1,1,0,0,0,121,18.06v-2c0-.74-.34-1.1-1.12-1.1Z"/><path d="M46.33,45.66,48.9,32.09h2.6l2.58,13.57H51.74l-.42-2.48H48.9l-.4,2.48Zm2.87-4.3H51l-.9-5.44h0Z"/><path d="M56.94,37.14v8.52H55V32.09h2.24l2.47,7.79V32.09h1.9V45.66h-2Z"/><path d="M69.73,35.74V42c0,2.08-.85,3.64-3.3,3.64H62.91V32.09h3.52C68.88,32.09,69.73,33.64,69.73,35.74ZM66.15,43.8c.94,0,1.31-.56,1.31-1.38v-7.1A1.2,1.2,0,0,0,66.15,34h-1V43.8Z"/><path d="M73,42.74V40.92h2.13v1.86c0,.76.34,1.2,1.12,1.2s1-.48,1-1.2v-.52a2.45,2.45,0,0,0-1-1.92L74.94,39c-1.3-1.28-1.9-2.06-1.9-3.62v-.46c0-1.69,1-3,3.19-3s3.19,1.13,3.19,3.09v1.1H77.34V34.94c0-.78-.36-1.16-1.08-1.16a1,1,0,0,0-1.08,1.12v.28c0,.76.42,1.2,1.08,1.84l1.46,1.44c1.24,1.26,1.84,2,1.84,3.52v.66c0,1.86-1,3.18-3.33,3.18S73,44.52,73,42.74Z"/><path d="M80.19,45.66l2.56-13.57h2.61l2.58,13.57H85.6l-.42-2.48H82.75l-.39,2.48Zm2.87-4.3h1.82L84,35.92h0Z"/><path d="M90.8,37.14v8.52H88.87V32.09h2.24l2.46,7.79V32.09h1.91V45.66h-2Z"/><path d="M96.77,32.09h2.28V45.66H96.77Z"/><path d="M100.11,32.09h6.07V34H104.3v11.7H102V34h-1.88Z"/><path d="M105.87,45.66l2.56-13.57H111l2.58,13.57h-2.34l-.42-2.48h-2.43L108,45.66Zm2.86-4.3h1.83l-.91-5.44h0Z"/><path d="M113.29,32.09h6.07V34h-1.88v11.7h-2.31V34h-1.88Z"/><path d="M120.41,32.09h2.28V45.66h-2.28Z"/><path d="M124,42.16V35.6c0-2.12,1-3.67,3.44-3.67s3.46,1.55,3.46,3.67v6.56c0,2.1-1,3.66-3.46,3.66S124,44.26,124,42.16Zm4.62.36V35.24c0-.82-.36-1.4-1.18-1.4s-1.16.58-1.16,1.4v7.28c0,.82.36,1.4,1.16,1.4S128.63,43.34,128.63,42.52Z"/><path d="M134.13,37.14v8.52h-1.92V32.09h2.24l2.46,7.79V32.09h1.9V45.66h-2Z"/></g></svg>