<svg xmlns="http://www.w3.org/2000/svg" viewBox="0 0 160.92 160.92"><title>sdg-5</title><g id="GRAPHICS"><path d="M25.53,23.75A4.93,4.93,0,0,0,20.94,26h-.05V17.92h9.38V13.46H15.92V31.75h5V31c0-1.92.87-3,2.39-3,1.68,0,2.35,1.15,2.35,2.92v7.85c0,1.72-.62,2.92-2.3,2.92-1.86,0-2.53-1.25-2.53-3.16V34.52h-5v3.69c0,4.93,2,8.08,7.51,8.08s7.76-2.91,7.76-7.41v-8c0-5.12-2.64-7.18-5.56-7.18"/><path d="M117.09,60.89h-20a.26.26,0,0,0-.26.25v6.65a.26.26,0,0,0,.26.25h8l-8.84,8.85a26.19,26.19,0,1,0-19.53,46.57v7.66H68.79a.25.25,0,0,0-.26.25v7.12a.25.25,0,0,0,.26.26h7.89v7.53a.25.25,0,0,0,.25.26h7.12a.26.26,0,0,0,.26-.26v-7.53H92.2a.25.25,0,0,0,.25-.26v-7.12a.25.25,0,0,0-.25-.25H84.31v-7.79a26.18,26.18,0,0,0,17.16-40.91l8.72-8.72v7.44a.26.26,0,0,0,.25.26h6.65a.26.26,0,0,0,.26-.26v-20a.26.26,0,0,0-.26-.25m-37,55.88A19.28,19.28,0,1,1,99.34,97.49a19.3,19.3,0,0,1-19.28,19.28"/><path d="M91.84,89.58H68.45a.25.25,0,0,0-.26.22v5.66a.25.25,0,0,0,.26.24H91.84a.24.24,0,0,0,.25-.24V89.8a.24.24,0,0,0-.25-.22"/><path d="M91.84,99.68H68.45a.25.25,0,0,0-.26.24v5.66a.25.25,0,0,0,.26.23H91.84a.24.24,0,0,0,.25-.23V99.92a.25.25,0,0,0-.25-.24"/></g><g id="OUTLINE"><path d="M50,19.42h3.25v7.24H51.64V25.18a2.06,2.06,0,0,1-2.19,1.64c-2,0-2.86-1.56-2.86-3.66V16.6c0-2.12,1-3.67,3.43-3.67s3.26,1.41,3.26,3.41v1.2H51.2V16.16c0-.84-.32-1.32-1.14-1.32s-1.19.58-1.19,1.4v7.28c0,.82.35,1.4,1.12,1.4s1.13-.42,1.13-1.3v-2.4H50Z"/><path d="M54.57,13.09H60V15H56.85v3.88h2.26v1.84H56.85V24.8H60v1.86H54.57Z"/><path d="M63.15,18.14v8.52H61.23V13.09h2.24l2.46,7.79V13.09h1.9V26.66h-2Z"/><path d="M76,16.74V23c0,2.08-.86,3.64-3.3,3.64H69.13V13.09h3.52C75.09,13.09,76,14.64,76,16.74ZM72.37,24.8c.94,0,1.3-.56,1.3-1.38v-7.1A1.19,1.19,0,0,0,72.37,15h-1V24.8Z"/><path d="M77.25,13.09h5.44V15H79.53v3.88h2.26v1.84H79.53V24.8h3.16v1.86H77.25Z"/><path d="M86.19,20.44v6.22H83.91V13.09h3.32c2.3,0,3.14,1.14,3.14,3.05v1.74c0,1.46-.52,2.32-1.82,2.62l2.18,6.16h-2.4Zm0-5.48v4.22H87a1,1,0,0,0,1.12-1.12v-2c0-.74-.34-1.1-1.12-1.1Z"/><path d="M46.59,32.09H52V34H48.87v3.88h2.27v1.84H48.87V43.8H52v1.86H46.59Z"/><path d="M55.65,46.58v-.92c-1.82-.32-2.6-1.66-2.6-3.5V35.6c0-2.12,1-3.67,3.44-3.67S60,33.48,60,35.6v6.56a3.25,3.25,0,0,1-1.67,3.2l1.67.32v1.7Zm2-3.94v-7.4c0-.82-.36-1.4-1.18-1.4s-1.16.58-1.16,1.4v7.4c0,.8.36,1.4,1.16,1.4S57.67,43.44,57.67,42.64Z"/><path d="M67.87,32.09V42.36c0,2.1-.9,3.46-3.22,3.46s-3.4-1.36-3.4-3.46V32.09h2.28V42.58c0,.8.32,1.34,1.12,1.34s1.12-.54,1.12-1.34V32.09Z"/><path d="M68.51,45.66l2.56-13.57h2.6l2.59,13.57H73.91l-.42-2.48H71.07l-.4,2.48Zm2.86-4.3h1.82l-.9-5.44h0Z"/><path d="M77.19,32.09h2.28V43.8h2.72v1.86h-5Z"/><path d="M83.23,32.09h2.28V45.66H83.23Z"/><path d="M86.57,32.09h6.06V34H90.75v11.7h-2.3V34H86.57Z"/><path d="M98.13,40.5v5.16H95.85V40.5l-2.54-8.41h2.38l1.38,5.15h0l1.38-5.15h2.18Z"/></g></svg>