<svg xmlns="http://www.w3.org/2000/svg" viewBox="0 0 160.92 160.92"><title>sdg-7</title><g id="GRAPHICS"><polygon points="16.5 17.93 24.93 17.93 17.65 45.93 23.06 45.93 30.19 18.51 30.19 13.48 16.5 13.48 16.5 17.93"/><path d="M80.52,78a23.59,23.59,0,1,0,23.58,23.59A23.59,23.59,0,0,0,80.52,78m-1.75,9.32a1.75,1.75,0,0,1,3.5,0v8.1a1.75,1.75,0,0,1-3.5,0Zm1.75,26.35a12.27,12.27,0,0,1-3.64-24v4.57a8,8,0,1,0,7.27,0V89.64a12.27,12.27,0,0,1-3.63,24"/><path d="M53.44,101.34a2,2,0,0,0-1.81-1.93H41.3a1.94,1.94,0,0,0,0,3.88H51.63a2,2,0,0,0,1.81-2"/><path d="M121.57,101.34a2,2,0,0,0-1.81-1.93H109.43a1.94,1.94,0,0,0,0,3.88h10.33a2,2,0,0,0,1.81-2"/><path d="M80.53,74.27a2,2,0,0,0,1.93-1.81V62.13a1.94,1.94,0,0,0-3.88,0V72.46a2,2,0,0,0,2,1.81"/><path d="M80.53,142.39a2,2,0,0,0,1.93-1.81V130.25a1.94,1.94,0,0,0-3.88,0v10.33a2,2,0,0,0,2,1.81"/><path d="M57,87.89a2,2,0,0,0-.61-2.58l-9-5.13a1.95,1.95,0,0,0-1.93,3.37l9,5.13A2,2,0,0,0,57,87.89"/><path d="M116.15,121.73a2,2,0,0,0-.61-2.58l-9-5.13a1.94,1.94,0,0,0-1.92,3.37l9,5.13a2,2,0,0,0,2.54-.79"/><path d="M94,77.85a2,2,0,0,0,2.58-.62l5.13-9a1.95,1.95,0,0,0-3.37-1.93l-5.13,9A2,2,0,0,0,94,77.85"/><path d="M60.14,137a2,2,0,0,0,2.58-.61l5.13-9a1.95,1.95,0,0,0-3.37-1.93l-5.13,9a2,2,0,0,0,.79,2.54"/><path d="M67,77.87a2,2,0,0,0,.77-2.54l-5.15-9a1.94,1.94,0,0,0-3.36,1.93l5.15,9a2,2,0,0,0,2.59.6"/><path d="M101,136.93a2,2,0,0,0,.77-2.54l-5.15-8.95a1.94,1.94,0,0,0-3.36,1.93l5.15,8.95a2,2,0,0,0,2.59.61"/><path d="M104,87.85a2,2,0,0,0,2.53.77l9-5.14a1.95,1.95,0,0,0-1.93-3.37l-9,5.15a2,2,0,0,0-.6,2.59"/><path d="M44.94,121.81a2,2,0,0,0,2.54.77l9-5.14a1.95,1.95,0,0,0-1.93-3.37l-9,5.15a2,2,0,0,0-.61,2.59"/></g><g id="OUTLINE"><path d="M45.47,27.08,48,13.51h2.6l2.59,13.57H50.87l-.42-2.48H48l-.4,2.48Zm2.86-4.3h1.82l-.9-5.45h0Z"/><path d="M54.15,13.51h5.34v1.86H56.43v3.88h2.28v1.84H56.43v6H54.15Z"/><path d="M60.49,13.51h5.34v1.86H62.77v3.88h2.28v1.84H62.77v6H60.49Z"/><path d="M66.63,23.58V17c0-2.12,1-3.66,3.44-3.66s3.46,1.54,3.46,3.66v6.57c0,2.1-1,3.66-3.46,3.66S66.63,25.68,66.63,23.58Zm4.62.36V16.65c0-.82-.36-1.4-1.18-1.4s-1.16.58-1.16,1.4v7.29c0,.82.36,1.4,1.16,1.4S71.25,24.76,71.25,23.94Z"/><path d="M77.11,20.85v6.23H74.83V13.51h3.32c2.3,0,3.14,1.14,3.14,3v1.74c0,1.46-.52,2.32-1.82,2.63l2.18,6.16h-2.4Zm0-5.48v4.22h.76A1,1,0,0,0,79,18.47v-2c0-.74-.34-1.1-1.12-1.1Z"/><path d="M89.35,17.15v6.29c0,2.08-.86,3.64-3.3,3.64H82.53V13.51h3.52C88.49,13.51,89.35,15.05,89.35,17.15Zm-3.58,8.07c.94,0,1.3-.56,1.3-1.38V16.73a1.19,1.19,0,0,0-1.3-1.36h-1v9.85Z"/><path d="M90,27.08l2.56-13.57h2.6l2.58,13.57H95.39L95,24.6H92.55l-.4,2.48Zm2.86-4.3h1.82l-.9-5.45h0Z"/><path d="M98.67,13.51H102c2.28,0,3,1.06,3,3v1.38A2,2,0,0,1,103.65,20a2.06,2.06,0,0,1,1.7,2.26V24.1c0,1.92-.86,3-3.14,3H98.67ZM101,19.23h.8a1,1,0,0,0,1.08-1.1V16.47a1,1,0,0,0-1.1-1.1H101ZM101,21v4.24h1a1,1,0,0,0,1.12-1.1v-2c0-.73-.34-1.1-1.14-1.1Z"/><path d="M106.49,13.51h2.28V25.22h2.72v1.86h-5Z"/><path d="M112.53,13.51H118v1.86h-3.16v3.88h2.26v1.84h-2.26v4.13H118v1.86h-5.44Z"/><path d="M120.93,27.08l2.56-13.57h2.6l2.58,13.57h-2.34l-.42-2.48h-2.42l-.4,2.48Zm2.86-4.3h1.82l-.9-5.45h0Z"/><path d="M131.53,18.55v8.53h-1.92V13.51h2.24l2.46,7.78V13.51h1.9V27.08h-2Z"/><path d="M144.33,17.15v6.29c0,2.08-.86,3.64-3.3,3.64h-3.52V13.51H141C143.47,13.51,144.33,15.05,144.33,17.15Zm-3.58,8.07c.94,0,1.3-.56,1.3-1.38V16.73a1.19,1.19,0,0,0-1.3-1.36h-1v9.85Z"/><path d="M45.83,42.58V36c0-2.12,1-3.66,3.4-3.66s3.22,1.4,3.22,3.4v1.6H50.37V35.57c0-.84-.28-1.32-1.1-1.32s-1.16.58-1.16,1.4v7.29c0,.82.34,1.4,1.16,1.4s1.1-.52,1.1-1.32v-2.5h2.08v2.34c0,1.94-.8,3.38-3.22,3.38S45.83,44.68,45.83,42.58Z"/><path d="M53.69,32.51H56V44.22h2.72v1.86h-5Z"/><path d="M59.73,32.51h5.44v1.86H62v3.88h2.26v1.84H62v4.13h3.16v1.86H59.73Z"/><path d="M66,46.08l2.56-13.57h2.6l2.58,13.57H71.43L71,43.6H68.59l-.4,2.48Zm2.86-4.3h1.82l-.9-5.45h0Z"/><path d="M76.63,37.55v8.53H74.71V32.51H77l2.46,7.78V32.51h1.9V46.08h-2Z"/><path d="M84.71,32.51h5.44v1.86H87v3.88h2.26v1.84H87v4.13h3.16v1.86H84.71Z"/><path d="M93.29,37.55v8.53H91.37V32.51h2.24l2.46,7.78V32.51H98V46.08H96Z"/><path d="M99.27,32.51h5.44v1.86h-3.16v3.88h2.26v1.84h-2.26v4.13h3.16v1.86H99.27Z"/><path d="M108.21,39.85v6.23h-2.28V32.51h3.32c2.3,0,3.14,1.14,3.14,3v1.74c0,1.46-.52,2.32-1.82,2.63l2.18,6.16h-2.4Zm0-5.48v4.22H109a1,1,0,0,0,1.12-1.12v-2c0-.74-.34-1.1-1.12-1.1Z"/><path d="M117.07,38.83h3.24v7.25h-1.64V44.6a2.05,2.05,0,0,1-2.18,1.64c-2,0-2.86-1.56-2.86-3.66V36c0-2.12,1-3.66,3.42-3.66s3.26,1.4,3.26,3.4V37h-2.08V35.57c0-.84-.32-1.32-1.14-1.32s-1.18.58-1.18,1.4v7.29c0,.82.34,1.4,1.12,1.4s1.12-.42,1.12-1.3v-2.4h-1.08Z"/><path d="M125.55,40.92v5.16h-2.28V40.92l-2.54-8.41h2.38l1.38,5.14h0l1.38-5.14h2.18Z"/></g></svg>