<svg xmlns="http://www.w3.org/2000/svg" viewBox="0 0 160.92 160.92"><title>sdg-8</title><g id="GRAPHICS"><path d="M31.27,38V34.45c0-3.11-1.1-5.36-3.64-6.51,2.15-1.05,3.16-3,3.16-5.65V21c0-5.07-2.64-7.8-7.66-7.8s-7.56,2.73-7.56,7.8v1.34c0,2.64,1,4.6,3.06,5.65C16.09,29.09,15,31.34,15,34.45V38c0,4.93,2.35,8.37,8.09,8.37s8.14-3.44,8.14-8.37M20.69,20.62c0-2,.67-3.11,2.44-3.11s2.49,1.14,2.49,3.11v2.2c0,2-.67,3.11-2.49,3.11s-2.44-1.15-2.44-3.11Zm5.12,17.94c0,2-.72,3.35-2.68,3.35s-2.63-1.38-2.63-3.35V33.3c0-2,.71-3.35,2.63-3.35s2.68,1.39,2.68,3.35Z"/><path d="M111,79.17,94.64,94.73a2.69,2.69,0,0,0-.94,2.33v43.61a.94.94,0,0,0,.94.93h16.89a.93.93,0,0,0,.93-.93V79.56c0-.51-.4-1.45-1.47-.39"/><path d="M63.87,99.44,47.51,115a2.71,2.71,0,0,0-.93,2.33v23.34a.93.93,0,0,0,.93.93h16.9a.93.93,0,0,0,.93-.93V99.83c0-.52-.4-1.46-1.47-.39"/><path d="M118.43,60.3a.5.5,0,0,0-.14-.36.53.53,0,0,0-.3-.13h-.23l-12.52,2.83-.23,0a.56.56,0,0,0-.24.13.48.48,0,0,0,0,.68l.14.14,2.86,2.86L79.39,94.86,66.28,81.75a.37.37,0,0,0-.53,0l-3.56,3.56h0l-21,21a.37.37,0,0,0,0,.53l3.56,3.56a.37.37,0,0,0,.53,0L66,89.67l9.51,9.51s0,0,0,0l3.56,3.56a.37.37,0,0,0,.53,0l32.21-32.21,3,3a.46.46,0,0,0,.67,0,.49.49,0,0,0,.14-.31v0l2.75-12.78Z"/><path d="M87.52,102.17l-7.91,8a.38.38,0,0,1-.51,0l-7.17-7.31c-1.31-1.31-1.59-.25-1.59.27v37.58a.93.93,0,0,0,.92.93h16.9a.93.93,0,0,0,.93-.93V102.46c0-.51-.4-1.45-1.57-.29"/></g><g id="OUTLINE"><path d="M49.78,17.15v6.29c0,2.08-.86,3.64-3.3,3.64H43V13.51h3.52C48.92,13.51,49.78,15.05,49.78,17.15ZM46.2,25.22c.94,0,1.3-.56,1.3-1.38V16.73a1.19,1.19,0,0,0-1.3-1.36h-1v9.85Z"/><path d="M51.08,13.51h5.44v1.86H53.36v3.88h2.26v1.84H53.36v4.13h3.16v1.86H51.08Z"/><path d="M57.54,23.58V17c0-2.12,1-3.66,3.4-3.66s3.22,1.4,3.22,3.4v1.6H62.08V16.57c0-.84-.28-1.32-1.1-1.32s-1.16.58-1.16,1.4v7.29c0,.82.34,1.4,1.16,1.4s1.1-.52,1.1-1.32v-2.5h2.08v2.34c0,1.94-.8,3.38-3.22,3.38S57.54,25.68,57.54,23.58Z"/><path d="M65.4,13.51h5.44v1.86H67.68v3.88h2.26v1.84H67.68v4.13h3.16v1.86H65.4Z"/><path d="M74,18.55v8.53H72.06V13.51H74.3l2.46,7.78V13.51h1.9V27.08h-2Z"/><path d="M79.7,13.51h6.06v1.86H83.88V27.08h-2.3V15.37H79.7Z"/><path d="M93.84,18.69l-1.28,8.39H90.42L88.6,13.51h2.2l1.06,8.61h0L93,13.51h1.86l1.26,8.61h0l1-8.61h1.92L97.36,27.08H95.2l-1.34-8.39Z"/><path d="M99.9,23.58V17c0-2.12,1-3.66,3.44-3.66s3.46,1.54,3.46,3.66v6.57c0,2.1-1,3.66-3.46,3.66S99.9,25.68,99.9,23.58Zm4.62.36V16.65c0-.82-.36-1.4-1.18-1.4s-1.16.58-1.16,1.4v7.29c0,.82.36,1.4,1.16,1.4S104.52,24.76,104.52,23.94Z"/><path d="M110.38,20.85v6.23H108.1V13.51h3.32c2.3,0,3.14,1.14,3.14,3v1.74c0,1.46-.52,2.32-1.82,2.63l2.18,6.16h-2.4Zm0-5.48v4.22h.76a1,1,0,0,0,1.12-1.12v-2c0-.74-.34-1.1-1.12-1.1Z"/><path d="M118.08,20.47v6.61H115.8V13.51h2.28v6l2.48-6h2.24l-2.64,6.1,2.7,7.47h-2.4Z"/><path d="M125.46,27.08,128,13.51h2.6l2.58,13.57h-2.34l-.42-2.48H128l-.4,2.48Zm2.86-4.3h1.82l-.9-5.45h0Z"/><path d="M136.06,18.55v8.53h-1.92V13.51h2.24l2.46,7.78V13.51h1.9V27.08h-2Z"/><path d="M148.86,17.15v6.29c0,2.08-.86,3.64-3.3,3.64H142V13.51h3.52C148,13.51,148.86,15.05,148.86,17.15Zm-3.58,8.07c.94,0,1.3-.56,1.3-1.38V16.73a1.19,1.19,0,0,0-1.3-1.36h-1v9.85Z"/><path d="M43,32.51H48.4v1.86H45.24v3.88H47.5v1.84H45.24v4.13H48.4v1.86H43Z"/><path d="M49.42,42.58V36c0-2.12,1-3.66,3.4-3.66S56,33.75,56,35.75v1.6H54V35.57c0-.84-.28-1.32-1.1-1.32s-1.16.58-1.16,1.4v7.29c0,.82.34,1.4,1.16,1.4S54,43.82,54,43v-2.5H56v2.34c0,1.94-.8,3.38-3.22,3.38S49.42,44.68,49.42,42.58Z"/><path d="M57.28,42.58V36c0-2.12,1-3.66,3.44-3.66s3.46,1.54,3.46,3.66v6.57c0,2.1-1,3.66-3.46,3.66S57.28,44.68,57.28,42.58Zm4.62.36V35.65c0-.82-.36-1.4-1.18-1.4s-1.16.58-1.16,1.4v7.29c0,.82.36,1.4,1.16,1.4S61.9,43.76,61.9,42.94Z"/><path d="M67.4,37.55v8.53H65.48V32.51h2.24l2.46,7.78V32.51h1.9V46.08h-2Z"/><path d="M73.38,42.58V36c0-2.12,1-3.66,3.44-3.66s3.46,1.54,3.46,3.66v6.57c0,2.1-1,3.66-3.46,3.66S73.38,44.68,73.38,42.58Zm4.62.36V35.65c0-.82-.36-1.4-1.18-1.4s-1.16.58-1.16,1.4v7.29c0,.82.36,1.4,1.16,1.4S78,43.76,78,42.94Z"/><path d="M87.86,37.27H87.8l-1.54,8.81H85.2l-1.7-8.81h0v8.81H81.57V32.51h2.67l1.48,7.64h0l1.32-7.64h2.88V46.08H87.86Z"/><path d="M91.23,32.51h2.28V46.08H91.23Z"/><path d="M94.83,42.58V36c0-2.12,1-3.66,3.4-3.66s3.22,1.4,3.22,3.4v1.6H99.37V35.57c0-.84-.28-1.32-1.1-1.32s-1.16.58-1.16,1.4v7.29c0,.82.34,1.4,1.16,1.4s1.1-.52,1.1-1.32v-2.5h2.08v2.34c0,1.94-.8,3.38-3.22,3.38S94.83,44.68,94.83,42.58Z"/><path d="M108.23,38.83h3.25v7.25h-1.65V44.6a2.05,2.05,0,0,1-2.18,1.64c-2,0-2.86-1.56-2.86-3.66V36c0-2.12,1-3.66,3.42-3.66s3.27,1.4,3.27,3.4V37h-2.09V35.57c0-.84-.32-1.32-1.14-1.32s-1.18.58-1.18,1.4v7.29c0,.82.34,1.4,1.12,1.4s1.12-.42,1.12-1.3v-2.4h-1.08Z"/><path d="M115.05,39.85v6.23h-2.28V32.51h3.32c2.3,0,3.14,1.14,3.14,3v1.74c0,1.46-.52,2.32-1.82,2.63l2.18,6.16h-2.4Zm0-5.48v4.22h.76a1,1,0,0,0,1.12-1.12v-2c0-.74-.34-1.1-1.12-1.1Z"/><path d="M120.47,42.58V36c0-2.12,1-3.66,3.44-3.66s3.46,1.54,3.46,3.66v6.57c0,2.1-1,3.66-3.46,3.66S120.47,44.68,120.47,42.58Zm4.62.36V35.65c0-.82-.36-1.4-1.18-1.4s-1.16.58-1.16,1.4v7.29c0,.82.36,1.4,1.16,1.4S125.09,43.76,125.09,42.94Z"/><path d="M133.39,37.69l-1.28,8.39H130l-1.82-13.57h2.2l1.06,8.61h0l1.14-8.61h1.86l1.26,8.61h0l1-8.61h1.92l-1.76,13.57h-2.17l-1.34-8.39Z"/><path d="M139.39,32.51h6.07v1.86h-1.89V46.08h-2.3V34.37h-1.88Z"/><path d="M151,40.09h-2.2v6h-2.28V32.51h2.28v5.74H151V32.51h2.3V46.08H151Z"/></g></svg>