<svg xmlns="http://www.w3.org/2000/svg" viewBox="0 0 160.92 160.92"><title>sdg-2</title><g id="GRAPHICS"><path d="M30.09,41.48H21.14V40c0-2.54.91-3.5,2.3-5l3.49-3.69c2.83-3,3.45-4.92,3.45-8.18V19.94c0-4.64-2.25-6.84-7.13-6.84S16,15.63,16,20.18V24.1h5V20c0-2,1-2.54,2.11-2.54s2,.43,2,2.44v2.68c0,2.68-.24,3.74-2,5.6L20,31.47c-3,3.16-4.06,5.27-4.06,8.48v6H30.09Z"/><path d="M64.19,136.74V139a.09.09,0,0,0,0,.05.07.07,0,0,0,0,0,1.06,1.06,0,0,0,1,1H91.87a1.06,1.06,0,0,0,1-1.06h0v-2.56c15-4.9,26.14-17,28.6-31.77,0,0,0-.06,0-.09a.66.66,0,0,0,0-.14,1.07,1.07,0,0,0-1.07-1.08H35.87a1.08,1.08,0,0,0-1.08,1.08l.06.48c2.58,14.9,14.08,27.08,29.34,31.78"/><path d="M92.89,67.29c-.35.5-8.52,12.27.18,21.78,4,4.37,3.65,8.22,2.51,10.83h5.58c1.13-3.85.67-8.67-3.87-13.62-6.41-7,.08-16.49.18-16.63a2.09,2.09,0,0,0-.9-3.13,3,3,0,0,0-3.68.77"/><path d="M78.75,99.9h5.58c1.13-3.85.66-8.66-3.87-13.62-6.42-7,.08-16.48.18-16.64a2.09,2.09,0,0,0-.91-3.12,3,3,0,0,0-3.67.77c-.35.5-8.53,12.27.18,21.78,4,4.37,3.64,8.23,2.51,10.83"/><path d="M59.22,67.29c-.35.5-8.52,12.27.18,21.78,4,4.37,3.65,8.23,2.52,10.83H67.5c1.13-3.84.66-8.66-3.88-13.62-6.41-7,.08-16.49.19-16.64a2.09,2.09,0,0,0-.92-3.12,3,3,0,0,0-3.67.77"/></g><g id="OUTLINE"><path d="M48.18,24.8h3.46v1.86H45.8V24.8L49.38,15H46.16V13.09h5.62V15Z"/><path d="M53,13.09h5.44V15H55.26v3.88h2.26v1.84H55.26V24.8h3.16v1.86H53Z"/><path d="M61.92,20.44v6.22H59.64V13.09H63c2.3,0,3.14,1.14,3.14,3.05v1.74c0,1.46-.52,2.32-1.82,2.62l2.18,6.16h-2.4Zm0-5.48v4.22h.76a1,1,0,0,0,1.12-1.12v-2c0-.74-.34-1.1-1.12-1.1Z"/><path d="M67.34,23.16V16.6c0-2.12,1-3.67,3.44-3.67s3.46,1.55,3.46,3.67v6.56c0,2.1-1,3.66-3.46,3.66S67.34,25.26,67.34,23.16Zm4.62.36V16.24c0-.82-.36-1.4-1.18-1.4s-1.16.58-1.16,1.4v7.28c0,.82.36,1.4,1.16,1.4S72,24.34,72,23.52Z"/><path d="M50.44,39.68h-2.2v6H46V32.09h2.28v5.75h2.2V32.09h2.3V45.66h-2.3Z"/><path d="M60.66,32.09V42.36c0,2.1-.9,3.46-3.22,3.46S54,44.46,54,42.36V32.09h2.28V42.58c0,.8.32,1.34,1.12,1.34s1.12-.54,1.12-1.34V32.09Z"/><path d="M63.88,37.14v8.52H62V32.09H64.2l2.46,7.79V32.09h1.9V45.66h-2Z"/><path d="M73.3,38.42h3.24v7.24H74.9V44.18a2.05,2.05,0,0,1-2.18,1.64c-2,0-2.86-1.56-2.86-3.66V35.6c0-2.12,1-3.67,3.42-3.67s3.26,1.41,3.26,3.41v1.2H74.46V35.16c0-.84-.32-1.32-1.14-1.32s-1.18.58-1.18,1.4v7.28c0,.82.34,1.4,1.12,1.4s1.12-.42,1.12-1.3v-2.4H73.3Z"/><path d="M77.84,32.09h5.44V34H80.12v3.88h2.26v1.84H80.12V43.8h3.16v1.86H77.84Z"/><path d="M86.78,39.44v6.22H84.5V32.09h3.32c2.3,0,3.14,1.14,3.14,3v1.74c0,1.46-.52,2.32-1.82,2.62l2.18,6.16h-2.4Zm0-5.48v4.22h.76a1,1,0,0,0,1.12-1.12v-2c0-.74-.34-1.1-1.12-1.1Z"/></g></svg>