<svg xmlns="http://www.w3.org/2000/svg" viewBox="0 0 160.92 160.92"><title>sdg-4</title><g id="GRAPHICS"><path d="M25.37,45.93h5.17V40.66h2.2V36.41h-2.2V13.48H25.18L15.75,37.31v3.35h9.62Zm-4.83-9.52,4.88-13.36h0V36.41Z"/><polygon points="71.52 86.28 42.66 69.62 42.66 123.53 71.52 132.24 71.52 86.28"/><polygon points="74.69 86.39 74.69 132.25 103.74 123.52 103.74 69.62 74.69 86.39"/><path d="M126.4,68.25a3.42,3.42,0,0,0-6.83,0v3.68h6.83Z"/><polygon points="120.42 122.57 119.57 122.57 122.98 134.51 126.39 122.57 125.55 122.57 126.39 122.57 126.39 74.61 125.55 74.61 124.7 74.61 123.8 74.61 122.1 74.61 121.26 74.61 120.42 74.61 119.57 74.61 119.57 122.57 120.42 122.57"/><polygon points="109.94 71.93 106.85 69.49 106.85 124.99 74.78 135.35 73.29 135.35 73 135.35 71.52 135.35 39.59 126.43 39.59 69.49 36.5 71.93 36.5 128.6 71.37 138.26 73 138.26 73.29 138.26 74.92 138.26 107.1 128.04 109.94 127.21 109.94 71.93"/></g><g id="OUTLINE"><path d="M48.73,27.58v-.92c-1.82-.32-2.6-1.66-2.6-3.5V16.6c0-2.12,1-3.67,3.44-3.67S53,14.48,53,16.6v6.56a3.26,3.26,0,0,1-1.68,3.2l1.68.32v1.7Zm2-3.94v-7.4c0-.82-.36-1.4-1.18-1.4s-1.16.58-1.16,1.4v7.4c0,.8.36,1.4,1.16,1.4S50.75,24.44,50.75,23.64Z"/><path d="M61,13.09V23.36c0,2.1-.9,3.46-3.22,3.46s-3.4-1.36-3.4-3.46V13.09h2.28V23.58c0,.8.32,1.34,1.12,1.34s1.12-.54,1.12-1.34V13.09Z"/><path d="M61.59,26.66l2.56-13.57h2.6l2.58,13.57H67l-.42-2.48H64.15l-.4,2.48Zm2.86-4.3h1.82l-.9-5.44h0Z"/><path d="M70.27,13.09h2.28V24.8h2.72v1.86h-5Z"/><path d="M76.31,13.09h2.28V26.66H76.31Z"/><path d="M79.65,13.09h6.06V15H83.83v11.7h-2.3V15H79.65Z"/><path d="M91.21,21.5v5.16H88.92V21.5l-2.54-8.41h2.39l1.38,5.15h0l1.38-5.15h2.18Z"/><path d="M46.13,32.09h5.44V34H48.41v3.88h2.26v1.84H48.41V43.8h3.16v1.86H46.13Z"/><path d="M59.61,35.74V42c0,2.08-.86,3.64-3.3,3.64H52.79V32.09h3.52C58.75,32.09,59.61,33.64,59.61,35.74ZM56,43.8c.94,0,1.3-.56,1.3-1.38v-7.1A1.19,1.19,0,0,0,56,34h-1V43.8Z"/><path d="M67.53,32.09V42.36c0,2.1-.9,3.46-3.22,3.46s-3.4-1.36-3.4-3.46V32.09h2.28V42.58c0,.8.32,1.34,1.12,1.34s1.12-.54,1.12-1.34V32.09Z"/><path d="M68.83,42.16V35.6c0-2.12,1-3.67,3.4-3.67s3.22,1.41,3.22,3.41v1.6H73.37V35.16c0-.84-.28-1.32-1.1-1.32s-1.16.58-1.16,1.4v7.28c0,.82.34,1.4,1.16,1.4s1.1-.52,1.1-1.32V40.1h2.08v2.34c0,1.94-.8,3.38-3.22,3.38S68.83,44.26,68.83,42.16Z"/><path d="M76.13,45.66l2.56-13.57h2.6l2.58,13.57H81.53l-.42-2.48H78.69l-.4,2.48ZM79,41.36h1.82l-.9-5.44h0Z"/><path d="M83.55,32.09h6.06V34H87.73v11.7h-2.3V34H83.55Z"/><path d="M90.67,32.09H93V45.66H90.67Z"/><path d="M94.26,42.16V35.6c0-2.12,1-3.67,3.45-3.67s3.46,1.55,3.46,3.67v6.56c0,2.1-1,3.66-3.46,3.66S94.26,44.26,94.26,42.16Zm4.63.36V35.24c0-.82-.36-1.4-1.18-1.4s-1.16.58-1.16,1.4v7.28c0,.82.36,1.4,1.16,1.4S98.89,43.34,98.89,42.52Z"/><path d="M104.39,37.14v8.52h-1.92V32.09h2.24l2.46,7.79V32.09h1.9V45.66h-2Z"/></g></svg>