<svg id="Ebene_1" data-name="Ebene 1" xmlns="http://www.w3.org/2000/svg" viewBox="0 0 29.35 29.35"><title>impact_1</title><path d="M22.3,5.15H7.05A1.14,1.14,0,0,0,5.92,6.28v16a1.14,1.14,0,0,0,1.13,1.13H22.3a1.14,1.14,0,0,0,1.13-1.13v-16A1.14,1.14,0,0,0,22.3,5.15ZM12.16,20.23a.76.76,0,0,1,0,1.08.75.75,0,0,1-.54.22.76.76,0,0,1-.54-.22l-.6-.61-.6.61a.76.76,0,0,1-.54.22.75.75,0,0,1-.54-.22.76.76,0,0,1,0-1.08l.6-.61L8.8,19a.76.76,0,1,1,1.08-1.08l.6.61.6-.61A.76.76,0,1,1,12.16,19l-.6.6ZM13,12.84l-2.29,3.05a.76.76,0,0,1-.61.3.68.68,0,0,1-.34-.08l-1.53-.76a.77.77,0,0,1-.34-1,.76.76,0,0,1,1-.34l1,.47,1.91-2.54a.76.76,0,0,1,1.22.92ZM13,7.5l-2.29,3.05a.77.77,0,0,1-.61.31.81.81,0,0,1-.34-.08L8.23,10a.76.76,0,1,1,.68-1.36l1,.48,1.91-2.54a.76.76,0,0,1,1.06-.16A.77.77,0,0,1,13,7.5ZM21.53,20H14.67V18.48h6.86Zm0-5.33H14.67V13.14h6.86Zm0-5.34H14.67V7.81h6.86Z" style="fill:#6c992e;fill-rule:evenodd"/></svg>