<svg id="Ebene_1" data-name="Ebene 1" xmlns="http://www.w3.org/2000/svg" viewBox="0 0 29.35 29.35"><title>cleantech</title><path d="M14.45,22a6.88,6.88,0,0,0,4.9-2c1.29-1.29,1.69-3.68,2.1-6.2.45-2.73.91-5.54,2.46-7.09a.75.75,0,0,0,.16-.82.76.76,0,0,0-.7-.47c-5.66,0-10.83,1.79-13.82,4.78a6.92,6.92,0,0,0-2,5.34.75.75,0,0,0,.54.68.76.76,0,0,0,.82-.29C11.62,12.15,14.8,10,15.4,10a.75.75,0,0,1,.21,1.48l-.16.07,0,0c-1.26.57-4.23,3.12-6.15,6.59-.08.13-.17.26-.25.4s0,.1,0,.15a12.39,12.39,0,0,0-1.45,5.56.74.74,0,0,0,.75.75A.75.75,0,0,0,9,24.28a10.35,10.35,0,0,1,.87-4A6.93,6.93,0,0,0,14.45,22Z" style="fill:#6c992e"/></svg>