<svg id="Ebene_1" data-name="Ebene 1" xmlns="http://www.w3.org/2000/svg" viewBox="0 0 29.35 29.35"><title>consulting</title><path d="M22.76,11.58A8.23,8.23,0,0,0,12.67,5.45,8.65,8.65,0,0,0,6.78,15.9a8.48,8.48,0,0,0,3.54,5L8.16,24.41,16.86,22A8.6,8.6,0,0,0,22.76,11.58Zm-2.93,1.36a1.43,1.43,0,0,1-.41,0l-1.71,2.24c.05,0,.05.13.05.17a1,1,0,0,1-.86,1.1,1,1,0,0,1-1.06-.89V15.4l-1.87-1a.58.58,0,0,1-.28.08,1.32,1.32,0,0,1-.57-.12L11,15.56a1,1,0,0,1-.86,1H10a1,1,0,0,1-1-.89,1,1,0,0,1,.85-1.1.9.9,0,0,1,.73.21l2-1.14v0a1,1,0,0,1,.21-.77,1.06,1.06,0,0,1,.65-.38,1,1,0,0,1,1,.89.5.5,0,0,1,0,.34l1.71.89a1,1,0,0,1,.49-.21,1.08,1.08,0,0,1,.49.08l1.66-2.2c0-.08,0-.17,0-.25a1,1,0,0,1,.86-1.1.86.86,0,0,1,1,.93A1,1,0,0,1,19.83,12.94Z" style="fill:#6c992e;fill-rule:evenodd"/></svg>