<svg id="Ebene_1" data-name="Ebene 1" xmlns="http://www.w3.org/2000/svg" viewBox="0 0 29.35 29.35"><title>impact</title><path d="M20.39,12.26A10.86,10.86,0,0,0,19.12,10c-1.1-1.47-3-2.58-4.89-2s-2.47,2.18-2.66,3.86c-.18,1.33,0,3-.81,4.13a2.59,2.59,0,0,1-1,.76,9.25,9.25,0,0,0-2.59,1.71C5.69,19.87,5.69,23,7.7,24a3.78,3.78,0,0,0,3.15,0A15,15,0,0,0,13,22.72a29.2,29.2,0,0,0,4.47-3.67c1.39-1.36,3-2.83,3.2-4.66A3.92,3.92,0,0,0,20.39,12.26Z" style="fill:#6c992e"/><ellipse cx="22.25" cy="13.2" rx="1.18" ry="0.79" transform="translate(-2.28 21.41) rotate(-49.2)" style="fill:#6c992e"/><ellipse cx="21.9" cy="10.98" rx="1.21" ry="0.81" transform="translate(-0.72 20.38) rotate(-49.2)" style="fill:#6c992e"/><ellipse cx="20.93" cy="9.06" rx="1.4" ry="0.93" transform="translate(0.4 18.98) rotate(-49.2)" style="fill:#6c992e"/><ellipse cx="19.38" cy="7.24" rx="1.57" ry="1.07" transform="translate(1.24 17.18) rotate(-49.2)" style="fill:#6c992e"/><ellipse cx="16.95" cy="5.4" rx="2.28" ry="1.52" transform="translate(1.79 14.71) rotate(-49.2)" style="fill:#6c992e"/></svg>