<svg id="Ebene_1" data-name="Ebene 1" xmlns="http://www.w3.org/2000/svg" viewBox="0 0 29.35 29.35"><title>services</title><path d="M20.93,15.12a6.68,6.68,0,0,0,.06-.74,5.23,5.23,0,0,0,0-.68l-.05-.53,2.44-1.44L21,7.61,18.55,9l-.45-.31A7.66,7.66,0,0,0,16.91,8l-.5-.22V5.15H12V7.81L11.47,8a3.92,3.92,0,0,0-1.11.62L9.92,9,7.45,7.5,5,11.59l2.42,1.46-.06.54a6.56,6.56,0,0,0,0,.73c0,.23,0,.46,0,.68l.06.54L5,17,7.34,21.1l2.49-1.47.45.34a4.52,4.52,0,0,0,1.19.68l.56.19V23.5h4.41V20.87l.5-.22A6.39,6.39,0,0,0,18.05,20l.44-.26,2.42,1.44,2.38-4.09-2.41-1.47Zm-6.77,3.16a4,4,0,1,1,3.89-4A3.93,3.93,0,0,1,14.16,18.28Z" style="fill:#6c992e;fill-rule:evenodd"/></svg>