<?xml version="1.0" encoding="utf-8"?>
<!-- Generator: Adobe Illustrator 20.1.0, SVG Export Plug-In . SVG Version: 6.00 Build 0)  -->
<svg version="1.1" id="Icons" xmlns="http://www.w3.org/2000/svg" xmlns:xlink="http://www.w3.org/1999/xlink" x="0px" y="0px"
	 viewBox="0 0 100 100" style="enable-background:new 0 0 100 100;" xml:space="preserve">
<path d="M9.7,70.1H0V30.4h9.7V70.1z M45.8,70.1h-8.3V47.8l-4,22.3h-6l-4.1-22.3v22.3h-8.8V30.4h12.5l3.3,18.7l2.3-18.7h13.2V70.1z
	 M50.9,70.1V30.4h10.9c6.5,0,8,0.6,9.9,1.9c1.8,1.3,2.8,3.2,2.8,5.9v24c0,2.5-0.9,4.4-2.6,5.8c-1.7,1.4-3.8,2.1-10,2.1H50.9z
	 M64,61.8V38.5c0-1.9-2.1-1.8-3.8-1.8v26.6C61.9,63.4,64,63.6,64,61.8z M86.9,68c-0.7-0.3-1.3,2.1-1.3,2.1h-8V30.4h9.9v9.1
	c1-1.1,3.8-2.9,6.5-2.8c2.7,0.1,6.3,2.1,6,5.5v23.1c0,1.6-0.7,2.9-2.1,3.8c-1.1,0.5-2.1,0.7-4.5,0.7C91,69.8,87.5,68.3,86.9,68z
	 M90.2,63.2l0-20c0-1-0.5-1.5-1.4-1.5c-0.9,0-1.4,0.5-1.4,1.4l0,20c0,1,0.5,1.7,1.4,1.7C89.8,64.9,90.2,64.2,90.2,63.2z"/>
</svg>
