<?xml version="1.0" encoding="utf-8"?>
<!-- Generator: Adobe Illustrator 19.2.0, SVG Export Plug-In . SVG Version: 6.00 Build 0)  -->
<svg version="1.1" id="Icons" xmlns="http://www.w3.org/2000/svg" xmlns:xlink="http://www.w3.org/1999/xlink" x="0px" y="0px"
	 viewBox="0 0 100 100" style="enable-background:new 0 0 100 100;" xml:space="preserve">
<g>
	<path d="M50,14.5c11.9,0,13.3,0,18,0.3c4.3,0.2,6.7,0.9,8.3,1.5c2.1,0.8,3.6,1.8,5.1,3.3c1.6,1.6,2.5,3,3.3,5.1
		c0.6,1.6,1.3,3.9,1.5,8.3c0.2,4.7,0.3,6.1,0.3,18s0,13.3-0.3,18c-0.2,4.3-0.9,6.7-1.5,8.3c-0.8,2.1-1.8,3.6-3.3,5.1
		c-1.6,1.6-3,2.5-5.1,3.3c-1.6,0.6-3.9,1.3-8.3,1.5c-4.7,0.2-6.1,0.3-18,0.3s-13.3,0-18-0.3c-4.3-0.2-6.7-0.9-8.3-1.5
		c-2.1-0.8-3.6-1.8-5.1-3.3c-1.6-1.6-2.5-3-3.3-5.1c-0.6-1.6-1.3-3.9-1.5-8.3c-0.2-4.7-0.3-6.1-0.3-18s0-13.3,0.3-18
		c0.2-4.3,0.9-6.7,1.5-8.3c0.8-2.1,1.8-3.6,3.3-5.1c1.6-1.6,3-2.5,5.1-3.3c1.6-0.6,3.9-1.3,8.3-1.5C36.7,14.5,38.1,14.5,50,14.5
		 M50,6.5c-12.1,0-13.6,0.1-18.4,0.3c-4.7,0.2-8,1-10.8,2.1c-2.9,1.1-5.4,2.7-7.9,5.1c-2.5,2.5-4,5-5.1,7.9
		C6.7,24.7,6,27.9,5.7,32.6C5.5,37.4,5.5,38.9,5.5,51c0,12.1,0.1,13.6,0.3,18.4c0.2,4.7,1,8,2.1,10.8c1.1,2.9,2.7,5.4,5.1,7.9
		c2.5,2.5,5,4,7.9,5.1c2.8,1.1,6.1,1.9,10.8,2.1c4.7,0.2,6.3,0.3,18.4,0.3s13.6-0.1,18.4-0.3c4.7-0.2,8-1,10.8-2.1
		c2.9-1.1,5.4-2.7,7.9-5.1c2.5-2.5,4-5,5.1-7.9c1.1-2.8,1.9-6.1,2.1-10.8c0.2-4.7,0.3-6.3,0.3-18.4s-0.1-13.6-0.3-18.4
		c-0.2-4.7-1-8-2.1-10.8c-1.1-2.9-2.7-5.4-5.1-7.9c-2.5-2.5-5-4-7.9-5.1C76.3,7.7,73.1,7,68.4,6.7C63.6,6.5,62.1,6.5,50,6.5L50,6.5z
		"/>
	<path d="M50,28.1c-12.6,0-22.9,10.2-22.9,22.9S37.4,73.9,50,73.9S72.9,63.6,72.9,51S62.6,28.1,50,28.1z M50,65.8
		c-8.2,0-14.8-6.6-14.8-14.8S41.8,36.2,50,36.2S64.8,42.8,64.8,51S58.2,65.8,50,65.8z"/>
	<circle cx="73.8" cy="27.2" r="5.3"/>
</g>
</svg>
