<?xml version="1.0" encoding="utf-8"?>
<!-- Generator: Adobe Illustrator 21.0.2, SVG Export Plug-In . SVG Version: 6.00 Build 0)  -->
<svg version="1.1" id="Ebene_1" xmlns="http://www.w3.org/2000/svg" xmlns:xlink="http://www.w3.org/1999/xlink" x="0px" y="0px"
	 viewBox="0 0 19.3 19" style="enable-background:new 0 0 19.3 19;" xml:space="preserve">
<g>
	<polygon points="14,9.7 13.3,9 10.4,12.1 10.4,0 9.4,0 9.4,12.1 6.6,9 5.8,9.7 9.9,14.1 	"/>
	<path d="M18.8,12.5c-0.3,0-0.5,0.2-0.5,0.5v5H1v-5c0-0.3-0.2-0.5-0.5-0.5S0,12.7,0,13v5.5C0,18.7,0.2,19,0.5,19h18.3
		c0.3,0,0.5-0.2,0.5-0.5V13C19.3,12.7,19,12.5,18.8,12.5z"/>
</g>
</svg>
