<?xml version="1.0" encoding="utf-8"?>
<!-- Generator: Adobe Illustrator 22.0.1, SVG Export Plug-In . SVG Version: 6.00 Build 0)  -->
<svg version="1.1" id="Ebene_1" xmlns="http://www.w3.org/2000/svg" xmlns:xlink="http://www.w3.org/1999/xlink" x="0px" y="0px"
	 viewBox="0 0 14 14" style="enable-background:new 0 0 14 14;" xml:space="preserve">
<style type="text/css">
	.st0{fill:#FFFFFF;}
</style>
<g>
	<path class="st0" d="M5,0H1C0.5,0,0,0.4,0,1v4c0,0.5,0.4,1,1,1h4c0.5,0,1-0.4,1-1V1C6,0.5,5.6,0,5,0z"/>
	<path class="st0" d="M5,8H1C0.5,8,0,8.4,0,9v4c0,0.5,0.4,1,1,1h4c0.5,0,1-0.4,1-1V9C6,8.5,5.6,8,5,8z"/>
	<path class="st0" d="M13,8H9C8.5,8,8,8.4,8,9v4c0,0.5,0.4,1,1,1h4c0.5,0,1-0.4,1-1V9C14,8.5,13.6,8,13,8z"/>
	<path class="st0" d="M13,0H9C8.5,0,8,0.4,8,1v4c0,0.5,0.4,1,1,1h4c0.5,0,1-0.4,1-1V1C14,0.5,13.6,0,13,0z"/>
</g>
</svg>
