<?xml version="1.0" encoding="utf-8"?>
<!-- Generator: Adobe Illustrator 21.0.2, SVG Export Plug-In . SVG Version: 6.00 Build 0)  -->
<svg version="1.1" id="Ebene_1" xmlns="http://www.w3.org/2000/svg" xmlns:xlink="http://www.w3.org/1999/xlink" x="0px" y="0px"
	 viewBox="0 0 35.7 35.7" style="enable-background:new 0 0 35.7 35.7;" xml:space="preserve">
<style type="text/css">
	.st0{fill:#D9D9D9;}
	.st1{fill:#ECECEC;}
</style>
<path class="st0" d="M11.5,6.5c0,0,1.4-1.3,4,6.1c0,0,0.2,1-2.6,0.9c0,0-0.6,0.5,0.7,2c1.3,1.6,6.4,7.3,6.4,7.3s1,0.7,1.2,0
	S21,20,23,20.7s4.7,3.4,4.6,4.1s-2.3,3.4-5.1,3s-10.1-4.9-14.2-15C8.3,12.8,6.8,7.6,11.5,6.5z"/>
<path class="st1" d="M17.7,0C7.8,0-0.2,8-0.2,17.8c0,9.9,8,17.8,17.8,17.8s17.8-8,17.8-17.8C35.5,8,27.5,0,17.7,0z M17.7,34.4
	C8.5,34.4,1.1,27,1.1,17.8S8.5,1.2,17.7,1.2s16.6,7.4,16.6,16.6S26.9,34.4,17.7,34.4z"/>
</svg>
