<?xml version="1.0" encoding="utf-8"?>
<!-- Generator: Adobe Illustrator 21.0.2, SVG Export Plug-In . SVG Version: 6.00 Build 0)  -->
<svg version="1.1" id="Ebene_1" xmlns="http://www.w3.org/2000/svg" xmlns:xlink="http://www.w3.org/1999/xlink" x="0px" y="0px"
	 viewBox="0 0 108 18" style="enable-background:new 0 0 108 18;" xml:space="preserve">
<style type="text/css">
	.st0{fill:#353435;}
	.st1{fill:#141213;}
</style>
<g>
	<circle class="st0" cx="27" cy="9" r="7"/>
	<path class="st1" d="M27,4c2.8,0,5,2.2,5,5s-2.2,5-5,5s-5-2.2-5-5S24.2,4,27,4 M27,0c-5,0-9,4-9,9s4,9,9,9s9-4,9-9S32,0,27,0L27,0z
		"/>
</g>
<g>
	<circle class="st0" cx="9" cy="9" r="7"/>
	<path class="st1" d="M9,4c2.8,0,5,2.2,5,5s-2.2,5-5,5s-5-2.2-5-5S6.2,4,9,4 M9,0C4,0,0,4,0,9s4,9,9,9s9-4,9-9S14,0,9,0L9,0z"/>
</g>
<g>
	<circle class="st0" cx="63" cy="9" r="7"/>
	<path class="st1" d="M63,4c2.8,0,5,2.2,5,5s-2.2,5-5,5s-5-2.2-5-5S60.2,4,63,4 M63,0c-5,0-9,4-9,9s4,9,9,9s9-4,9-9S68,0,63,0L63,0z
		"/>
</g>
<g>
	<circle class="st0" cx="45" cy="9" r="7"/>
	<path class="st1" d="M45,4c2.8,0,5,2.2,5,5s-2.2,5-5,5s-5-2.2-5-5S42.2,4,45,4 M45,0c-5,0-9,4-9,9s4,9,9,9s9-4,9-9S50,0,45,0L45,0z
		"/>
</g>
<g>
	<circle class="st0" cx="99" cy="9" r="7"/>
	<path class="st1" d="M99,4c2.8,0,5,2.2,5,5s-2.2,5-5,5s-5-2.2-5-5S96.2,4,99,4 M99,0c-5,0-9,4-9,9s4,9,9,9s9-4,9-9S104,0,99,0L99,0
		z"/>
</g>
<g>
	<circle class="st0" cx="81" cy="9" r="7"/>
	<path class="st1" d="M81,4c2.8,0,5,2.2,5,5s-2.2,5-5,5s-5-2.2-5-5S78.2,4,81,4 M81,0c-5,0-9,4-9,9s4,9,9,9s9-4,9-9S86,0,81,0L81,0z
		"/>
</g>
</svg>
