<?xml version="1.0" encoding="utf-8"?>
<!-- Generator: Adobe Illustrator 22.0.1, SVG Export Plug-In . SVG Version: 6.00 Build 0)  -->
<svg version="1.1" id="Ebene_1" xmlns="http://www.w3.org/2000/svg" xmlns:xlink="http://www.w3.org/1999/xlink" x="0px" y="0px"
	 viewBox="0 0 17 32" style="enable-background:new 0 0 17 32;" xml:space="preserve">
<title>slideshow-next</title>
<path d="M5.3,23.8l7.3-7.4c0.2-0.2,0.2-0.6,0-0.8c0,0,0,0,0,0L5.3,8.2C5,7.9,4.7,7.9,4.4,8.2c0,0,0,0,0,0C4.2,8.4,4.2,8.8,4.4,9
	l6.9,7l-6.9,7c-0.2,0.2-0.2,0.6,0,0.8c0,0,0,0,0,0C4.5,24,4.7,24,4.8,24C5,24,5.2,23.9,5.3,23.8z"/>
</svg>
