<?xml version="1.0" encoding="utf-8"?>
<!-- Generator: Adobe Illustrator 22.0.1, SVG Export Plug-In . SVG Version: 6.00 Build 0)  -->
<svg version="1.1" id="Ebene_1" xmlns="http://www.w3.org/2000/svg" xmlns:xlink="http://www.w3.org/1999/xlink" x="0px" y="0px"
	 viewBox="0 0 17 32" style="enable-background:new 0 0 17 32;" xml:space="preserve">
<title>slideshow-prev</title>
<path d="M11.8,8.2l-7.3,7.4c-0.2,0.2-0.2,0.6,0,0.8c0,0,0,0,0,0l7.3,7.4c0.2,0.3,0.5,0.4,0.8,0.2c0.3-0.2,0.4-0.5,0.2-0.8
	c-0.1-0.1-0.1-0.2-0.2-0.2l-6.9-7l6.9-7c0.2-0.2,0.2-0.6,0-0.8c0,0,0,0,0,0c-0.1-0.1-0.3-0.2-0.4-0.2C12.1,8.1,11.9,8.1,11.8,8.2z"
	/>
</svg>
