<svg xmlns="http://www.w3.org/2000/svg" viewBox="0 0 180.85 174.59"><defs><style>.cls-1{fill:#fff;}</style></defs><title>digitalization </title><g id="Ebene_2" data-name="Ebene 2"><path class="cls-1" d="M162.42,15.3h-114a7,7,0,0,0-7,7v11h6v-11a1,1,0,0,1,1-1h114a1,1,0,0,1,1,1v70h-56v6h56v13a1,1,0,0,1-1,1h-55v6h9.38l7.14,15H107.42v6h32.27a3,3,0,0,0,0-6h-9.1l-7.15-15h39a7,7,0,0,0,7-7v-89A7,7,0,0,0,162.42,15.3Z"/><path class="cls-1" d="M96.42,37.3h-63a7,7,0,0,0-7,7v19h6v-6h65v60h-25v6h25v19a1,1,0,0,1-1,1h-24v6h24a7,7,0,0,0,7-7v-98A7,7,0,0,0,96.42,37.3Zm-64,14v-7a1,1,0,0,1,1-1h63a1,1,0,0,1,1,1v7Z"/><path class="cls-1" d="M61.42,67.3h-43a7,7,0,0,0-7,7v78a7,7,0,0,0,7,7h43a7,7,0,0,0,7-7v-78A7,7,0,0,0,61.42,67.3Zm-44,20h45v47h-45Zm1-14h43a1,1,0,0,1,1,1v7h-45v-7A1,1,0,0,1,18.42,73.3Zm43,80h-43a1,1,0,0,1-1-1v-12h45v12A1,1,0,0,1,61.42,153.3Z"/><path class="cls-1" d="M41.42,143.8h-3a3,3,0,0,0,0,6h3a3,3,0,1,0,0-6Z"/><path class="cls-1" d="M118.42,104.8a3,3,0,0,0-3-3h-7v6h7A3,3,0,0,0,118.42,104.8Z"/></g></svg>