<svg xmlns="http://www.w3.org/2000/svg" viewBox="0 0 180.85 174.59"><defs><style>.cls-1{fill:#00415b;}</style></defs><title>integrate_team</title><g id="Ebene_2" data-name="Ebene 2"><path class="cls-1" d="M134,84a16.37,16.37,0,1,0-16.37-16.36A16.38,16.38,0,0,0,134,84Zm0-28.34a12,12,0,0,1,0,24h0a12,12,0,1,1,0-24Z"/><path class="cls-1" d="M90.62,94.79a20.31,20.31,0,1,0-20.31-20.3A20.33,20.33,0,0,0,90.62,94.79Zm0-35.82a15.48,15.48,0,0,1,1.5,30.89v.07l-1.5.08a15.52,15.52,0,0,1,0-31Z"/><path class="cls-1" d="M46.81,84A16.37,16.37,0,1,0,30.45,67.62,16.42,16.42,0,0,0,46.81,84Zm0-28.34h0a12,12,0,1,1-12,12A12,12,0,0,1,46.81,55.64Z"/><path class="cls-1" d="M162.17,100.55c-1.52-3-7.87-12.24-28.18-12.24-11.35,0-19.87,2.76-25.34,8.19-.22.22-.44.45-.65.69q2.44.63,4.81,1.48c4.57-4,11.59-6.06,20.9-6.06,17.26,0,24.22,7.18,24.22,10.17v5.39H128.11a24.43,24.43,0,0,1,3.72,4.4h26.95a4.14,4.14,0,0,0,3.53-4.5v-.14l0-5.74A3.79,3.79,0,0,0,162.17,100.55Z"/><path class="cls-1" d="M90.6,100.7C63,100.7,54.68,113.14,52.78,117a4.59,4.59,0,0,0-.46,2v7.62A4.66,4.66,0,0,0,57,131.24h67.2a4.67,4.67,0,0,0,4.66-4.64V119a4.52,4.52,0,0,0-.46-2C126.5,113.11,118.23,100.7,90.6,100.7Zm33.85,26.15H56.72v-8l.17-.33c.71-1.35,3-4.83,8.3-7.91,6.4-3.69,14.94-5.55,25.41-5.55,24.54,0,32,10.3,33.67,13.45l.18.33Z"/><path class="cls-1" d="M23.4,108.25l0-5.59a4.94,4.94,0,0,1,1.68-3.11c4.68-4.61,12.08-6.94,22-6.94,9.26,0,16.34,2,21.06,5.94,1.56-.56,3.15-1.06,4.76-1.48-3.6-3.91-11.12-8.86-26.12-8.86-14.23,0-21.67,4.45-25.4,8.19l-.1.08A7,7,0,0,0,19,100.23a31.09,31.09,0,0,0,0,7.59V108c0,1.73.61,4.64,2.93,4.64H49.29A25,25,0,0,1,53,108.25Z"/></g></svg>