<svg xmlns="http://www.w3.org/2000/svg" viewBox="0 0 180.85 174.59"><defs><style>.cls-1{fill:#00415b;}</style></defs><title>network</title><g id="Ebene_2" data-name="Ebene 2"><path class="cls-1" d="M148.81,74.19A10.13,10.13,0,0,0,139,82l-32.82-.66A18.79,18.79,0,0,0,95.6,66.16l6.71-19.44a13.08,13.08,0,0,0,1.78.15,12,12,0,1,0-5.88-1.57L91.52,64.73a18.67,18.67,0,0,0-17,4.75L48.6,47.9a10.39,10.39,0,1,0-2.78,3.34L71.74,72.81a18.73,18.73,0,0,0,5.44,26l-13.42,26.8a14.11,14.11,0,1,0,3.87,2l13.43-26.81a18.49,18.49,0,0,0,14.23-.58l12.74,21a8.49,8.49,0,1,0,6.09-2.59,8.23,8.23,0,0,0-2.39.35L99,97.89a18.8,18.8,0,0,0,7.08-12.27l32.83.66a10.11,10.11,0,1,0,9.91-12.09ZM104.1,27.33a7.6,7.6,0,1,1-7.6,7.6A7.6,7.6,0,0,1,104.1,27.33ZM59.49,148.67A9.72,9.72,0,1,1,69.2,139,9.72,9.72,0,0,1,59.49,148.67Zm58.8-21.59a4.17,4.17,0,1,1-4.17-4.17A4.17,4.17,0,0,1,118.29,127.08ZM39.43,49.13a6,6,0,1,1,6-6A6,6,0,0,1,39.43,49.13Zm48,48.4a14.46,14.46,0,1,1,14.46-14.46A14.48,14.48,0,0,1,87.47,97.53Zm61.34-7.46a5.77,5.77,0,1,1,5.78-5.77A5.78,5.78,0,0,1,148.81,90.07Z"/><path class="cls-1" d="M147.81,74.19A10.13,10.13,0,0,0,138,82l-32.82-.66A18.79,18.79,0,0,0,94.6,66.16l6.71-19.44a13.08,13.08,0,0,0,1.78.15,12,12,0,1,0-5.88-1.57L90.52,64.73a18.67,18.67,0,0,0-17,4.75L47.6,47.9a10.39,10.39,0,1,0-2.78,3.34L70.74,72.81a18.73,18.73,0,0,0,5.44,26l-13.42,26.8a14.11,14.11,0,1,0,3.87,2l13.43-26.81a18.49,18.49,0,0,0,14.23-.58l12.74,21a8.49,8.49,0,1,0,6.09-2.59,8.23,8.23,0,0,0-2.39.35L98,97.89a18.8,18.8,0,0,0,7.08-12.27l32.83.66a10.11,10.11,0,1,0,9.91-12.09ZM103.1,27.33a7.6,7.6,0,1,1-7.6,7.6A7.6,7.6,0,0,1,103.1,27.33ZM58.49,148.67A9.72,9.72,0,1,1,68.2,139,9.72,9.72,0,0,1,58.49,148.67Zm58.8-21.59a4.17,4.17,0,1,1-4.17-4.17A4.17,4.17,0,0,1,117.29,127.08ZM38.43,49.13a6,6,0,1,1,6-6A6,6,0,0,1,38.43,49.13Zm48,48.4a14.46,14.46,0,1,1,14.46-14.46A14.48,14.48,0,0,1,86.47,97.53Zm61.34-7.46a5.77,5.77,0,1,1,5.78-5.77A5.78,5.78,0,0,1,147.81,90.07Z"/></g></svg>