<svg xmlns="http://www.w3.org/2000/svg" viewBox="0 0 180.85 174.59"><defs><style>.cls-1{fill:#00415b;}</style></defs><title>premier_position</title><g id="Ebene_2" data-name="Ebene 2"><path class="cls-1" d="M59.29,112.67H26.23a2.38,2.38,0,0,0-2.38,2.38v28.57A2.38,2.38,0,0,0,26.23,146H59.29a2.38,2.38,0,0,0,2.37-2.38V115.05A2.38,2.38,0,0,0,59.29,112.67ZM28.6,141.25V117.43H56.91v23.82Z"/><path class="cls-1" d="M108.88,95.12H75.82a2.39,2.39,0,0,0-2.38,2.38v46.12A2.39,2.39,0,0,0,75.82,146h33.06a2.39,2.39,0,0,0,2.38-2.38V97.5A2.39,2.39,0,0,0,108.88,95.12ZM78.19,141.25V99.88H106.5v41.37Z"/><path class="cls-1" d="M158.47,119.2H125.41a2.39,2.39,0,0,0-2.38,2.38v22a2.39,2.39,0,0,0,2.38,2.38h33.06a2.39,2.39,0,0,0,2.38-2.38v-22A2.39,2.39,0,0,0,158.47,119.2Zm-30.68,22V124h28.3v17.29Z"/><path class="cls-1" d="M127.79,42.4A13.41,13.41,0,0,0,114.39,29H70.31a13.4,13.4,0,0,0,0,26.8h4.86A18.8,18.8,0,0,0,90,66.65V78.59H81.33a2.38,2.38,0,0,0,0,4.76h22a2.38,2.38,0,0,0,0-4.76H94.73V66.65a18.83,18.83,0,0,0,14.8-10.85h4.86A13.41,13.41,0,0,0,127.79,42.4ZM73.71,51h-3.4a8.65,8.65,0,1,1,0-17.29h3.13V47.91A18.55,18.55,0,0,0,73.71,51ZM123,42.4A8.66,8.66,0,0,1,114.39,51H111a18.76,18.76,0,0,0,.28-3.13V33.75h3.13A8.66,8.66,0,0,1,123,42.4ZM106.5,33.75V47.91a14.16,14.16,0,0,1-28.31,0V33.75Z"/></g></svg>