<svg xmlns="http://www.w3.org/2000/svg" viewBox="0 0 180.85 174.59"><defs><style>.cls-1{fill:#00415b;}</style></defs><title>results_for_equity</title><g id="Ebene_2" data-name="Ebene 2"><path class="cls-1" d="M96.27,52.21c6.54-3.31,13-10.35,13-18.25,0-5-2.15-6-4.06-6s-3.57,1.19-6,2.86C96.39,33,92.81,35.39,89,35.39c-3.57,0-7.39-2.62-10.25-4.53-2.38-1.67-4-2.86-6-2.86s-4.06.95-4.06,6c0,7.9,6.45,14.94,13,18.25-14,9.62-30.86,42.07-30.86,59.19,0,13.11,6.67,28.6,38.13,28.6s38.13-15.49,38.13-28.6C127.13,94.28,110.27,61.83,96.27,52.21Zm-22.76-18v-1a21.22,21.22,0,0,1,2.86,1.67c3.1,2.15,7.63,5.24,12.87,5.24,5,0,9.53-3.09,12.87-5.24a14.54,14.54,0,0,1,2.38-1.67v1c0,7.68-8.91,14.35-14.22,15.35a8.11,8.11,0,0,0-2.54,0C82.42,48.55,73.51,41.88,73.51,34.2ZM89,135.23c-22.16,0-33.36-8.1-33.36-23.83C55.64,91.15,79,54.21,89,54.21s33.36,36.94,33.36,57.19C122.36,127.13,111.16,135.23,89,135.23Z"/><path class="cls-1" d="M90.43,97.11c-4.05-1.67-6-2.86-6-5.48,0-2.15,1.43-4.29,5.24-4.29A13.1,13.1,0,0,1,95.91,89l1.19-3.09a13.87,13.87,0,0,0-6.43-1.67V79.47h-3.1v5c-4.53.71-7.39,3.81-7.39,7.86s3.1,6.43,8.11,8.34c3.57,1.43,5.48,3.1,5.48,5.72,0,2.86-2.15,4.77-5.72,4.77A12.51,12.51,0,0,1,81.14,109l-1.2,3.34a13.58,13.58,0,0,0,7.39,2.14v4.77h3.1v-5c5-1,7.63-4.52,7.63-8.34C98.06,101.63,95.43,99.25,90.43,97.11Z"/></g></svg>