<svg xmlns="http://www.w3.org/2000/svg" viewBox="0 0 180.85 174.59"><defs><style>.cls-1{fill:#00415b;}</style></defs><title>strategic_positioning_and_focus</title><g id="Ebene_2" data-name="Ebene 2"><path class="cls-1" d="M132.51,50.94a2.21,2.21,0,0,0-2.27-1.82h-4.09V35.27A2.15,2.15,0,0,0,123.88,33H107.3A2.15,2.15,0,0,0,105,35.27V49.35H101a2.2,2.2,0,0,0-2.27,1.82L96.63,61.61H84.37L82.32,51.17a2.2,2.2,0,0,0-2.27-1.82H76V35.27A2.15,2.15,0,0,0,73.7,33H57.12a2.15,2.15,0,0,0-2.27,2.27V49.35H50.76a2.22,2.22,0,0,0-2.27,1.82L36,105.21v34.52A2.15,2.15,0,0,0,38.27,142H80.05a2.14,2.14,0,0,0,2.27-2.27V116.11H98.68v23.62A2.14,2.14,0,0,0,101,142h41.78a2.15,2.15,0,0,0,2.27-2.27V105.21Zm-22.93-13.4h12V49.35h-12Zm-50.19,0h12V49.35h-12Zm18.39,99.92H40.54v-9.31H77.78Zm10.45-25.89H80.05a2.15,2.15,0,0,0-2.27,2.27v9.77H40.54V106.12l12-52.23H78.24l2,10.45a2.22,2.22,0,0,0,2.27,1.81h5.68Zm52.23,25.89H103.22v-9.31h37.24Zm0-13.85H103.22v-9.77a2.15,2.15,0,0,0-2.27-2.27H92.77V66.15h5.68a2.22,2.22,0,0,0,2.27-1.81l2-10.45h25.66l12,52.23Z"/></g></svg>