<svg xmlns="http://www.w3.org/2000/svg" viewBox="0 0 180.85 174.59"><defs><style>.cls-1{fill:#fff;}</style></defs><title>sustainable_resources</title><g id="Ebene_2" data-name="Ebene 2"><path class="cls-1" d="M67.69,93.8a11,11,0,1,0-11,11A11,11,0,0,0,67.69,93.8Zm-16,0a5,5,0,1,1,5,5A5,5,0,0,1,51.69,93.8Z"/><path class="cls-1" d="M150.69,57.87c0-9.35-5.37-19.74-9.87-26.81A101.65,101.65,0,0,0,134,21.54c-3.53-4.32-4.42-4.74-5.76-4.74s-2.23.42-5.76,4.74a102.06,102.06,0,0,0-6.86,9.52c-4.51,7.07-9.88,17.46-9.88,26.81,0,20.27,12,25,19,26V119.3a32.5,32.5,0,0,1-65,.32A26.58,26.58,0,0,0,83.23,93.26V66.72H71.46V46.8a3,3,0,0,0-6,0V66.72H47.92V46.8a3,3,0,0,0-6,0V66.72H30.15V93.26A26.57,26.57,0,0,0,53.7,119.62a38.5,38.5,0,0,0,77-.32V84C137.53,83.25,150.69,79.13,150.69,57.87ZM36.15,93.26V72.72H77.23V93.26a20.54,20.54,0,0,1-41.08,0Zm94.54-15.34V51.8a3,3,0,0,0-6,0v26c-8.41-1.45-13-8.39-13-19.91,0-12.19,11.85-28.47,16.5-33.87,4.65,5.4,16.5,21.68,16.5,33.87C144.69,69.84,139.74,76.85,130.69,77.92Z"/></g></svg>