<svg xmlns="http://www.w3.org/2000/svg" viewBox="0 0 180.85 174.59"><defs><style>.cls-1{fill:#fff;}</style></defs><title>wheat_agriculture</title><g id="Ebene_2" data-name="Ebene 2"><path class="cls-1" d="M163.45,46.53v-3h-3a32.75,32.75,0,0,0-19.81,6.69,32.76,32.76,0,0,0-7.8-33.73l-2.12-2.12-2.13,2.12a32.71,32.71,0,0,0-7.81,33.73A32.57,32.57,0,0,0,101,43.53H98v3a32.74,32.74,0,0,0,29.74,32.56V90.46A32.69,32.69,0,0,0,101,76.56H98v3a32.74,32.74,0,0,0,29.74,32.56v11.37A32.69,32.69,0,0,0,101,109.59H98v3a32.76,32.76,0,0,0,29.74,32.57V156a3,3,0,0,0,6,0V145.16a32.76,32.76,0,0,0,29.73-32.57v-3h-3a32.66,32.66,0,0,0-26.73,13.9V112.13a32.76,32.76,0,0,0,29.73-32.57v-3h-3a32.66,32.66,0,0,0-26.73,13.9V79.09A32.74,32.74,0,0,0,163.45,46.53ZM104.17,82.75a26.76,26.76,0,0,1,23.33,23.33A26.76,26.76,0,0,1,104.17,82.75Zm0,33a26.76,26.76,0,0,1,23.33,23.33A26.76,26.76,0,0,1,104.17,115.78Zm53.09,0a26.76,26.76,0,0,1-23.33,23.33A26.76,26.76,0,0,1,157.26,115.78Zm0-33a26.76,26.76,0,0,1-23.33,23.33A26.76,26.76,0,0,1,157.26,82.75Zm0-33A26.74,26.74,0,0,1,133.93,73a26.71,26.71,0,0,1,23.33-23.32Zm-26.54-26.6a26.77,26.77,0,0,1,0,33,26.69,26.69,0,0,1,0-33ZM104.17,49.71A26.78,26.78,0,0,1,127.5,73,26.74,26.74,0,0,1,104.17,49.71Z"/><path class="cls-1" d="M60.06,50.22a32.74,32.74,0,0,0-7.81-33.73l-2.12-2.12L48,16.49a32.75,32.75,0,0,0-9.52,25.06,32.06,32.06,0,0,0,1.71,8.67,32.62,32.62,0,0,0-19.81-6.69h-3v3A32.74,32.74,0,0,0,47.13,79.09V90.46a32.68,32.68,0,0,0-26.74-13.9h-3v3a32.76,32.76,0,0,0,29.74,32.57v11.36a32.68,32.68,0,0,0-26.74-13.9h-3v3a32.76,32.76,0,0,0,29.74,32.57V156a3,3,0,0,0,6,0V145.16a32.76,32.76,0,0,0,29.74-32.57v-3h-3a32.69,32.69,0,0,0-26.74,13.9V112.13A32.76,32.76,0,0,0,82.87,79.56v-3h-3a32.69,32.69,0,0,0-26.74,13.9V79.09A32.74,32.74,0,0,0,82.87,46.53v-3h-3A32.72,32.72,0,0,0,60.06,50.22ZM23.58,82.75a26.74,26.74,0,0,1,23.33,23.33A26.78,26.78,0,0,1,23.58,82.75Zm0,33a26.74,26.74,0,0,1,23.33,23.33A26.78,26.78,0,0,1,23.58,115.78Zm53.1,0a26.78,26.78,0,0,1-23.33,23.33A26.76,26.76,0,0,1,76.68,115.78Zm0-33a26.78,26.78,0,0,1-23.33,23.33A26.76,26.76,0,0,1,76.68,82.75ZM50.13,23.12a26.74,26.74,0,0,1,0,33,26.73,26.73,0,0,1,0-33ZM23.58,49.71A26.76,26.76,0,0,1,46.91,73,26.76,26.76,0,0,1,23.58,49.71ZM53.35,73A26.71,26.71,0,0,1,76.68,49.72,26.76,26.76,0,0,1,53.35,73Z"/></g></svg>