<svg id="Ebene_1" data-name="Ebene 1" xmlns="http://www.w3.org/2000/svg" viewBox="0 0 160.91 160.92"><title>sdg-3</title><path d="M30.86,39V34.17c0-3-1.29-4.89-4-5.51a5.17,5.17,0,0,0,3.73-5.26V20.58c0-4.6-2.2-7.42-7.22-7.42-5.65,0-7.61,3.35-7.61,8.13v2.87h5v-3.3c0-2,.63-3.16,2.35-3.16s2.34,1.15,2.34,2.92v3.5c0,1.72-1.15,2.63-2.91,2.63H20.43v4.16h2.29c1.92,0,2.68.91,2.68,2.63V38.9c0,1.72-.76,2.92-2.44,2.92-1.86,0-2.53-1.24-2.53-3.16V34h-5v4.26c0,4.93,2,8.09,7.51,8.09S30.86,43.45,30.86,39Z"/><path d="M127.2,92.37c-2.2,0-4.85,2.41-6.3,3.89-1.44-1.48-3.92-3.89-6.12-3.89-4.4,0-7.48,3.67-7.48,8.2a8.32,8.32,0,0,0,2.33,5.8l11.28,11.3,11.27-11.29h0a8.31,8.31,0,0,0,2.34-5.8C134.51,96,131.6,92.37,127.2,92.37Z"/><path d="M116.59,84.39a1.85,1.85,0,0,0,3.34-1.61L109.75,61.69a1.85,1.85,0,0,0-3.44.27L87,126.2l-5.3-30.91a1.85,1.85,0,0,0-3.46-.57l-8.56,15.87L65.85,84a1.85,1.85,0,0,0-3.52-.49l-8.87,19.91h-25a1.86,1.86,0,0,0,0,3.71h26.2a1.87,1.87,0,0,0,1.7-1.1L63.1,90.93l3.68,25.75a1.86,1.86,0,0,0,3.47.62l8.67-16.09,5.73,33.37a1.86,1.86,0,0,0,1.72,1.53h.11a1.85,1.85,0,0,0,1.77-1.32l20.24-67.21Z"/><path d="M47.71,26.82a2.05,2.05,0,0,0,2.18-1.64v1.48h1.64V19.42H48.29v1.8h1.08v2.4c0,.88-.38,1.3-1.12,1.3s-1.12-.58-1.12-1.4V16.24c0-.82.36-1.4,1.18-1.4s1.14.48,1.14,1.32v1.38h2.08v-1.2c0-2-.74-3.4-3.26-3.4s-3.42,1.54-3.42,3.66v6.56C44.85,25.26,45.75,26.82,47.71,26.82Z"/><path d="M56.27,26.82c2.42,0,3.46-1.56,3.46-3.66V16.6c0-2.12-1-3.66-3.46-3.66s-3.44,1.54-3.44,3.66v6.56C52.83,25.26,53.87,26.82,56.27,26.82ZM55.11,16.24c0-.82.36-1.4,1.16-1.4s1.18.58,1.18,1.4v7.28c0,.82-.36,1.4-1.18,1.4s-1.16-.58-1.16-1.4Z"/><path d="M64.47,26.82c2.42,0,3.46-1.56,3.46-3.66V16.6c0-2.12-1-3.66-3.46-3.66S61,14.48,61,16.6v6.56C61,25.26,62.07,26.82,64.47,26.82ZM63.31,16.24c0-.82.36-1.4,1.16-1.4s1.18.58,1.18,1.4v7.28c0,.82-.36,1.4-1.18,1.4s-1.16-.58-1.16-1.4Z"/><path d="M76.05,23V16.74c0-2.1-.86-3.64-3.3-3.64H69.23V26.66h3.52C75.19,26.66,76.05,25.1,76.05,23ZM71.51,24.8V15h1a1.19,1.19,0,0,1,1.3,1.36v7.1c0,.82-.36,1.38-1.3,1.38Z"/><polygon points="81.73 20.68 83.93 20.68 83.93 26.66 86.23 26.66 86.23 13.1 83.93 13.1 83.93 18.84 81.73 18.84 81.73 13.1 79.45 13.1 79.45 26.66 81.73 26.66 81.73 20.68"/><polygon points="92.97 24.8 89.81 24.8 89.81 20.68 92.07 20.68 92.07 18.84 89.81 18.84 89.81 14.96 92.97 14.96 92.97 13.1 87.53 13.1 87.53 26.66 92.97 26.66 92.97 24.8"/><path d="M96.39,24.18h2.42l.42,2.48h2.34L99,13.1h-2.6L93.83,26.66H96Zm1.2-7.26h0l.9,5.44H96.69Z"/><polygon points="107.51 24.8 104.79 24.8 104.79 13.1 102.51 13.1 102.51 26.66 107.51 26.66 107.51 24.8"/><polygon points="108.87 26.66 111.17 26.66 111.17 14.96 113.05 14.96 113.05 13.1 106.99 13.1 106.99 14.96 108.87 14.96 108.87 26.66"/><polygon points="116.39 20.68 118.59 20.68 118.59 26.66 120.89 26.66 120.89 13.1 118.59 13.1 118.59 18.84 116.39 18.84 116.39 13.1 114.11 13.1 114.11 26.66 116.39 26.66 116.39 20.68"/><path d="M47.05,43.18h2.42l.42,2.48h2.34L49.65,32.1h-2.6L44.49,45.66h2.16Zm1.2-7.26h0l.9,5.44H47.35Z"/><polygon points="57.87 39.88 55.41 32.1 53.17 32.1 53.17 45.66 55.09 45.66 55.09 37.14 57.77 45.66 59.77 45.66 59.77 32.1 57.87 32.1 57.87 39.88"/><path d="M61.07,32.1V45.66h3.52c2.44,0,3.3-1.56,3.3-3.64V35.74c0-2.1-.86-3.64-3.3-3.64Zm4.54,3.22v7.1c0,.82-.36,1.38-1.3,1.38h-1V34h1A1.19,1.19,0,0,1,65.61,35.32Z"/><polygon points="74.25 40.7 74.23 40.7 73.17 32.1 70.97 32.1 72.79 45.66 74.93 45.66 76.21 37.28 76.23 37.28 77.57 45.66 79.73 45.66 81.49 32.1 79.57 32.1 78.53 40.7 78.51 40.7 77.25 32.1 75.39 32.1 74.25 40.7"/><polygon points="87.91 33.96 87.91 32.1 82.47 32.1 82.47 45.66 87.91 45.66 87.91 43.8 84.75 43.8 84.75 39.68 87.01 39.68 87.01 37.84 84.75 37.84 84.75 33.96 87.91 33.96"/><polygon points="89.13 32.1 89.13 45.66 94.13 45.66 94.13 43.8 91.41 43.8 91.41 32.1 89.13 32.1"/><polygon points="95.17 32.1 95.17 45.66 100.17 45.66 100.17 43.8 97.45 43.8 97.45 32.1 95.17 32.1"/><rect x="99.87" y="38.44" width="3.2" height="1.84"/><path d="M110.57,36.46V35.08c0-1.92-.76-3-3-3h-3.3V45.66h3.54c2.28,0,3.14-1.06,3.14-3v-1.8a2.06,2.06,0,0,0-1.7-2.26A2,2,0,0,0,110.57,36.46ZM106.51,34h.78a1,1,0,0,1,1.1,1.1v1.66a1,1,0,0,1-1.08,1.1h-.8Zm2.12,8.74a1,1,0,0,1-1.12,1.1h-1V39.56h1c.8,0,1.14.38,1.14,1.1Z"/><polygon points="117.49 33.96 117.49 32.1 112.05 32.1 112.05 45.66 117.49 45.66 117.49 43.8 114.33 43.8 114.33 39.68 116.59 39.68 116.59 37.84 114.33 37.84 114.33 33.96 117.49 33.96"/><rect x="118.7" y="32.1" width="2.28" height="13.56"/><polygon points="124.23 37.14 126.91 45.66 128.91 45.66 128.91 32.1 127.01 32.1 127.01 39.88 124.55 32.1 122.31 32.1 122.31 45.66 124.23 45.66 124.23 37.14"/><path d="M136.89,36.54v-1.2c0-2-.74-3.4-3.26-3.4s-3.43,1.54-3.43,3.66v6.56c0,2.1.91,3.66,2.87,3.66a2.05,2.05,0,0,0,2.18-1.64v1.48h1.64V38.42h-3.24v1.8h1.08v2.4c0,.88-.38,1.3-1.12,1.3s-1.12-.58-1.12-1.4V35.24c0-.82.36-1.4,1.18-1.4s1.14.48,1.14,1.32v1.38Z"/></svg>