<svg id="Ebene_1" data-name="Ebene 1" xmlns="http://www.w3.org/2000/svg" viewBox="0 0 160.92 160.93"><title>sdg-17</title><polygon points="14.7 19.37 14.7 25.07 14.75 25.07 18.57 21.1 18.62 21.1 18.62 45.93 24.08 45.93 24.08 13.49 19.73 13.49 14.7 19.37"/><polygon points="26.57 17.94 34.99 17.94 27.71 45.93 33.12 45.93 40.26 18.51 40.26 13.49 26.57 13.49 26.57 17.94"/><path d="M101.17,76.66a21,21,0,0,0-39.52,0,20.94,20.94,0,0,0-12.1,37.46,20.73,20.73,0,0,0-.83,5.82,21,21,0,0,0,32.79,17.29A21,21,0,0,0,114.1,119.8a20.6,20.6,0,0,0-.8-5.7,20.94,20.94,0,0,0-12.13-37.44Zm-3,7a16.75,16.75,0,0,1-14.27,16.54A16.58,16.58,0,0,1,97.93,81.06,16.81,16.81,0,0,1,98.15,83.63Zm-5,19.43a16.74,16.74,0,0,1,15,9.36,16.58,16.58,0,0,1-7.74,1.92,16.76,16.76,0,0,1-15-9.37A16.7,16.7,0,0,1,93.14,103.06ZM81.41,66.9A16.74,16.74,0,0,1,96.75,77,21,21,0,0,0,81.41,88.74,21,21,0,0,0,66.07,77,16.74,16.74,0,0,1,81.41,66.9ZM64.89,81.06a16.58,16.58,0,0,1,14,19.11,16.58,16.58,0,0,1-14-19.11Zm12.48,24a16.67,16.67,0,0,1-22.64,7.36,16.67,16.67,0,0,1,22.64-7.36ZM45.68,97.6A16.76,16.76,0,0,1,60.62,81a21.38,21.38,0,0,0-.17,2.67A20.91,20.91,0,0,0,67.3,99.12,21,21,0,0,0,51.23,110,16.68,16.68,0,0,1,45.68,97.6Zm24,39.08a16.76,16.76,0,0,1-16.74-16.74,16.54,16.54,0,0,1,.37-3.47,20.88,20.88,0,0,0,19.23-.53,21.31,21.31,0,0,0-.36,3.86,20.9,20.9,0,0,0,5.92,14.58A16.63,16.63,0,0,1,69.68,136.68Zm11.81-4.89a16.7,16.7,0,0,1-.16-23.85,16.7,16.7,0,0,1,.16,23.85Zm11.65,4.75a16.62,16.62,0,0,1-8.26-2.2,20.85,20.85,0,0,0,5.76-14.4,21.22,21.22,0,0,0-.39-4,20.88,20.88,0,0,0,19.29.52,16.73,16.73,0,0,1-16.4,20.09ZM111.64,110a21,21,0,0,0-16-11,20.92,20.92,0,0,0,6.72-15.37,21.38,21.38,0,0,0-.18-2.67,16.71,16.71,0,0,1,9.45,29Z"/><path d="M53.12,22.32h1.1c2.3,0,3.14-1.16,3.14-3.06V16.4c0-1.9-.84-3-3.14-3H50.84V26.92h2.28Zm0-7.1H54c.78,0,1.12.36,1.12,1.1v3.12A1,1,0,0,1,54,20.56h-.84Z"/><path d="M59.94,24.44h2.42l.42,2.48h2.34L62.54,13.36h-2.6L57.38,26.92h2.16Zm1.2-7.26h0l.9,5.44H60.24Z"/><path d="M68.34,20.7l2.14,6.22h2.4L70.7,20.76c1.3-.3,1.82-1.16,1.82-2.62V16.4c0-1.9-.84-3-3.14-3H66.06V26.92h2.28Zm0-5.48h.76c.78,0,1.12.36,1.12,1.1v2a1,1,0,0,1-1.12,1.12h-.76Z"/><polygon points="75.18 26.92 77.48 26.92 77.48 15.22 79.36 15.22 79.36 13.36 73.3 13.36 73.3 15.22 75.18 15.22 75.18 26.92"/><polygon points="82.34 18.4 85.02 26.92 87.02 26.92 87.02 13.36 85.12 13.36 85.12 21.14 82.66 13.36 80.42 13.36 80.42 26.92 82.34 26.92 82.34 18.4"/><polygon points="93.76 25.06 90.6 25.06 90.6 20.94 92.86 20.94 92.86 19.1 90.6 19.1 90.6 15.22 93.76 15.22 93.76 13.36 88.31 13.36 88.31 26.92 93.76 26.92 93.76 25.06"/><path d="M97.26,20.7l2.14,6.22h2.4l-2.18-6.16c1.3-.3,1.82-1.16,1.82-2.62V16.4c0-1.9-.84-3-3.14-3H95V26.92h2.28Zm0-5.48H98c.78,0,1.12.36,1.12,1.1v2A1,1,0,0,1,98,19.44h-.76Z"/><path d="M105.68,27.08c2.32,0,3.32-1.32,3.32-3.18v-.66c0-1.5-.6-2.26-1.84-3.52l-1.46-1.44c-.66-.64-1.08-1.08-1.08-1.84v-.28A1,1,0,0,1,105.7,15c.72,0,1.08.38,1.08,1.16v1.18h2.08v-1.1c0-2-.9-3.08-3.18-3.08s-3.2,1.3-3.2,3v.46c0,1.56.6,2.34,1.9,3.62l1.34,1.34a2.45,2.45,0,0,1,1,1.92V24c0,.72-.32,1.2-1,1.2s-1.12-.44-1.12-1.2V22.18h-2.12V24C102.46,25.78,103.36,27.08,105.68,27.08Z"/><polygon points="112.48 20.94 114.68 20.94 114.68 26.92 116.98 26.92 116.98 13.36 114.68 13.36 114.68 19.1 112.48 19.1 112.48 13.36 110.2 13.36 110.2 26.92 112.48 26.92 112.48 20.94"/><rect x="118.28" y="13.36" width="2.28" height="13.56"/><path d="M125.26,13.36h-3.38V26.92h2.28v-4.6h1.1c2.3,0,3.14-1.16,3.14-3.06V16.4C128.4,14.5,127.56,13.36,125.26,13.36Zm.86,6.08A1,1,0,0,1,125,20.56h-.84V15.22H125c.78,0,1.12.36,1.12,1.1Z"/><path d="M134.16,19.72l-1.46-1.44c-.66-.64-1.08-1.08-1.08-1.84v-.28A1,1,0,0,1,132.7,15c.72,0,1.08.38,1.08,1.16v1.18h2.08v-1.1c0-2-.9-3.08-3.18-3.08s-3.2,1.3-3.2,3v.46c0,1.56.6,2.34,1.9,3.62l1.34,1.34a2.45,2.45,0,0,1,1,1.92V24c0,.72-.32,1.2-1,1.2s-1.12-.44-1.12-1.2V22.18h-2.12V24c0,1.78.9,3.08,3.22,3.08S136,25.76,136,23.9v-.66C136,21.74,135.4,21,134.16,19.72Z"/><polygon points="53.12 39.94 55.4 39.94 55.4 38.1 53.12 38.1 53.12 34.22 56.18 34.22 56.18 32.36 50.84 32.36 50.84 45.92 53.12 45.92 53.12 39.94"/><path d="M57,35.86v6.56c0,2.1,1,3.66,3.44,3.66s3.46-1.56,3.46-3.66V35.86c0-2.12-1-3.66-3.46-3.66S57,33.74,57,35.86Zm4.62-.36v7.28c0,.82-.36,1.4-1.18,1.4s-1.16-.58-1.16-1.4V35.5c0-.82.36-1.4,1.16-1.4S61.6,34.68,61.6,35.5Z"/><path d="M67.45,39.7l2.15,6.22H72l-2.18-6.16c1.3-.3,1.82-1.16,1.82-2.62V35.4c0-1.9-.84-3-3.14-3H65.17V45.92h2.28Zm0-5.48h.77c.78,0,1.12.36,1.12,1.1v2a1,1,0,0,1-1.12,1.12h-.77Z"/><polygon points="78.9 45.92 78.9 34.22 80.78 34.22 80.78 32.36 74.72 32.36 74.72 34.22 76.6 34.22 76.6 45.92 78.9 45.92"/><polygon points="88.62 45.92 88.62 32.36 86.32 32.36 86.32 38.1 84.11 38.1 84.11 32.36 81.83 32.36 81.83 45.92 84.11 45.92 84.11 39.94 86.32 39.94 86.32 45.92 88.62 45.92"/><polygon points="95.36 34.22 95.36 32.36 89.92 32.36 89.92 45.92 95.36 45.92 95.36 44.06 92.19 44.06 92.19 39.94 94.46 39.94 94.46 38.1 92.19 38.1 92.19 34.22 95.36 34.22"/><path d="M98.68,35.86v6.56c0,2.1.9,3.66,2.86,3.66a2.05,2.05,0,0,0,2.18-1.64v1.48h1.64V38.68h-3.24v1.8h1.08v2.4c0,.88-.38,1.3-1.12,1.3S101,43.6,101,42.78V35.5c0-.82.36-1.4,1.18-1.4s1.14.48,1.14,1.32V36.8h2.08V35.6c0-2-.74-3.4-3.26-3.4S98.68,33.74,98.68,35.86Z"/><path d="M106.66,35.86v6.56c0,2.1,1,3.66,3.44,3.66s3.46-1.56,3.46-3.66V35.86c0-2.12-1-3.66-3.46-3.66S106.66,33.74,106.66,35.86Zm2.28-.36c0-.82.36-1.4,1.16-1.4s1.18.58,1.18,1.4v7.28c0,.82-.36,1.4-1.18,1.4s-1.16-.58-1.16-1.4Z"/><path d="M116.75,32.36l-2.56,13.56h2.17l.39-2.48h2.43l.42,2.48h2.34l-2.58-13.56Zm.31,9.26.89-5.44h0l.9,5.44Z"/><polygon points="125.15 32.36 122.87 32.36 122.87 45.92 127.88 45.92 127.88 44.06 125.15 44.06 125.15 32.36"/><path d="M131.94,37.28c-.66-.64-1.08-1.08-1.08-1.84v-.28A1,1,0,0,1,131.94,34c.72,0,1.08.38,1.08,1.16v1.18h2.08v-1.1c0-2-.9-3.08-3.18-3.08s-3.21,1.3-3.21,3v.46c0,1.56.6,2.34,1.91,3.62L132,40.6a2.43,2.43,0,0,1,1,1.92V43c0,.72-.32,1.2-1,1.2s-1.12-.44-1.12-1.2V41.18h-2.13V43c0,1.78.9,3.08,3.23,3.08s3.32-1.32,3.32-3.18v-.66c0-1.5-.6-2.26-1.84-3.52Z"/></svg>