<svg id="Ebene_1" data-name="Ebene 1" xmlns="http://www.w3.org/2000/svg" viewBox="0 0 160.92 160.93"><title>sdg-5</title><path d="M25.66,23.76A4.93,4.93,0,0,0,21.06,26h0V17.92H30.4V13.47H16V31.75h5V31c0-1.91.86-3,2.39-3s2.35,1.15,2.35,2.92v7.84c0,1.73-.63,2.92-2.3,2.92-1.87,0-2.54-1.24-2.54-3.15V34.53h-5v3.68c0,4.93,2,8.09,7.52,8.09s7.75-2.92,7.75-7.42V30.94C31.21,25.82,28.58,23.76,25.66,23.76Z"/><path d="M117.21,60.89h-20a.26.26,0,0,0-.25.26v6.64a.25.25,0,0,0,.25.26h8l-8.84,8.84A26.18,26.18,0,1,0,76.8,123.46v7.66H68.91a.26.26,0,0,0-.26.26v7.12a.26.26,0,0,0,.26.25H76.8v7.54a.25.25,0,0,0,.25.25h7.12a.25.25,0,0,0,.26-.25v-7.54h7.89a.25.25,0,0,0,.25-.25v-7.12a.26.26,0,0,0-.25-.26H84.43v-7.78a26.16,26.16,0,0,0,17.16-40.91l8.72-8.72v7.44a.26.26,0,0,0,.26.25h6.64a.26.26,0,0,0,.26-.25v-20A.26.26,0,0,0,117.21,60.89Zm-37,55.89A19.29,19.29,0,1,1,99.46,97.5,19.3,19.3,0,0,1,80.18,116.78Z"/><path d="M92,89.58H68.57a.24.24,0,0,0-.25.23v5.66a.24.24,0,0,0,.25.23H92a.25.25,0,0,0,.26-.23V89.81A.25.25,0,0,0,92,89.58Z"/><path d="M92,99.69H68.57a.25.25,0,0,0-.25.24v5.66a.24.24,0,0,0,.25.23H92a.25.25,0,0,0,.26-.23V99.93A.25.25,0,0,0,92,99.69Z"/><path d="M49.58,26.82a2.05,2.05,0,0,0,2.18-1.64v1.48H53.4V19.42H50.16v1.8h1.08v2.4c0,.88-.38,1.3-1.12,1.3S49,24.34,49,23.52V16.24c0-.82.36-1.4,1.18-1.4s1.14.48,1.14,1.32v1.38H53.4v-1.2c0-2-.74-3.4-3.26-3.4s-3.42,1.54-3.42,3.66v6.56C46.72,25.26,47.62,26.82,49.58,26.82Z"/><polygon points="60.14 24.8 56.98 24.8 56.98 20.68 59.24 20.68 59.24 18.84 56.98 18.84 56.98 14.96 60.14 14.96 60.14 13.1 54.7 13.1 54.7 26.66 60.14 26.66 60.14 24.8"/><polygon points="63.28 18.14 65.96 26.66 67.96 26.66 67.96 13.1 66.06 13.1 66.06 20.88 63.6 13.1 61.36 13.1 61.36 26.66 63.28 26.66 63.28 18.14"/><path d="M76.08,23V16.74c0-2.1-.86-3.64-3.3-3.64H69.26V26.66h3.52C75.22,26.66,76.08,25.1,76.08,23ZM71.54,24.8V15h1a1.19,1.19,0,0,1,1.3,1.36v7.1c0,.82-.36,1.38-1.3,1.38Z"/><polygon points="82.82 24.8 79.66 24.8 79.66 20.68 81.92 20.68 81.92 18.84 79.66 18.84 79.66 14.96 82.82 14.96 82.82 13.1 77.38 13.1 77.38 26.66 82.82 26.66 82.82 24.8"/><path d="M86.32,20.44l2.14,6.22h2.4L88.68,20.5c1.3-.3,1.82-1.16,1.82-2.62V16.14c0-1.9-.84-3-3.14-3H84V26.66h2.28Zm0-5.48h.76c.78,0,1.12.36,1.12,1.1v2a1,1,0,0,1-1.12,1.12h-.76Z"/><polygon points="46.72 45.66 52.16 45.66 52.16 43.8 49 43.8 49 39.68 51.26 39.68 51.26 37.84 49 37.84 49 33.96 52.16 33.96 52.16 32.1 46.72 32.1 46.72 45.66"/><path d="M55.78,45.66v.92l4.3.8v-1.7l-1.68-.32a3.26,3.26,0,0,0,1.68-3.2V35.6c0-2.12-1-3.66-3.46-3.66s-3.44,1.54-3.44,3.66v6.56C53.18,44,54,45.34,55.78,45.66Zm-.32-10.42c0-.82.36-1.4,1.16-1.4s1.18.58,1.18,1.4v7.4c0,.8-.36,1.4-1.18,1.4s-1.16-.6-1.16-1.4Z"/><path d="M61.38,32.1V42.36c0,2.1,1,3.46,3.4,3.46S68,44.46,68,42.36V32.1H65.9V42.58c0,.8-.32,1.34-1.12,1.34s-1.12-.54-1.12-1.34V32.1Z"/><path d="M71.2,43.18h2.42L74,45.66h2.34L73.8,32.1H71.2L68.64,45.66H70.8Zm1.2-7.26h0l.9,5.44H71.5Z"/><polygon points="82.32 43.8 79.6 43.8 79.6 32.1 77.32 32.1 77.32 45.66 82.32 45.66 82.32 43.8"/><rect x="83.36" y="32.1" width="2.28" height="13.56"/><polygon points="90.88 45.66 90.88 33.96 92.76 33.96 92.76 32.1 86.7 32.1 86.7 33.96 88.58 33.96 88.58 45.66 90.88 45.66"/><polygon points="95.97 45.66 98.26 45.66 98.26 40.5 100.78 32.1 98.6 32.1 97.22 37.24 97.2 37.24 95.82 32.1 93.44 32.1 95.97 40.5 95.97 45.66"/></svg>