<svg id="Ebene_1" data-name="Ebene 1" xmlns="http://www.w3.org/2000/svg" viewBox="0 0 160.92 160.93"><title>sdg-6</title><path d="M26.36,25.4A4.66,4.66,0,0,0,21.86,28h-.05V21c0-2,.62-3.35,2.58-3.35s2.54,1.15,2.54,3.16V23h5V21.28c0-4.78-1.58-8.13-7.61-8.13-5.74,0-7.9,3.68-7.9,8.75V37.7c0,5,2.2,8.66,8,8.66s8-3.16,8-8.18V33.39C32.39,28.08,30.28,25.4,26.36,25.4ZM27,38.66c0,2.05-.77,3.25-2.63,3.25s-2.54-1.24-2.54-3.25V32.72c.1-1.82.86-3,2.58-3C26.26,29.75,27,30.9,27,33Z"/><path d="M109.57,64.84H51.19a.65.65,0,0,0-.67.79L60.33,125a.68.68,0,0,0,.67.57H73l.82,9.66H68.79L80.58,147,92.4,135.16H87.33l.82-9.65H100.4a.67.67,0,0,0,.67-.58l9.18-59.31a.74.74,0,0,0-.15-.56A.7.7,0,0,0,109.57,64.84Zm-22,47.72a9.34,9.34,0,0,1-7,2.43,9.36,9.36,0,0,1-7-2.43c-4.37-4.37-2.81-9.8-1.29-12.61.94-1.76,7.66-11.85,8.24-12.71v-.07l0,0,0,0v.07c.56.86,7.29,11,8.23,12.71C90.35,102.76,91.9,108.19,87.53,112.56Zm18.52-35a7.27,7.27,0,0,0-5.51.34c-7.25,2.93-12.17,4-19.79,1.6-4.8-1.5-9.29-4.64-14.6-2.73-3.52,1.27-6.8,2.48-10.78,2.45l-2.3-11.79h54.64Z"/><path d="M50.1,26.82c2.42,0,3.22-1.44,3.22-3.38V21.1H51.24v2.5c0,.8-.28,1.32-1.1,1.32S49,24.34,49,23.52V16.24c0-.82.34-1.4,1.16-1.4s1.1.48,1.1,1.32v1.78h2.08v-1.6c0-2-.7-3.4-3.22-3.4s-3.4,1.54-3.4,3.66v6.56C46.7,25.26,47.7,26.82,50.1,26.82Z"/><polygon points="59.56 24.8 56.84 24.8 56.84 13.1 54.56 13.1 54.56 26.66 59.56 26.66 59.56 24.8"/><polygon points="66.04 24.8 62.87 24.8 62.87 20.68 65.14 20.68 65.14 18.84 62.87 18.84 62.87 14.96 66.04 14.96 66.04 13.1 60.59 13.1 60.59 26.66 66.04 26.66 66.04 24.8"/><path d="M69.45,24.18h2.43l.42,2.48h2.34L72.06,13.1H69.45L66.89,26.66h2.17Zm1.21-7.26h0l.91,5.44H69.75Z"/><polygon points="77.5 18.14 80.17 26.66 82.17 26.66 82.17 13.1 80.27 13.1 80.27 20.88 77.81 13.1 75.57 13.1 75.57 26.66 77.5 26.66 77.5 18.14"/><polygon points="89.21 26.66 90.49 18.28 90.52 18.28 91.86 26.66 94.02 26.66 95.77 13.1 93.86 13.1 92.81 21.7 92.79 21.7 91.53 13.1 89.67 13.1 88.53 21.7 88.51 21.7 87.45 13.1 85.25 13.1 87.07 26.66 89.21 26.66"/><path d="M97.75,26.66l.4-2.48h2.42l.42,2.48h2.35L100.75,13.1h-2.6L95.59,26.66Zm1.6-9.74h0l.9,5.44H98.45Z"/><polygon points="104.89 26.66 107.19 26.66 107.19 14.96 109.08 14.96 109.08 13.1 103.01 13.1 103.01 14.96 104.89 14.96 104.89 26.66"/><polygon points="115.57 24.8 112.41 24.8 112.41 20.68 114.67 20.68 114.67 18.84 112.41 18.84 112.41 14.96 115.57 14.96 115.57 13.1 110.13 13.1 110.13 26.66 115.57 26.66 115.57 24.8"/><path d="M123.25,17.88V16.14c0-1.9-.84-3-3.14-3h-3.32V26.66h2.28V20.44l2.14,6.22h2.4l-2.18-6.16C122.73,20.2,123.25,19.34,123.25,17.88Zm-2.3.18a1,1,0,0,1-1.12,1.12h-.76V15h.76c.78,0,1.12.36,1.12,1.1Z"/><path d="M51.74,45.66h2.34L51.5,32.1H48.9L46.34,45.66H48.5l.4-2.48h2.42Zm-2.54-4.3.9-5.44h0l.9,5.44Z"/><polygon points="55.02 32.1 55.02 45.66 56.94 45.66 56.94 37.14 59.62 45.66 61.62 45.66 61.62 32.1 59.72 32.1 59.72 39.88 57.26 32.1 55.02 32.1"/><path d="M62.92,45.66h3.51c2.45,0,3.31-1.56,3.31-3.64V35.74c0-2.1-.86-3.64-3.31-3.64H62.92ZM65.19,34h1a1.19,1.19,0,0,1,1.3,1.36v7.1c0,.82-.37,1.38-1.3,1.38h-1Z"/><path d="M73,40.92v1.82c0,1.78.91,3.08,3.23,3.08s3.32-1.32,3.32-3.18V42c0-1.5-.6-2.26-1.84-3.52L76.26,37c-.66-.64-1.08-1.08-1.08-1.84V34.9a1,1,0,0,1,1.08-1.12c.72,0,1.08.38,1.08,1.16v1.18h2.08V35c0-2-.9-3.08-3.18-3.08s-3.2,1.3-3.2,3v.46c0,1.56.6,2.34,1.9,3.62l1.34,1.34a2.45,2.45,0,0,1,1,1.92v.52c0,.72-.32,1.2-1,1.2s-1.12-.44-1.12-1.2V40.92Z"/><path d="M82.36,45.66l.39-2.48h2.43l.42,2.48h2.34L85.36,32.1H82.75L80.19,45.66ZM84,35.92h0l.9,5.44H83.06Z"/><polygon points="93.58 39.88 91.11 32.1 88.87 32.1 88.87 45.66 90.8 45.66 90.8 37.14 93.48 45.66 95.48 45.66 95.48 32.1 93.58 32.1 93.58 39.88"/><rect x="96.77" y="32.1" width="2.28" height="13.56"/><polygon points="104.3 45.66 104.3 33.96 106.18 33.96 106.18 32.1 100.11 32.1 100.11 33.96 102 33.96 102 45.66 104.3 45.66"/><path d="M108.43,32.1l-2.56,13.56H108l.39-2.48h2.43l.42,2.48h2.34L111,32.1Zm.31,9.26.9-5.44h0l.9,5.44Z"/><polygon points="113.29 33.96 115.17 33.96 115.17 45.66 117.48 45.66 117.48 33.96 119.36 33.96 119.36 32.1 113.29 32.1 113.29 33.96"/><rect x="120.41" y="32.1" width="2.28" height="13.56"/><path d="M127.45,31.94c-2.4,0-3.44,1.54-3.44,3.66v6.56c0,2.1,1,3.66,3.44,3.66s3.47-1.56,3.47-3.66V35.6C130.92,33.48,129.87,31.94,127.45,31.94Zm1.18,10.58c0,.82-.36,1.4-1.18,1.4s-1.16-.58-1.16-1.4V35.24c0-.82.36-1.4,1.16-1.4s1.18.58,1.18,1.4Z"/><polygon points="136.91 32.1 136.91 39.88 134.45 32.1 132.21 32.1 132.21 45.66 134.13 45.66 134.13 37.14 136.81 45.66 138.81 45.66 138.81 32.1 136.91 32.1"/></svg>