<svg id="Ebene_1" data-name="Ebene 1" xmlns="http://www.w3.org/2000/svg" viewBox="0 0 160.92 160.93"><title>sdg-16</title><polygon points="12.38 19.39 12.38 25.08 12.43 25.08 16.26 21.11 16.31 21.11 16.31 45.95 21.76 45.95 21.76 13.5 17.41 13.5 12.38 19.39"/><path d="M34.83,25.37A4.66,4.66,0,0,0,30.33,28h0V21c0-2,.62-3.35,2.59-3.35s2.53,1.15,2.53,3.16V23h5V21.25c0-4.78-1.58-8.13-7.61-8.13-5.74,0-7.9,3.68-7.9,8.75v15.8c0,5,2.21,8.66,8,8.66s8-3.16,8-8.18V33.36C40.86,28.05,38.75,25.37,34.83,25.37Zm.62,13.25c0,2.06-.77,3.26-2.63,3.26s-2.54-1.25-2.54-3.26V32.69c.1-1.82.86-3,2.59-3s2.58,1.15,2.58,3.26Z"/><path d="M108.54,71.1a5.64,5.64,0,0,0-1.08,4,5.64,5.64,0,0,0,2.69,3.14,5.59,5.59,0,0,0,1.08-4A5.6,5.6,0,0,0,108.54,71.1Z"/><path d="M106.06,82.65a5.68,5.68,0,0,0,1.08-4,5.64,5.64,0,0,0-2.69-3.14,5.64,5.64,0,0,0-1.08,4A5.68,5.68,0,0,0,106.06,82.65Z"/><path d="M112.32,80.48a5,5,0,0,0,3.44,1.46,5.19,5.19,0,0,0,3.18-2,5,5,0,0,0-3.43-1.46A5.27,5.27,0,0,0,112.32,80.48Z"/><path d="M115,71.82c-1.49,1.51-1.28,4.19-1.28,4.19s2.63.22,4.12-1.28,1.28-4.19,1.28-4.19S116.44,70.31,115,71.82Z"/><path d="M111.67,86.49a5.18,5.18,0,0,0,3.53-1.35A5,5,0,0,0,112.14,83a5.19,5.19,0,0,0-3.54,1.35A5,5,0,0,0,111.67,86.49Z"/><path d="M113.29,115.81H99.66a1.93,1.93,0,1,0,0,3.86h13.63a1.93,1.93,0,0,0,0-3.86Z"/><path d="M113.29,137.07H99.66a1.93,1.93,0,1,0,0,3.86h13.63a1.93,1.93,0,0,0,0-3.86Z"/><path d="M52,111.13a8.81,8.81,0,0,0-.95-.24S51.38,111,52,111.13Z"/><path d="M99.06,134.65a1.1,1.1,0,0,0,1.1,1.1h12.63a1.1,1.1,0,0,0,1.1-1.1V122.12a1.1,1.1,0,0,0-1.1-1.1H100.16a1.1,1.1,0,0,0-1.1,1.1v3.82l-8.25.91-12-.28v-7.36a32.4,32.4,0,0,0,4.8-1c11.6-3.27,14.13-10.5,13.87-17.13s1.91-9.38,5-10.55a14.54,14.54,0,0,1,2.58-.68,20.6,20.6,0,0,0,1.11,5.89l.82-.07a19.75,19.75,0,0,1-1.14-5.94,14.36,14.36,0,0,1,2.76-.08A17.13,17.13,0,0,1,106,87.82c.52-3.2,2.42-5.17,4.39-7.18A22.93,22.93,0,0,0,113.42,77l-.68-.44a22.15,22.15,0,0,1-3,3.48c-1.91,2-3.84,4-4.5,7.14a25.08,25.08,0,0,1-2-2c-2.86-3.2-6.55-.85-11.8,4s-11.85,5-18.31-1.55C64.66,79,57.24,79,52.15,79.53c3.48,1.49,4.7,4.74,6.46,13,1.85,8.68,6.51,12.61,12.88,13.15-2.95.48-3.72.89-8.47,4.17-3.71,2.56-8.93,1.75-11,1.27,3.88,1.21,8.48,5.29,12.6,6.7a29.92,29.92,0,0,0,7.51,1.54v7l-22.86-.49v4.91l41.58-.92,8.25.91Zm-22.28-8.12-2.7-.06v-7c.89,0,1.8,0,2.7-.08Z"/><path d="M46.44,124.75h-1a1.77,1.77,0,0,0-1.62,1.88V130a1.77,1.77,0,0,0,1.62,1.88h1A1.76,1.76,0,0,0,48.05,130v-3.4A1.76,1.76,0,0,0,46.44,124.75Z"/><path d="M53.14,22.32h1.1c2.3,0,3.14-1.16,3.14-3.06V16.4c0-1.9-.84-3-3.14-3H50.86V26.92h2.28Zm0-7.1H54c.78,0,1.12.36,1.12,1.1v3.12A1,1,0,0,1,54,20.56h-.84Z"/><polygon points="64 25.06 60.84 25.06 60.84 20.94 63.1 20.94 63.1 19.1 60.84 19.1 60.84 15.22 64 15.22 64 13.36 58.56 13.36 58.56 26.92 64 26.92 64 25.06"/><path d="M67.42,24.44h2.42l.42,2.48H72.6L70,13.36h-2.6L64.86,26.92H67Zm1.2-7.26h0l.9,5.44H67.72Z"/><path d="M76.64,27.08c2.42,0,3.22-1.44,3.22-3.38V21.36H77.78v2.5c0,.8-.28,1.32-1.1,1.32s-1.16-.58-1.16-1.4V16.5c0-.82.34-1.4,1.16-1.4s1.1.48,1.1,1.32V18.2h2.08V16.6c0-2-.7-3.4-3.22-3.4s-3.4,1.54-3.4,3.66v6.56C73.24,25.52,74.24,27.08,76.64,27.08Z"/><polygon points="86.54 25.06 83.38 25.06 83.38 20.94 85.64 20.94 85.64 19.1 83.38 19.1 83.38 15.22 86.54 15.22 86.54 13.36 81.1 13.36 81.1 26.92 86.54 26.92 86.54 25.06"/><polygon points="90.1 24.92 90.1 24.74 87.94 24.74 87.66 27.98 88.94 27.98 90.1 24.92"/><path d="M96.42,27.08c2.28,0,3.14-1.28,3.14-3.24V13.36H97.28V24.08c0,.7-.24,1.1-.86,1.1s-.84-.4-.84-1.08V21.36H93.42v2.7C93.42,25.78,94.06,27.08,96.42,27.08Z"/><path d="M104.24,27.08c2.32,0,3.22-1.36,3.22-3.46V13.36h-2.1V23.84c0,.8-.32,1.34-1.12,1.34s-1.12-.54-1.12-1.34V13.36h-2.28V23.62C100.84,25.72,101.84,27.08,104.24,27.08Z"/><path d="M111.86,27.08c2.32,0,3.32-1.32,3.32-3.18v-.66c0-1.5-.6-2.26-1.84-3.52l-1.46-1.44c-.66-.64-1.08-1.08-1.08-1.84v-.28A1,1,0,0,1,111.88,15c.72,0,1.08.38,1.08,1.16v1.18H115v-1.1c0-2-.9-3.08-3.18-3.08s-3.2,1.3-3.2,3v.46c0,1.56.6,2.34,1.9,3.62l1.34,1.34a2.45,2.45,0,0,1,1,1.92V24c0,.72-.32,1.2-1,1.2s-1.12-.44-1.12-1.2V22.18h-2.12V24C108.64,25.78,109.54,27.08,111.86,27.08Z"/><polygon points="117.7 26.92 120 26.92 120 15.22 121.88 15.22 121.88 13.36 115.82 13.36 115.82 15.22 117.7 15.22 117.7 26.92"/><rect x="122.94" y="13.36" width="2.28" height="13.56"/><path d="M129.94,13.2c-2.4,0-3.4,1.54-3.4,3.66v6.56c0,2.1,1,3.66,3.4,3.66s3.22-1.44,3.22-3.38V21.36h-2.08v2.5c0,.8-.28,1.32-1.1,1.32s-1.16-.58-1.16-1.4V16.5c0-.82.34-1.4,1.16-1.4s1.1.48,1.1,1.32V18.2h2.08V16.6C133.16,14.6,132.46,13.2,129.94,13.2Z"/><polygon points="139.84 15.22 139.84 13.36 134.4 13.36 134.4 26.92 139.84 26.92 139.84 25.06 136.68 25.06 136.68 20.94 138.94 20.94 138.94 19.1 136.68 19.1 136.68 15.22 139.84 15.22"/><path d="M53.06,43.44h2.42l.42,2.48h2.34L55.66,32.36h-2.6L50.5,45.92h2.16Zm1.2-7.26h0l.9,5.44H53.36Z"/><polygon points="61.1 37.4 63.78 45.92 65.78 45.92 65.78 32.36 63.88 32.36 63.88 40.14 61.42 32.36 59.18 32.36 59.18 45.92 61.1 45.92 61.1 37.4"/><path d="M67.08,32.36V45.92H70.6c2.44,0,3.3-1.56,3.3-3.64V36c0-2.1-.86-3.64-3.3-3.64Zm4.54,3.22v7.1c0,.82-.36,1.38-1.3,1.38h-1V34.22h1A1.19,1.19,0,0,1,71.62,35.58Z"/><path d="M77.2,35.18v.46c0,1.56.6,2.34,1.9,3.62l1.34,1.34a2.45,2.45,0,0,1,1,1.92V43c0,.72-.32,1.2-1,1.2S79.3,43.8,79.3,43V41.18H77.18V43c0,1.78.9,3.08,3.22,3.08s3.32-1.32,3.32-3.18v-.66c0-1.5-.6-2.26-1.84-3.52l-1.46-1.44c-.66-.64-1.08-1.08-1.08-1.84v-.28A1,1,0,0,1,80.42,34c.72,0,1.08.38,1.08,1.16v1.18h2.08v-1.1c0-2-.9-3.08-3.18-3.08S77.2,33.5,77.2,35.18Z"/><polygon points="84.36 34.22 86.24 34.22 86.24 45.92 88.54 45.92 88.54 34.22 90.42 34.22 90.42 32.36 84.36 32.36 84.36 34.22"/><path d="M93.76,39.7l2.14,6.22h2.4l-2.18-6.16c1.3-.3,1.82-1.16,1.82-2.62V35.4c0-1.9-.84-3-3.14-3H91.48V45.92h2.28Zm0-5.48h.76c.78,0,1.12.36,1.12,1.1v2a1,1,0,0,1-1.12,1.12h-.76Z"/><path d="M99.18,42.42c0,2.1,1,3.66,3.44,3.66s3.46-1.56,3.46-3.66V35.86c0-2.12-1-3.66-3.46-3.66s-3.44,1.54-3.44,3.66Zm2.28-6.92c0-.82.36-1.4,1.16-1.4s1.18.58,1.18,1.4v7.28c0,.82-.36,1.4-1.18,1.4s-1.16-.58-1.16-1.4Z"/><polygon points="113.98 32.36 112.08 32.36 112.08 40.14 109.62 32.36 107.38 32.36 107.38 45.92 109.3 45.92 109.3 37.4 111.98 45.92 113.98 45.92 113.98 32.36"/><path d="M122,45.92V38.68h-3.24v1.8h1.08v2.4c0,.88-.38,1.3-1.12,1.3s-1.12-.58-1.12-1.4V35.5c0-.82.36-1.4,1.18-1.4s1.14.48,1.14,1.32V36.8H122V35.6c0-2-.74-3.4-3.26-3.4s-3.42,1.54-3.42,3.66v6.56c0,2.1.9,3.66,2.86,3.66a2.05,2.05,0,0,0,2.18-1.64v1.48Z"/><rect x="50.86" y="51.36" width="2.28" height="13.56"/><polygon points="59.16 59.14 56.7 51.36 54.46 51.36 54.46 64.92 56.38 64.92 56.38 56.4 59.06 64.92 61.06 64.92 61.06 51.36 59.16 51.36 59.16 59.14"/><path d="M65.46,65.08c2.32,0,3.32-1.32,3.32-3.18v-.66c0-1.5-.6-2.26-1.84-3.52l-1.46-1.44c-.66-.64-1.08-1.08-1.08-1.84v-.28A1,1,0,0,1,65.48,53c.72,0,1.08.38,1.08,1.16v1.18h2.08v-1.1c0-2-.9-3.08-3.18-3.08s-3.2,1.3-3.2,3v.46c0,1.56.6,2.34,1.9,3.62L65.5,59.6a2.45,2.45,0,0,1,1,1.92V62c0,.72-.32,1.2-1,1.2s-1.12-.44-1.12-1.2V60.18H62.24V62C62.24,63.78,63.14,65.08,65.46,65.08Z"/><polygon points="73.6 64.92 73.6 53.22 75.48 53.22 75.48 51.36 69.42 51.36 69.42 53.22 71.3 53.22 71.3 64.92 73.6 64.92"/><rect x="76.54" y="51.36" width="2.28" height="13.56"/><polygon points="84.06 64.92 84.06 53.22 85.94 53.22 85.94 51.36 79.88 51.36 79.88 53.22 81.76 53.22 81.76 64.92 84.06 64.92"/><path d="M89.28,61.84V51.36H87V61.62c0,2.1,1,3.46,3.4,3.46s3.22-1.36,3.22-3.46V51.36h-2.1V61.84c0,.8-.32,1.34-1.12,1.34S89.28,62.64,89.28,61.84Z"/><polygon points="98.84 64.92 98.84 53.22 100.72 53.22 100.72 51.36 94.66 51.36 94.66 53.22 96.54 53.22 96.54 64.92 98.84 64.92"/><rect x="101.78" y="51.36" width="2.28" height="13.56"/><path d="M112.28,61.42V54.86c0-2.12-1-3.66-3.46-3.66s-3.44,1.54-3.44,3.66v6.56c0,2.1,1,3.66,3.44,3.66S112.28,63.52,112.28,61.42Zm-2.28.36c0,.82-.36,1.4-1.18,1.4s-1.16-.58-1.16-1.4V54.5c0-.82.36-1.4,1.16-1.4s1.18.58,1.18,1.4Z"/><polygon points="118.28 59.14 115.82 51.36 113.58 51.36 113.58 64.92 115.5 64.92 115.5 56.4 118.18 64.92 120.18 64.92 120.18 51.36 118.28 51.36 118.28 59.14"/><path d="M124.6,56.28c-.66-.64-1.08-1.08-1.08-1.84v-.28A1,1,0,0,1,124.6,53c.72,0,1.08.38,1.08,1.16v1.18h2.08v-1.1c0-2-.9-3.08-3.18-3.08s-3.2,1.3-3.2,3v.46c0,1.56.6,2.34,1.9,3.62l1.34,1.34a2.45,2.45,0,0,1,1,1.92V62c0,.72-.32,1.2-1,1.2s-1.12-.44-1.12-1.2V60.18h-2.12V62c0,1.78.9,3.08,3.22,3.08s3.32-1.32,3.32-3.18v-.66c0-1.5-.6-2.26-1.84-3.52Z"/></svg>