<svg id="Ebene_1" data-name="Ebene 1" xmlns="http://www.w3.org/2000/svg" viewBox="0 0 160.92 160.93"><title>sdg-8</title><path d="M27.63,27.94c2.15-1.05,3.16-3,3.16-5.64V21c0-5.08-2.63-7.8-7.66-7.8s-7.56,2.72-7.56,7.8V22.3c0,2.63,1,4.59,3.06,5.64C16.1,29.09,15,31.34,15,34.45V38c0,4.93,2.35,8.38,8.09,8.38s8.14-3.45,8.14-8.38V34.45C31.27,31.34,30.17,29.09,27.63,27.94Zm-6.94-7.32c0-2,.67-3.11,2.44-3.11s2.49,1.15,2.49,3.11v2.2c0,2-.67,3.12-2.49,3.12s-2.44-1.16-2.44-3.12Zm5.12,18c0,2-.72,3.35-2.68,3.35s-2.63-1.39-2.63-3.35V33.3c0-2,.72-3.35,2.63-3.35s2.68,1.39,2.68,3.35Z"/><path d="M111,79.17,94.64,94.73a2.71,2.71,0,0,0-.93,2.34v43.61a.93.93,0,0,0,.93.93h16.89a.93.93,0,0,0,.93-.93V79.56C112.46,79.05,112.06,78.11,111,79.17Z"/><path d="M63.87,99.44,47.52,115a2.72,2.72,0,0,0-.94,2.34v23.34a.94.94,0,0,0,.94.93H64.41a.93.93,0,0,0,.93-.93V99.83C65.34,99.32,64.94,98.38,63.87,99.44Z"/><path d="M118,59.82h-.23l-12.52,2.82-.23,0a.47.47,0,0,0-.24.13.46.46,0,0,0,0,.67l.14.14,2.86,2.86L79.39,94.86,66.28,81.75a.37.37,0,0,0-.53,0l-3.56,3.56h0l-21,21a.38.38,0,0,0,0,.54l3.56,3.56a.39.39,0,0,0,.53,0L66,89.67l9.51,9.51,0,0,3.56,3.55a.37.37,0,0,0,.53,0l32.21-32.21,3,3a.45.45,0,0,0,.66,0,.44.44,0,0,0,.14-.3v0l2.75-12.79V60.3a.46.46,0,0,0-.44-.48Z"/><path d="M87.53,102.17l-7.92,8a.37.37,0,0,1-.51,0l-7.17-7.3c-1.31-1.31-1.59-.25-1.59.26v37.59a.93.93,0,0,0,.92.93h16.9a.93.93,0,0,0,.93-.93V102.47C89.09,102,88.69,101,87.53,102.17Z"/><path d="M49.78,23.44V17.16c0-2.1-.86-3.64-3.3-3.64H43V27.08h3.52C48.92,27.08,49.78,25.52,49.78,23.44Zm-4.54,1.78V15.38h1a1.19,1.19,0,0,1,1.3,1.36v7.1c0,.82-.36,1.38-1.3,1.38Z"/><polygon points="56.52 25.22 53.36 25.22 53.36 21.1 55.62 21.1 55.62 19.26 53.36 19.26 53.36 15.38 56.52 15.38 56.52 13.52 51.08 13.52 51.08 27.08 56.52 27.08 56.52 25.22"/><path d="M60.94,27.24c2.42,0,3.22-1.44,3.22-3.38V21.52H62.08V24c0,.8-.28,1.32-1.1,1.32s-1.16-.58-1.16-1.4V16.66c0-.82.34-1.4,1.16-1.4s1.1.48,1.1,1.32v1.78h2.08v-1.6c0-2-.7-3.4-3.22-3.4s-3.4,1.54-3.4,3.66v6.56C57.54,25.68,58.54,27.24,60.94,27.24Z"/><polygon points="70.84 25.22 67.68 25.22 67.68 21.1 69.94 21.1 69.94 19.26 67.68 19.26 67.68 15.38 70.84 15.38 70.84 13.52 65.4 13.52 65.4 27.08 70.84 27.08 70.84 25.22"/><polygon points="73.98 18.56 76.66 27.08 78.66 27.08 78.66 13.52 76.76 13.52 76.76 21.3 74.3 13.52 72.06 13.52 72.06 27.08 73.98 27.08 73.98 18.56"/><polygon points="81.58 27.08 83.88 27.08 83.88 15.38 85.76 15.38 85.76 13.52 79.7 13.52 79.7 15.38 81.58 15.38 81.58 27.08"/><polygon points="92.56 27.08 93.84 18.7 93.86 18.7 95.2 27.08 97.36 27.08 99.12 13.52 97.2 13.52 96.16 22.12 96.14 22.12 94.88 13.52 93.02 13.52 91.88 22.12 91.86 22.12 90.8 13.52 88.6 13.52 90.42 27.08 92.56 27.08"/><path d="M103.34,27.24c2.42,0,3.46-1.56,3.46-3.66V17c0-2.12-1-3.66-3.46-3.66S99.9,14.9,99.9,17v6.56C99.9,25.68,100.94,27.24,103.34,27.24Zm-1.16-10.58c0-.82.36-1.4,1.16-1.4s1.18.58,1.18,1.4v7.28c0,.82-.36,1.4-1.18,1.4s-1.16-.58-1.16-1.4Z"/><path d="M110.38,20.86l2.14,6.22h2.4l-2.18-6.16c1.3-.3,1.82-1.16,1.82-2.62V16.56c0-1.9-.84-3-3.14-3H108.1V27.08h2.28Zm0-5.48h.76c.78,0,1.12.36,1.12,1.1v2a1,1,0,0,1-1.12,1.12h-.76Z"/><polygon points="120.16 19.62 122.8 13.52 120.56 13.52 118.08 19.48 118.08 13.52 115.8 13.52 115.8 27.08 118.08 27.08 118.08 20.48 120.46 27.08 122.86 27.08 120.16 19.62"/><path d="M130.86,27.08h2.34l-2.58-13.56H128l-2.56,13.56h2.16l.4-2.48h2.42Zm-2.54-4.3.9-5.44h0l.9,5.44Z"/><polygon points="140.74 13.52 138.84 13.52 138.84 21.3 136.38 13.52 134.14 13.52 134.14 27.08 136.06 27.08 136.06 18.56 138.74 27.08 140.74 27.08 140.74 13.52"/><path d="M148.86,23.44V17.16c0-2.1-.86-3.64-3.3-3.64H142V27.08h3.52C148,27.08,148.86,25.52,148.86,23.44Zm-2.28.4c0,.82-.36,1.38-1.3,1.38h-1V15.38h1a1.19,1.19,0,0,1,1.3,1.36Z"/><polygon points="48.4 44.22 45.24 44.22 45.24 40.1 47.5 40.1 47.5 38.26 45.24 38.26 45.24 34.38 48.4 34.38 48.4 32.52 42.96 32.52 42.96 46.08 48.4 46.08 48.4 44.22"/><path d="M49.42,42.58c0,2.1,1,3.66,3.4,3.66S56,44.8,56,42.86V40.52H54V43c0,.8-.28,1.32-1.1,1.32s-1.16-.58-1.16-1.4V35.66c0-.82.34-1.4,1.16-1.4s1.1.48,1.1,1.32v1.78H56v-1.6c0-2-.7-3.4-3.22-3.4s-3.4,1.54-3.4,3.66Z"/><path d="M60.72,46.24c2.42,0,3.46-1.56,3.46-3.66V36c0-2.12-1-3.66-3.46-3.66S57.28,33.9,57.28,36v6.56C57.28,44.68,58.32,46.24,60.72,46.24ZM59.56,35.66c0-.82.36-1.4,1.16-1.4s1.18.58,1.18,1.4v7.28c0,.82-.36,1.4-1.18,1.4s-1.16-.58-1.16-1.4Z"/><polygon points="70.18 40.3 67.72 32.52 65.48 32.52 65.48 46.08 67.4 46.08 67.4 37.56 70.08 46.08 72.08 46.08 72.08 32.52 70.18 32.52 70.18 40.3"/><path d="M73.38,36v6.56c0,2.1,1,3.66,3.44,3.66s3.46-1.56,3.46-3.66V36c0-2.12-1-3.66-3.46-3.66S73.38,33.9,73.38,36ZM78,35.66v7.28c0,.82-.36,1.4-1.18,1.4s-1.16-.58-1.16-1.4V35.66c0-.82.36-1.4,1.16-1.4S78,34.84,78,35.66Z"/><polygon points="85.72 40.16 84.24 32.52 81.58 32.52 81.58 46.08 83.46 46.08 83.46 37.28 83.5 37.28 85.2 46.08 86.26 46.08 87.8 37.28 87.86 37.28 87.86 46.08 89.94 46.08 89.94 32.52 87.06 32.52 85.74 40.16 85.72 40.16"/><rect x="91.24" y="32.52" width="2.28" height="13.56"/><path d="M101.46,37.36v-1.6c0-2-.7-3.4-3.22-3.4s-3.4,1.54-3.4,3.66v6.56c0,2.1,1,3.66,3.4,3.66s3.22-1.44,3.22-3.38V40.52H99.38V43c0,.8-.28,1.32-1.1,1.32s-1.16-.58-1.16-1.4V35.66c0-.82.34-1.4,1.16-1.4s1.1.48,1.1,1.32v1.78Z"/><path d="M111.48,37v-1.2c0-2-.74-3.4-3.26-3.4S104.8,33.9,104.8,36v6.56c0,2.1.9,3.66,2.86,3.66a2.05,2.05,0,0,0,2.18-1.64v1.48h1.64V38.84h-3.24v1.8h1.08V43c0,.88-.38,1.3-1.12,1.3s-1.12-.58-1.12-1.4V35.66c0-.82.36-1.4,1.18-1.4s1.14.48,1.14,1.32V37Z"/><path d="M119.24,37.3V35.56c0-1.9-.84-3-3.14-3h-3.32V46.08h2.28V39.86l2.14,6.22h2.4l-2.18-6.16C118.72,39.62,119.24,38.76,119.24,37.3Zm-2.3.18a1,1,0,0,1-1.12,1.12h-.76V34.38h.76c.78,0,1.12.36,1.12,1.1Z"/><path d="M123.92,32.36c-2.4,0-3.44,1.54-3.44,3.66v6.56c0,2.1,1,3.66,3.44,3.66s3.46-1.56,3.46-3.66V36C127.38,33.9,126.34,32.36,123.92,32.36Zm1.18,10.58c0,.82-.36,1.4-1.18,1.4s-1.16-.58-1.16-1.4V35.66c0-.82.36-1.4,1.16-1.4s1.18.58,1.18,1.4Z"/><polygon points="135.72 41.12 135.7 41.12 134.44 32.52 132.58 32.52 131.44 41.12 131.42 41.12 130.36 32.52 128.16 32.52 129.98 46.08 132.12 46.08 133.4 37.7 133.42 37.7 134.76 46.08 136.92 46.08 138.68 32.52 136.76 32.52 135.72 41.12"/><polygon points="139.4 34.38 141.28 34.38 141.28 46.08 143.58 46.08 143.58 34.38 145.46 34.38 145.46 32.52 139.4 32.52 139.4 34.38"/><polygon points="151 32.52 151 38.26 148.8 38.26 148.8 32.52 146.52 32.52 146.52 46.08 148.8 46.08 148.8 40.1 151 40.1 151 46.08 153.3 46.08 153.3 32.52 151 32.52"/></svg>