<svg id="Ebene_1" data-name="Ebene 1" xmlns="http://www.w3.org/2000/svg" viewBox="0 0 160.92 160.93"><title>sdg-11</title><polygon points="11.53 19.38 11.53 25.07 11.58 25.07 15.4 21.09 15.45 21.09 15.45 45.93 20.91 45.93 20.91 13.49 16.55 13.49 11.53 19.38"/><polygon points="27.89 21.09 27.89 45.93 33.35 45.93 33.35 13.49 29 13.49 23.97 19.38 23.97 25.07 24.02 25.07 27.85 21.09 27.89 21.09"/><path d="M52.29,121.49l-12-15.58-.12-.13a.58.58,0,0,0-.43-.2.6.6,0,0,0-.39.16l-.08.08-.11.13L27.37,121.37l-.18.22a.59.59,0,0,0,.49.92H51.89a.58.58,0,0,0,.59-.59.64.64,0,0,0-.15-.4Z"/><path d="M51.82,124.71H27.56a.59.59,0,0,0-.59.59v19a.59.59,0,0,0,.59.59h7.81V132.94a.58.58,0,0,1,.59-.59h7.25a.58.58,0,0,1,.59.59v11.94h8a.6.6,0,0,0,.59-.59v-19A.6.6,0,0,0,51.82,124.71Z"/><path d="M135.64,119.74h-24a.57.57,0,0,0-.59.57v24.24a.57.57,0,0,0,.59.57h24a.57.57,0,0,0,.59-.57V120.31A.57.57,0,0,0,135.64,119.74Zm-13.13,15.83a.58.58,0,0,1-.59.57h-7.17a.58.58,0,0,1-.59-.57v-4.36a.57.57,0,0,1,.59-.57h7.17a.57.57,0,0,1,.59.57Zm0-8.06a.57.57,0,0,1-.59.57h-7.17a.57.57,0,0,1-.59-.57v-4.36a.58.58,0,0,1,.59-.57h7.17a.58.58,0,0,1,.59.57Zm11,8.06a.58.58,0,0,1-.59.57h-7.17a.58.58,0,0,1-.59-.57v-4.36a.57.57,0,0,1,.59-.57h7.17a.57.57,0,0,1,.59.57Zm0-8.06a.57.57,0,0,1-.59.57h-7.17a.57.57,0,0,1-.59-.57v-4.36a.58.58,0,0,1,.59-.57h7.17a.58.58,0,0,1,.59.57Z"/><path d="M79.84,63.48H56.35a.57.57,0,0,0-.58.57v80.29a.58.58,0,0,0,.58.57H79.84a.59.59,0,0,0,.58-.57V64.05A.58.58,0,0,0,79.84,63.48Zm-14,72.29a.29.29,0,0,1-.3.3H60.18a.3.3,0,0,1-.31-.3v-6a.31.31,0,0,1,.31-.31h5.38a.3.3,0,0,1,.3.31Zm0-13.77a.3.3,0,0,1-.3.31H60.18a.31.31,0,0,1-.31-.31v-6a.31.31,0,0,1,.31-.31h5.38a.3.3,0,0,1,.3.31Zm0-13.77a.3.3,0,0,1-.3.31H60.18a.31.31,0,0,1-.31-.31v-6a.31.31,0,0,1,.31-.31h5.38a.3.3,0,0,1,.3.31Zm0-13.76a.3.3,0,0,1-.3.31H60.18a.31.31,0,0,1-.31-.31v-6a.3.3,0,0,1,.31-.3h5.38a.29.29,0,0,1,.3.3Zm0-13.77a.3.3,0,0,1-.3.31H60.18a.31.31,0,0,1-.31-.31v-6a.31.31,0,0,1,.31-.31h5.38a.3.3,0,0,1,.3.31Zm10.55,55.07a.3.3,0,0,1-.31.3H70.73a.3.3,0,0,1-.31-.3v-6a.31.31,0,0,1,.31-.31H76.1a.31.31,0,0,1,.31.31Zm0-13.77a.31.31,0,0,1-.31.31H70.73a.31.31,0,0,1-.31-.31v-6a.3.3,0,0,1,.31-.31H76.1a.31.31,0,0,1,.31.31Zm0-13.77a.31.31,0,0,1-.31.31H70.73a.31.31,0,0,1-.31-.31v-6a.31.31,0,0,1,.31-.31H76.1a.31.31,0,0,1,.31.31Zm0-13.76a.31.31,0,0,1-.31.31H70.73a.31.31,0,0,1-.31-.31v-6a.3.3,0,0,1,.31-.3H76.1a.3.3,0,0,1,.31.3Zm0-13.77a.31.31,0,0,1-.31.31H70.73a.31.31,0,0,1-.31-.31v-6a.31.31,0,0,1,.31-.31H76.1a.31.31,0,0,1,.31.31Z"/><rect x="111.08" y="111.99" width="25.13" height="5.8" rx="0.48" ry="0.48"/><path d="M107.62,78.19a.57.57,0,0,0-.33.11l0,0-.2.25L84,107.87l-.11.14a.7.7,0,0,0-.2.46v36a.57.57,0,0,0,.58.57H107.7a.57.57,0,0,0,.57-.57V78.88a.48.48,0,0,0-.06-.24A.6.6,0,0,0,107.62,78.19ZM98.49,94.54l.17-.2c1.58-2,4.24-5.31,5.54-6.9l.17-.2a.67.67,0,0,1,.52-.25.66.66,0,0,1,.64.54v7.41a.67.67,0,0,1-.64.66H99a.67.67,0,0,1-.64-.66A.68.68,0,0,1,98.49,94.54Zm-3.65,41a.57.57,0,0,1-.57.58h-7a.58.58,0,0,1-.57-.58v-4.38a.57.57,0,0,1,.57-.57h7a.56.56,0,0,1,.57.57Zm0-8.1a.57.57,0,0,1-.57.58h-7a.58.58,0,0,1-.57-.58v-4.38a.57.57,0,0,1,.57-.57h7a.56.56,0,0,1,.57.57Zm0-8.09a.57.57,0,0,1-.57.57h-7a.58.58,0,0,1-.57-.57V115a.57.57,0,0,1,.57-.57h7a.56.56,0,0,1,.57.57Zm0-17.75v9.66a.58.58,0,0,1-.57.57h-7a.58.58,0,0,1-.58-.57v-1.22a.65.65,0,0,1,0-.21.25.25,0,0,1,0-.07.35.35,0,0,1,0-.08l.06-.09c.9-1.28,4.94-6.26,6.63-8.34l.17-.2a.69.69,0,0,1,.52-.25.66.66,0,0,1,.64.54Zm10.68,33.94a.58.58,0,0,1-.57.58H98a.58.58,0,0,1-.58-.58v-4.38a.57.57,0,0,1,.58-.57h7a.57.57,0,0,1,.57.57Zm0-8.1a.58.58,0,0,1-.57.58H98a.58.58,0,0,1-.58-.58v-4.38a.57.57,0,0,1,.58-.57h7a.57.57,0,0,1,.57.57Zm0-8.09a.58.58,0,0,1-.57.57H98a.58.58,0,0,1-.58-.57V115a.57.57,0,0,1,.58-.57h7a.57.57,0,0,1,.57.57Zm0-8.1a.58.58,0,0,1-.57.57H98a.58.58,0,0,1-.58-.57v-4.39a.58.58,0,0,1,.58-.57h7a.58.58,0,0,1,.57.57Zm0-8.1a.57.57,0,0,1-.57.57H98a.57.57,0,0,1-.58-.57V98.79a.57.57,0,0,1,.58-.58h7a.57.57,0,0,1,.57.58Z"/><path d="M47.82,27.24c2.32,0,3.32-1.32,3.32-3.18V23.4c0-1.5-.6-2.26-1.84-3.52l-1.46-1.44c-.66-.64-1.08-1.08-1.08-1.84v-.28a1,1,0,0,1,1.08-1.12c.72,0,1.08.38,1.08,1.16v1.18H51v-1.1c0-2-.9-3.08-3.18-3.08s-3.2,1.3-3.2,3v.46c0,1.56.6,2.34,1.9,3.62l1.34,1.34a2.45,2.45,0,0,1,1,1.92v.52c0,.72-.32,1.2-1,1.2s-1.12-.44-1.12-1.2V22.34H44.6v1.82C44.6,25.94,45.5,27.24,47.82,27.24Z"/><path d="M55.52,27.24c2.32,0,3.22-1.36,3.22-3.46V13.52h-2.1V24c0,.8-.32,1.34-1.12,1.34S54.4,24.8,54.4,24V13.52H52.12V23.78C52.12,25.88,53.12,27.24,55.52,27.24Z"/><path d="M62.92,27.24c2.32,0,3.33-1.32,3.33-3.18V23.4c0-1.5-.61-2.26-1.85-3.52l-1.46-1.44c-.66-.64-1.08-1.08-1.08-1.84v-.28a1,1,0,0,1,1.08-1.12c.72,0,1.08.38,1.08,1.16v1.18H66.1v-1.1c0-2-.9-3.08-3.18-3.08s-3.2,1.3-3.2,3v.46c0,1.56.6,2.34,1.9,3.62L63,21.76a2.45,2.45,0,0,1,1,1.92v.52c0,.72-.32,1.2-1,1.2s-1.12-.44-1.12-1.2V22.34H59.7v1.82C59.7,25.94,60.6,27.24,62.92,27.24Z"/><polygon points="68.54 27.08 70.84 27.08 70.84 15.38 72.73 15.38 72.73 13.52 66.66 13.52 66.66 15.38 68.54 15.38 68.54 27.08"/><path d="M74.36,27.08l.4-2.48h2.42l.42,2.48H80L77.36,13.52h-2.6L72.2,27.08ZM76,17.34h0l.9,5.44H75.06Z"/><rect x="80.66" y="13.52" width="2.28" height="13.56"/><polygon points="85.96 18.56 88.64 27.08 90.64 27.08 90.64 13.52 88.74 13.52 88.74 21.3 86.28 13.52 84.04 13.52 84.04 27.08 85.96 27.08 85.96 18.56"/><path d="M93.92,24.6h2.42l.42,2.48H99.1L96.52,13.52h-2.6L91.36,27.08h2.16Zm1.2-7.26h0l.9,5.44H94.22Z"/><path d="M106.5,24.1V22.3A2.06,2.06,0,0,0,104.8,20a2,2,0,0,0,1.36-2.16V16.5c0-1.92-.76-3-3-3h-3.3V27.08h3.54C105.64,27.08,106.5,26,106.5,24.1Zm-4.4-8.72h.78a1,1,0,0,1,1.1,1.1v1.66a1,1,0,0,1-1.08,1.1h-.8Zm0,9.84V21h1c.8,0,1.14.38,1.14,1.1v2a1,1,0,0,1-1.12,1.1Z"/><polygon points="112.42 25.22 109.7 25.22 109.7 13.52 107.42 13.52 107.42 27.08 112.42 27.08 112.42 25.22"/><polygon points="118.68 25.22 115.52 25.22 115.52 21.1 117.78 21.1 117.78 19.26 115.52 19.26 115.52 15.38 118.68 15.38 118.68 13.52 113.24 13.52 113.24 27.08 118.68 27.08 118.68 25.22"/><path d="M125,27.24c2.42,0,3.22-1.44,3.22-3.38V21.52H126.1V24c0,.8-.28,1.32-1.1,1.32s-1.16-.58-1.16-1.4V16.66c0-.82.34-1.4,1.16-1.4s1.1.48,1.1,1.32v1.78h2.08v-1.6c0-2-.7-3.4-3.22-3.4s-3.4,1.54-3.4,3.66v6.56C121.56,25.68,122.56,27.24,125,27.24Z"/><rect x="129.2" y="13.52" width="2.28" height="13.56"/><polygon points="134.2 27.08 136.5 27.08 136.5 15.38 138.38 15.38 138.38 13.52 132.32 13.52 132.32 15.38 134.2 15.38 134.2 27.08"/><rect x="139.22" y="13.52" width="2.28" height="13.56"/><polygon points="142.6 27.08 148.04 27.08 148.04 25.22 144.88 25.22 144.88 21.1 147.14 21.1 147.14 19.26 144.88 19.26 144.88 15.38 148.04 15.38 148.04 13.52 142.6 13.52 142.6 27.08"/><path d="M153.52,19.88l-1.46-1.44c-.66-.64-1.08-1.08-1.08-1.84v-.28a1,1,0,0,1,1.08-1.12c.72,0,1.08.38,1.08,1.16v1.18h2.08v-1.1c0-2-.9-3.08-3.18-3.08s-3.2,1.3-3.2,3v.46c0,1.56.6,2.34,1.9,3.62l1.34,1.34a2.45,2.45,0,0,1,1,1.92v.52c0,.72-.32,1.2-1,1.2s-1.12-.44-1.12-1.2V22.34h-2.12v1.82c0,1.78.9,3.08,3.22,3.08s3.32-1.32,3.32-3.18V23.4C155.36,21.9,154.76,21.14,153.52,19.88Z"/><path d="M46.92,43.6h2.42l.42,2.48H52.1L49.52,32.52h-2.6L44.36,46.08h2.16Zm1.2-7.26h0l.9,5.44H47.22Z"/><polygon points="59.42 46.08 59.42 32.52 57.52 32.52 57.52 40.3 55.06 32.52 52.82 32.52 52.82 46.08 54.74 46.08 54.74 37.56 57.42 46.08 59.42 46.08"/><path d="M60.5,32.52V46.08H64c2.44,0,3.3-1.56,3.3-3.64V36.16c0-2.1-.86-3.64-3.3-3.64ZM65,35.74v7.1c0,.82-.36,1.38-1.3,1.38h-1V34.38h1A1.19,1.19,0,0,1,65,35.74Z"/><path d="M76.9,37.36v-1.6c0-2-.7-3.4-3.22-3.4s-3.4,1.54-3.4,3.66v6.56c0,2.1,1,3.66,3.4,3.66s3.22-1.44,3.22-3.38V40.52H74.82V43c0,.8-.28,1.32-1.1,1.32s-1.16-.58-1.16-1.4V35.66c0-.82.34-1.4,1.16-1.4s1.1.48,1.1,1.32v1.78Z"/><path d="M84.82,42.58V36c0-2.12-1-3.66-3.46-3.66S77.92,33.9,77.92,36v6.56c0,2.1,1,3.66,3.44,3.66S84.82,44.68,84.82,42.58Zm-2.28.36c0,.82-.36,1.4-1.18,1.4s-1.16-.58-1.16-1.4V35.66c0-.82.36-1.4,1.16-1.4s1.18.58,1.18,1.4Z"/><polygon points="94.26 46.08 94.26 32.52 91.38 32.52 90.06 40.16 90.04 40.16 88.56 32.52 85.9 32.52 85.9 46.08 87.78 46.08 87.78 37.28 87.82 37.28 89.52 46.08 90.58 46.08 92.12 37.28 92.18 37.28 92.18 46.08 94.26 46.08"/><polygon points="95.34 32.52 95.34 46.08 97.22 46.08 97.22 37.28 97.26 37.28 98.96 46.08 100.02 46.08 101.56 37.28 101.62 37.28 101.62 46.08 103.7 46.08 103.7 32.52 100.82 32.52 99.5 40.16 99.48 40.16 98 32.52 95.34 32.52"/><path d="M111.4,32.52h-2.1V43c0,.8-.32,1.34-1.12,1.34s-1.12-.54-1.12-1.34V32.52h-2.28V42.78c0,2.1,1,3.46,3.4,3.46s3.22-1.36,3.22-3.46Z"/><polygon points="114.4 37.56 117.08 46.08 119.08 46.08 119.08 32.52 117.18 32.52 117.18 40.3 114.72 32.52 112.48 32.52 112.48 46.08 114.4 46.08 114.4 37.56"/><rect x="120.16" y="32.52" width="2.28" height="13.56"/><polygon points="127.46 46.08 127.46 34.38 129.34 34.38 129.34 32.52 123.28 32.52 123.28 34.38 125.16 34.38 125.16 46.08 127.46 46.08"/><rect x="130.18" y="32.52" width="2.28" height="13.56"/><polygon points="133.56 46.08 139 46.08 139 44.22 135.84 44.22 135.84 40.1 138.1 40.1 138.1 38.26 135.84 38.26 135.84 34.38 139 34.38 139 32.52 133.56 32.52 133.56 46.08"/><path d="M143,37.44c-.66-.64-1.08-1.08-1.08-1.84v-.28A1,1,0,0,1,143,34.2c.72,0,1.08.38,1.08,1.16v1.18h2.08v-1.1c0-2-.9-3.08-3.18-3.08s-3.2,1.3-3.2,3v.46c0,1.56.6,2.34,1.9,3.62L143,40.76a2.45,2.45,0,0,1,1,1.92v.52c0,.72-.32,1.2-1,1.2s-1.12-.44-1.12-1.2V41.34h-2.12v1.82c0,1.78.9,3.08,3.22,3.08s3.32-1.32,3.32-3.18V42.4c0-1.5-.6-2.26-1.84-3.52Z"/></svg>