<svg id="Ebene_1" data-name="Ebene 1" xmlns="http://www.w3.org/2000/svg" viewBox="0 0 160.92 160.93"><title>sdg-2</title><path d="M23.25,13.1c-4.78,0-7.22,2.54-7.22,7.09v3.92h5V20c0-2,1-2.53,2.11-2.53s2,.43,2,2.44v2.68c0,2.68-.24,3.73-2,5.6L20,31.48c-3,3.16-4.07,5.27-4.07,8.47v6H30.1V41.48h-9V40c0-2.53.91-3.49,2.29-5l3.5-3.68c2.82-3,3.44-4.93,3.44-8.19V20C30.38,15.31,28.13,13.1,23.25,13.1Z"/><path d="M120.47,103.41H35.87a1.07,1.07,0,0,0-1.08,1.07l.06.48c2.58,14.9,14.09,27.08,29.34,31.78V139s0,0,0,.06,0,0,0,.05a1.06,1.06,0,0,0,1,1H91.87a1.08,1.08,0,0,0,1-1.07h0v-2.56c14.94-4.9,26.13-17,28.6-31.77,0,0,0-.06,0-.09a.76.76,0,0,0,0-.15A1.06,1.06,0,0,0,120.47,103.41Z"/><path d="M93.07,89.08c4,4.37,3.65,8.22,2.51,10.82h5.58c1.13-3.84.67-8.66-3.87-13.61-6.41-7,.09-16.49.18-16.64a2.09,2.09,0,0,0-.9-3.12,3,3,0,0,0-3.68.77C92.54,67.8,84.37,79.56,93.07,89.08Z"/><path d="M84.34,99.9c1.12-3.84.66-8.66-3.88-13.61-6.41-7,.08-16.49.18-16.64a2.09,2.09,0,0,0-.91-3.12,3,3,0,0,0-3.67.77c-.35.49-8.53,12.26.18,21.78,4,4.37,3.65,8.22,2.51,10.82Z"/><path d="M67.5,99.9c1.13-3.84.66-8.66-3.87-13.61-6.42-7,.08-16.49.18-16.64a2.09,2.09,0,0,0-.91-3.12,3,3,0,0,0-3.67.77c-.36.5-8.53,12.26.18,21.78,4,4.37,3.64,8.22,2.51,10.82Z"/><polygon points="51.64 24.8 48.18 24.8 51.78 14.96 51.78 13.1 46.16 13.1 46.16 14.96 49.38 14.96 45.8 24.8 45.8 26.66 51.64 26.66 51.64 24.8"/><polygon points="58.42 24.8 55.26 24.8 55.26 20.68 57.52 20.68 57.52 18.84 55.26 18.84 55.26 14.96 58.42 14.96 58.42 13.1 52.98 13.1 52.98 26.66 58.42 26.66 58.42 24.8"/><path d="M61.92,20.44l2.14,6.22h2.4L64.28,20.5c1.3-.3,1.82-1.16,1.82-2.62V16.14c0-1.9-.84-3-3.14-3H59.64V26.66h2.28Zm0-5.48h.76c.78,0,1.12.36,1.12,1.1v2a1,1,0,0,1-1.12,1.12h-.76Z"/><path d="M70.78,26.82c2.42,0,3.46-1.56,3.46-3.66V16.6c0-2.12-1-3.66-3.46-3.66s-3.44,1.54-3.44,3.66v6.56C67.34,25.26,68.38,26.82,70.78,26.82ZM69.62,16.24c0-.82.36-1.4,1.16-1.4s1.18.58,1.18,1.4v7.28c0,.82-.36,1.4-1.18,1.4s-1.16-.58-1.16-1.4Z"/><polygon points="52.74 45.66 52.74 32.1 50.44 32.1 50.44 37.84 48.24 37.84 48.24 32.1 45.96 32.1 45.96 45.66 48.24 45.66 48.24 39.68 50.44 39.68 50.44 45.66 52.74 45.66"/><path d="M57.44,43.92c-.8,0-1.12-.54-1.12-1.34V32.1H54V42.36c0,2.1,1,3.46,3.4,3.46s3.22-1.36,3.22-3.46V32.1h-2.1V42.58C58.56,43.38,58.24,43.92,57.44,43.92Z"/><polygon points="61.96 32.1 61.96 45.66 63.88 45.66 63.88 37.14 66.56 45.66 68.56 45.66 68.56 32.1 66.66 32.1 66.66 39.88 64.2 32.1 61.96 32.1"/><path d="M69.86,35.6v6.56c0,2.1.9,3.66,2.86,3.66a2.05,2.05,0,0,0,2.18-1.64v1.48h1.64V38.42H73.3v1.8h1.08v2.4c0,.88-.38,1.3-1.12,1.3s-1.12-.58-1.12-1.4V35.24c0-.82.36-1.4,1.18-1.4s1.14.48,1.14,1.32v1.38h2.08v-1.2c0-2-.74-3.4-3.26-3.4S69.86,33.48,69.86,35.6Z"/><polygon points="83.28 43.8 80.12 43.8 80.12 39.68 82.38 39.68 82.38 37.84 80.12 37.84 80.12 33.96 83.28 33.96 83.28 32.1 77.84 32.1 77.84 45.66 83.28 45.66 83.28 43.8"/><path d="M86.78,39.44l2.14,6.22h2.4L89.14,39.5c1.3-.3,1.82-1.16,1.82-2.62V35.14c0-1.9-.84-3-3.14-3H84.5V45.66h2.28Zm0-5.48h.76c.78,0,1.12.36,1.12,1.1v2a1,1,0,0,1-1.12,1.12h-.76Z"/></svg>