<svg id="Ebene_1" data-name="Ebene 1" xmlns="http://www.w3.org/2000/svg" viewBox="0 0 160.92 160.93"><title>sdg-15</title><polygon points="11.78 19.36 11.78 25.05 11.83 25.05 15.66 21.08 15.71 21.08 15.71 45.92 21.16 45.92 21.16 13.47 16.81 13.47 11.78 19.36"/><path d="M34.13,23.76c-2.15,0-3.73.76-4.59,2.25h-.05V17.92h9.38V13.47H24.51V31.75h5V31c0-1.91.86-3,2.39-3,1.68,0,2.35,1.15,2.35,2.92v7.85c0,1.72-.62,2.91-2.3,2.91-1.87,0-2.53-1.24-2.53-3.15V34.53h-5v3.69c0,4.92,2,8.08,7.51,8.08s7.75-2.92,7.75-7.42V30.94C39.68,25.82,37.05,23.76,34.13,23.76Z"/><path d="M61.9,108.81h4.74a.36.36,0,0,1,.36.36v11.72a.35.35,0,0,1-.35.35H61.9a.36.36,0,0,1-.36-.36V109.16A.36.36,0,0,1,61.9,108.81Z"/><path d="M118.71,126.27H40.57a.37.37,0,0,0-.36.37v4.77a.35.35,0,0,0,.36.35h78.14a.35.35,0,0,0,.36-.35v-4.77A.37.37,0,0,0,118.71,126.27Z"/><path d="M118.71,135.76H40.57a.36.36,0,0,0-.36.35v4.79a.36.36,0,0,0,.36.36h78.14a.36.36,0,0,0,.36-.36v-4.79A.36.36,0,0,0,118.71,135.76Z"/><path d="M103.84,95.84a11.49,11.49,0,0,0-6.76-2.55A9,9,0,0,0,90.81,96a.64.64,0,0,0-.21.49v.42a.7.7,0,0,0,.22.54.64.64,0,0,0,.55.12.8.8,0,0,0,.15,0,1.08,1.08,0,0,0,.39-.25A6.26,6.26,0,0,1,95,96.6a11.8,11.8,0,0,1,8,3.37l.07.07a1,1,0,0,0,.68.28.89.89,0,0,0,.66-.28l.07-.06a11.84,11.84,0,0,1,8.06-3.38,6.28,6.28,0,0,1,3.14.65,1.08,1.08,0,0,0,.43.26,1.06,1.06,0,0,0,.46,0,.67.67,0,0,0,.49-.65v-.37a.71.71,0,0,0-.21-.49,9,9,0,0,0-6.35-2.73A11.47,11.47,0,0,0,103.84,95.84Z"/><path d="M98.65,65.1l-.08.26a.69.69,0,0,0,.11.59.63.63,0,0,0,.48.26.18.18,0,0,0,.1,0,1,1,0,0,0,.38-.1,2.27,2.27,0,0,1,.47-.05,6.76,6.76,0,0,1,5.58,3.64l0,.06a.83.83,0,0,0,.5.4,1,1,0,0,0,.25,0,.8.8,0,0,0,.39-.09l0,0a7.78,7.78,0,0,1,3.49-.86A5.28,5.28,0,0,1,114,70.36a1,1,0,0,0,.26.29,1.51,1.51,0,0,0,.26.12l.11,0h.07a.67.67,0,0,0,.31-.07.71.71,0,0,0,.34-.4l.06-.23a.63.63,0,0,0,0-.19.64.64,0,0,0-.09-.34,5.89,5.89,0,0,0-5.3-3.19,8.44,8.44,0,0,0-2.82.53,6.81,6.81,0,0,0-5.27-3,6.59,6.59,0,0,0-2.93.74A.7.7,0,0,0,98.65,65.1Z"/><path d="M93,79.1a.9.9,0,0,0,.6.23h.06a.87.87,0,0,0,.61-.3l0,0a9.4,9.4,0,0,1,6.86-3.17,4.64,4.64,0,0,1,2,.37,1,1,0,0,0,.41.21,1.07,1.07,0,0,0,.29,0,.47.47,0,0,0,.16,0,.66.66,0,0,0,.44-.67l0-.31a.64.64,0,0,0-.23-.46,7.66,7.66,0,0,0-5-2,9.35,9.35,0,0,0-5.85,2.42,9.81,9.81,0,0,0-5.21-1.73,7.49,7.49,0,0,0-5.55,2.56.72.72,0,0,0-.18.5l0,.35a.68.68,0,0,0,.32.53.64.64,0,0,0,.52.08l.12,0a.93.93,0,0,0,.33-.25,5.78,5.78,0,0,1,3-.68A9.61,9.61,0,0,1,93,79.05Z"/><path d="M47.2,90.33a9.06,9.06,0,0,0,6.6,15.28l17.1.1a12.8,12.8,0,0,0,2.77-25.3,11.31,11.31,0,0,0,1.16-5A11.46,11.46,0,0,0,52,74.54l-.54,0A8.46,8.46,0,0,0,47.2,90.33Z"/><polygon points="54.97 25.06 52.24 25.06 52.24 13.36 49.97 13.36 49.97 26.92 54.97 26.92 54.97 25.06"/><rect x="56" y="13.36" width="2.28" height="13.56"/><polygon points="61.89 20.94 64.17 20.94 64.17 19.1 61.89 19.1 61.89 15.22 64.95 15.22 64.95 13.36 59.6 13.36 59.6 26.92 61.89 26.92 61.89 20.94"/><polygon points="71.39 25.06 68.23 25.06 68.23 20.94 70.49 20.94 70.49 19.1 68.23 19.1 68.23 15.22 71.39 15.22 71.39 13.36 65.95 13.36 65.95 26.92 71.39 26.92 71.39 25.06"/><path d="M53.41,46.08c2.42,0,3.46-1.56,3.46-3.66V35.86c0-2.12-1-3.66-3.46-3.66S50,33.74,50,35.86v6.56C50,44.52,51,46.08,53.41,46.08ZM52.25,35.5c0-.82.36-1.4,1.16-1.4s1.18.58,1.18,1.4v7.28c0,.82-.36,1.4-1.18,1.4s-1.16-.58-1.16-1.4Z"/><polygon points="62.87 40.14 60.41 32.36 58.16 32.36 58.16 45.92 60.09 45.92 60.09 37.4 62.77 45.92 64.77 45.92 64.77 32.36 62.87 32.36 62.87 40.14"/><polygon points="70.27 32.36 70.27 45.92 75.27 45.92 75.27 44.06 72.54 44.06 72.54 32.36 70.27 32.36"/><path d="M78.5,43.44h2.42l.42,2.48h2.34L81.1,32.36H78.5L75.94,45.92H78.1Zm1.2-7.26h0l.9,5.44H78.8Z"/><polygon points="86.54 37.4 89.22 45.92 91.22 45.92 91.22 32.36 89.32 32.36 89.32 40.14 86.86 32.36 84.62 32.36 84.62 45.92 86.54 45.92 86.54 37.4"/><path d="M99.34,42.28V36c0-2.1-.86-3.64-3.3-3.64H92.52V45.92H96C98.48,45.92,99.34,44.36,99.34,42.28ZM94.8,44.06V34.22h1a1.19,1.19,0,0,1,1.3,1.36v7.1c0,.82-.36,1.38-1.3,1.38Z"/></svg>