<svg id="Ebene_1" data-name="Ebene 1" xmlns="http://www.w3.org/2000/svg" viewBox="0 0 160.92 160.93"><title>sdg-10</title><polygon points="11.6 19.36 11.6 25.06 11.64 25.06 15.48 21.09 15.53 21.09 15.53 45.95 20.99 45.95 20.99 13.47 16.63 13.47 11.6 19.36"/><path d="M32.82,13.09c-5.51,0-8,3.68-8,8.76V37.57c0,5,2.54,8.76,8.05,8.76s8.09-3.74,8.09-8.76V21.85C40.91,16.77,38.38,13.09,32.82,13.09Zm2.63,25.34c0,2-.72,3.35-2.63,3.35s-2.59-1.39-2.59-3.35V21c0-2,.72-3.35,2.59-3.35S35.45,19,35.45,21Z"/><rect x="64.56" y="106.3" width="32.87" height="7.99" rx="0.35" ry="0.35"/><path d="M97.43,93a.35.35,0,0,0-.35-.35H64.91a.35.35,0,0,0-.35.35v7.29a.35.35,0,0,0,.35.35H97.08a.35.35,0,0,0,.35-.35Z"/><path d="M109.14,81.73l-.07.06a33.68,33.68,0,0,1,2.75,4.88A34.15,34.15,0,0,1,54.12,123,32.24,32.24,0,0,1,100.92,79l.2.18a1.15,1.15,0,0,0,1.54,0l.13-.12L106.88,75l.27-.26a1.18,1.18,0,0,0-.07-1.56.69.69,0,0,0-.13-.11,39.6,39.6,0,1,0-50.88,60.65,37.39,37.39,0,0,0,24.07,8.48,37.35,37.35,0,0,0,29-60.46Z"/><path d="M54.25,20.86l2.14,6.22h2.4l-2.18-6.16c1.3-.3,1.82-1.16,1.82-2.62V16.56c0-1.9-.84-3-3.14-3H52V27.08h2.28Zm0-5.48H55c.78,0,1.12.36,1.12,1.1v2A1,1,0,0,1,55,19.6h-.76Z"/><polygon points="65.11 25.22 61.95 25.22 61.95 21.1 64.21 21.1 64.21 19.26 61.95 19.26 61.95 15.38 65.11 15.38 65.11 13.52 59.67 13.52 59.67 27.08 65.11 27.08 65.11 25.22"/><path d="M73.15,23.44V17.16c0-2.1-.86-3.64-3.3-3.64H66.33V27.08h3.52C72.29,27.08,73.15,25.52,73.15,23.44Zm-4.54,1.78V15.38h1a1.19,1.19,0,0,1,1.3,1.36v7.1c0,.82-.36,1.38-1.3,1.38Z"/><path d="M77.85,27.24c2.32,0,3.22-1.36,3.22-3.46V13.52H79V24c0,.8-.32,1.34-1.12,1.34S76.73,24.8,76.73,24V13.52H74.45V23.78C74.45,25.88,75.45,27.24,77.85,27.24Z"/><path d="M85.77,27.24c2.42,0,3.22-1.44,3.22-3.38V21.52H86.91V24c0,.8-.28,1.32-1.1,1.32s-1.16-.58-1.16-1.4V16.66c0-.82.34-1.4,1.16-1.4s1.1.48,1.1,1.32v1.78H89v-1.6c0-2-.7-3.4-3.22-3.4s-3.4,1.54-3.4,3.66v6.56C82.37,25.68,83.37,27.24,85.77,27.24Z"/><polygon points="95.67 25.22 92.51 25.22 92.51 21.1 94.77 21.1 94.77 19.26 92.51 19.26 92.51 15.38 95.67 15.38 95.67 13.52 90.23 13.52 90.23 27.08 95.67 27.08 95.67 25.22"/><path d="M103.71,23.44V17.16c0-2.1-.86-3.64-3.3-3.64H96.88V27.08h3.53C102.85,27.08,103.71,25.52,103.71,23.44Zm-4.54,1.78V15.38h1a1.19,1.19,0,0,1,1.3,1.36v7.1c0,.82-.36,1.38-1.3,1.38Z"/><rect x="51.97" y="32.52" width="2.28" height="13.56"/><polygon points="57.81 32.52 55.56 32.52 55.56 46.08 57.49 46.08 57.49 37.56 60.17 46.08 62.17 46.08 62.17 32.52 60.27 32.52 60.27 40.3 57.81 32.52"/><polygon points="68.91 34.38 68.91 32.52 63.47 32.52 63.47 46.08 68.91 46.08 68.91 44.22 65.75 44.22 65.75 40.1 68.01 40.1 68.01 38.26 65.75 38.26 65.75 34.38 68.91 34.38"/><path d="M69.93,36v6.56c0,1.84.78,3.18,2.6,3.5V47l4.3.8V46.1l-1.68-.32a3.26,3.26,0,0,0,1.68-3.2V36c0-2.12-1-3.66-3.46-3.66S69.93,33.9,69.93,36Zm2.28-.36c0-.82.36-1.4,1.16-1.4s1.18.58,1.18,1.4v7.4c0,.8-.36,1.4-1.18,1.4s-1.16-.6-1.16-1.4Z"/><path d="M80.41,43V32.52H78.12V42.78c0,2.1,1,3.46,3.41,3.46s3.22-1.36,3.22-3.46V32.52h-2.1V43c0,.8-.32,1.34-1.12,1.34S80.41,43.8,80.41,43Z"/><path d="M85.38,46.08h2.17L88,43.6h2.42l.42,2.48h2.34L90.55,32.52H88Zm3.77-9.74h0l.9,5.44H88.25Z"/><polygon points="94.06 32.52 94.06 46.08 99.06 46.08 99.06 44.22 96.34 44.22 96.34 32.52 94.06 32.52"/><rect x="100.1" y="32.52" width="2.28" height="13.56"/><polygon points="107.63 46.08 107.63 34.38 109.51 34.38 109.51 32.52 103.44 32.52 103.44 34.38 105.33 34.38 105.33 46.08 107.63 46.08"/><rect x="110.56" y="32.52" width="2.28" height="13.56"/><polygon points="114.16 46.08 119.61 46.08 119.61 44.22 116.44 44.22 116.44 40.1 118.7 40.1 118.7 38.26 116.44 38.26 116.44 34.38 119.61 34.38 119.61 32.52 114.16 32.52 114.16 46.08"/><path d="M125.31,38.88l-1.46-1.44c-.66-.64-1.08-1.08-1.08-1.84v-.28a1,1,0,0,1,1.08-1.12c.72,0,1.08.38,1.08,1.16v1.18H127v-1.1c0-2-.9-3.08-3.18-3.08s-3.21,1.3-3.21,3v.46c0,1.56.6,2.34,1.91,3.62l1.34,1.34a2.45,2.45,0,0,1,1,1.92v.52c0,.72-.32,1.2-1,1.2s-1.12-.44-1.12-1.2V41.34H120.6v1.82c0,1.78.9,3.08,3.23,3.08s3.32-1.32,3.32-3.18V42.4C127.15,40.9,126.55,40.14,125.31,38.88Z"/></svg>