<svg id="Ebene_1" data-name="Ebene 1" xmlns="http://www.w3.org/2000/svg" viewBox="0 0 160.92 160.93"><title>sdg-4</title><path d="M30.38,13.49H25L15.59,37.32v3.35h9.62v5.26h5.17V40.67h2.2V36.41h-2.2ZM25.3,36.41H20.37l4.89-13.35h0Z"/><polygon points="71.36 86.29 42.5 69.62 42.5 123.53 71.36 132.24 71.36 86.29"/><polygon points="74.53 132.26 103.58 123.53 103.58 69.62 74.53 86.4 74.53 132.26"/><path d="M122.82,64.84a3.42,3.42,0,0,0-3.41,3.42v3.68h6.83V68.26A3.42,3.42,0,0,0,122.82,64.84Z"/><polygon points="124.54 74.61 123.64 74.61 121.94 74.61 121.1 74.61 120.26 74.61 119.41 74.61 119.41 122.58 119.41 122.58 122.82 134.51 126.23 122.58 126.23 74.61 125.39 74.61 124.54 74.61"/><polygon points="106.69 125 74.62 135.36 73.13 135.36 72.84 135.36 71.36 135.36 39.43 126.44 39.43 69.49 36.34 71.94 36.34 128.61 71.21 138.26 72.84 138.26 73.13 138.26 74.76 138.26 106.94 128.05 109.78 127.21 109.78 71.94 106.69 69.49 106.69 125"/><path d="M48.57,26.66v.92l4.3.8v-1.7l-1.68-.32a3.26,3.26,0,0,0,1.68-3.2V16.6c0-2.12-1-3.66-3.46-3.66S46,14.48,46,16.6v6.56C46,25,46.75,26.34,48.57,26.66Zm-.32-10.42c0-.82.36-1.4,1.16-1.4s1.18.58,1.18,1.4v7.4c0,.8-.36,1.4-1.18,1.4s-1.16-.6-1.16-1.4Z"/><path d="M57.57,26.82c2.32,0,3.22-1.36,3.22-3.46V13.1h-2.1V23.58c0,.8-.32,1.34-1.12,1.34s-1.12-.54-1.12-1.34V13.1H54.17V23.36C54.17,25.46,55.17,26.82,57.57,26.82Z"/><path d="M64,24.18h2.42l.42,2.48h2.34L66.59,13.1H64L61.42,26.66h2.17Zm1.2-7.26h0l.9,5.44H64.29Z"/><polygon points="75.11 24.8 72.39 24.8 72.39 13.1 70.11 13.1 70.11 26.66 75.11 26.66 75.11 24.8"/><rect x="76.15" y="13.1" width="2.28" height="13.56"/><polygon points="81.36 26.66 83.67 26.66 83.67 14.96 85.55 14.96 85.55 13.1 79.48 13.1 79.48 14.96 81.36 14.96 81.36 26.66"/><polygon points="88.77 26.66 91.05 26.66 91.05 21.5 93.57 13.1 91.39 13.1 90 18.24 89.98 18.24 88.61 13.1 86.22 13.1 88.77 21.5 88.77 26.66"/><polygon points="51.41 43.8 48.25 43.8 48.25 39.68 50.51 39.68 50.51 37.84 48.25 37.84 48.25 33.96 51.41 33.96 51.41 32.1 45.97 32.1 45.97 45.66 51.41 45.66 51.41 43.8"/><path d="M52.62,32.1V45.66h3.53c2.44,0,3.3-1.56,3.3-3.64V35.74c0-2.1-.86-3.64-3.3-3.64Zm4.55,3.22v7.1c0,.82-.36,1.38-1.3,1.38h-1V34h1A1.19,1.19,0,0,1,57.17,35.32Z"/><path d="M60.75,32.1V42.36c0,2.1,1,3.46,3.4,3.46s3.22-1.36,3.22-3.46V32.1h-2.1V42.58c0,.8-.32,1.34-1.12,1.34S63,43.38,63,42.58V32.1Z"/><path d="M68.67,42.16c0,2.1,1,3.66,3.4,3.66s3.22-1.44,3.22-3.38V40.1H73.21v2.5c0,.8-.28,1.32-1.1,1.32S71,43.34,71,42.52V35.24c0-.82.34-1.4,1.16-1.4s1.1.48,1.1,1.32v1.78h2.08v-1.6c0-2-.7-3.4-3.22-3.4s-3.4,1.54-3.4,3.66Z"/><path d="M78.53,43.18H81l.42,2.48h2.34L81.13,32.1h-2.6L76,45.66h2.17Zm1.2-7.26h0l.9,5.44H78.83Z"/><polygon points="87.57 45.66 87.57 33.96 89.45 33.96 89.45 32.1 83.39 32.1 83.39 33.96 85.27 33.96 85.27 45.66 87.57 45.66"/><rect x="90.5" y="32.1" width="2.28" height="13.56"/><path d="M97.54,45.82c2.43,0,3.47-1.56,3.47-3.66V35.6c0-2.12-1-3.66-3.47-3.66S94.1,33.48,94.1,35.6v6.56C94.1,44.26,95.14,45.82,97.54,45.82ZM96.38,35.24c0-.82.37-1.4,1.16-1.4s1.19.58,1.19,1.4v7.28c0,.82-.36,1.4-1.19,1.4s-1.16-.58-1.16-1.4Z"/><polygon points="104.23 37.14 106.91 45.66 108.91 45.66 108.91 32.1 107.01 32.1 107.01 39.88 104.55 32.1 102.31 32.1 102.31 45.66 104.23 45.66 104.23 37.14"/></svg>