<svg id="Ebene_1" data-name="Ebene 1" xmlns="http://www.w3.org/2000/svg" viewBox="0 0 160.92 160.93"><title>sdg-12</title><polygon points="12.19 19.42 12.19 25.12 12.23 25.12 16.06 21.14 16.11 21.14 16.11 45.98 21.57 45.98 21.57 13.54 17.21 13.54 12.19 19.42"/><path d="M38.89,41.53H29.94V40c0-2.53.91-3.49,2.3-5l3.49-3.68c2.82-3,3.45-4.93,3.45-8.18V20c0-4.65-2.25-6.85-7.13-6.85s-7.23,2.54-7.23,7.09v3.92h5V20.09c0-2,.95-2.53,2.1-2.53s2,.43,2,2.44v2.68c0,2.68-.23,3.73-2,5.6l-3.06,3.25c-3,3.16-4.07,5.27-4.07,8.47v6H38.89Z"/><path d="M121.52,83.21c-7.2-5.69-16.77-5.81-20.28-5l-.4.1c-3.88.91-10.37,2.44-17.92,11.82l-.22.28a.92.92,0,0,0-.19.56,1,1,0,0,0,.13.5l.17.28q1.88,3.14,3.11,5.44a1,1,0,0,0,1.62.22l.14-.19c6.52-9,11.64-10.23,15-11l.42-.1a18.68,18.68,0,0,1,13.38,3.46c3.8,3,5.72,7.78,5.72,14.22,0,10.8-5.22,15-9.6,16.64-6.78,2.53-13.32-.85-13.39-.89l-.32-.15c-3.77-1.64-9.4-5-14.72-15.74-10.9-21.9-20.07-24-26.14-25.36l-.31-.07c-2.78-.63-12.42-1.07-20,5-3.95,3.15-8.67,9.28-8.67,20.56,0,6.87,1.41,11.41,5,16.18.87,1.19,9,11.56,24.69,8.55a23.61,23.61,0,0,0,9.45-4.32L71.46,127a.93.93,0,0,0,1.3-.06.88.88,0,0,0,.23-.61l2.47-15.2V111a.91.91,0,0,0-.3-.66.86.86,0,0,0-.64-.24h0l-14.8,4.09-.28,0a.89.89,0,0,0-.47.27.93.93,0,0,0-.24.67.88.88,0,0,0,.3.63l3.07,2.78a14.35,14.35,0,0,1-4.79,1.94c-11,2.1-16.39-5-16.61-5.35l-.09-.11c-2.55-3.35-3.41-6.21-3.41-11.31,0-6.47,1.89-11.25,5.62-14.23a18.12,18.12,0,0,1,13.13-3.4l.33.07c4.84,1.1,11.48,2.6,20.67,21.07,4.86,9.75,11,16.13,18.6,19.5a27.52,27.52,0,0,0,11.73,2.71,23.22,23.22,0,0,0,8.18-1.45c4.47-1.67,14.87-7.37,14.87-24.23C130.32,92.52,125.54,86.38,121.52,83.21Z"/><path d="M54,20.86l2.14,6.22h2.4l-2.18-6.16c1.3-.3,1.82-1.16,1.82-2.62V16.56c0-1.9-.84-3-3.14-3H51.7V27.08H54Zm0-5.48h.76c.78,0,1.12.36,1.12,1.1v2a1,1,0,0,1-1.12,1.12H54Z"/><polygon points="64.56 25.22 61.4 25.22 61.4 21.1 63.66 21.1 63.66 19.26 61.4 19.26 61.4 15.38 64.56 15.38 64.56 13.52 59.12 13.52 59.12 27.08 64.56 27.08 64.56 25.22"/><path d="M68.5,27.24c2.32,0,3.32-1.32,3.32-3.18V23.4c0-1.5-.6-2.26-1.84-3.52l-1.46-1.44c-.66-.64-1.08-1.08-1.08-1.84v-.28a1,1,0,0,1,1.08-1.12c.72,0,1.08.38,1.08,1.16v1.18h2.08v-1.1c0-2-.9-3.08-3.18-3.08s-3.2,1.3-3.2,3v.46c0,1.56.6,2.34,1.9,3.62l1.34,1.34a2.45,2.45,0,0,1,1,1.92v.52c0,.72-.32,1.2-1,1.2S67.4,25,67.4,24.2V22.34H65.28v1.82C65.28,25.94,66.18,27.24,68.5,27.24Z"/><path d="M75,22.48h1.1c2.3,0,3.14-1.16,3.14-3.06V16.56c0-1.9-.84-3-3.14-3H72.74V27.08H75Zm0-7.1h.84c.78,0,1.12.36,1.12,1.1V19.6a1,1,0,0,1-1.12,1.12H75Z"/><path d="M83.6,27.24c2.42,0,3.46-1.56,3.46-3.66V17c0-2.12-1-3.66-3.46-3.66S80.16,14.9,80.16,17v6.56C80.16,25.68,81.2,27.24,83.6,27.24ZM82.44,16.66c0-.82.36-1.4,1.16-1.4s1.18.58,1.18,1.4v7.28c0,.82-.36,1.4-1.18,1.4s-1.16-.58-1.16-1.4Z"/><polygon points="90 18.56 92.68 27.08 94.68 27.08 94.68 13.52 92.78 13.52 92.78 21.3 90.31 13.52 88.08 13.52 88.08 27.08 90 27.08 90 18.56"/><path d="M98.8,27.24c2.32,0,3.32-1.32,3.32-3.18V23.4c0-1.5-.6-2.26-1.84-3.52l-1.46-1.44c-.66-.64-1.08-1.08-1.08-1.84v-.28a1,1,0,0,1,1.08-1.12c.72,0,1.08.38,1.08,1.16v1.18H102v-1.1c0-2-.9-3.08-3.18-3.08s-3.2,1.3-3.2,3v.46c0,1.56.6,2.34,1.9,3.62l1.34,1.34a2.45,2.45,0,0,1,1,1.92v.52c0,.72-.32,1.2-1,1.2S97.7,25,97.7,24.2V22.34H95.58v1.82C95.58,25.94,96.48,27.24,98.8,27.24Z"/><rect x="103.04" y="13.52" width="2.28" height="13.56"/><path d="M113,24.1V22.3a2.06,2.06,0,0,0-1.7-2.26,2,2,0,0,0,1.36-2.16V16.5c0-1.92-.76-3-3-3h-3.3V27.08h3.54C112.18,27.08,113,26,113,24.1Zm-4.4-8.72h.78a1,1,0,0,1,1.1,1.1v1.66a1,1,0,0,1-1.08,1.1h-.8Zm0,9.84V21h1c.8,0,1.14.38,1.14,1.1v2a1,1,0,0,1-1.12,1.1Z"/><polygon points="118.9 25.22 116.17 25.22 116.17 13.52 113.9 13.52 113.9 27.08 118.9 27.08 118.9 25.22"/><polygon points="125.1 25.22 121.94 25.22 121.94 21.1 124.2 21.1 124.2 19.26 121.94 19.26 121.94 15.38 125.1 15.38 125.1 13.52 119.66 13.52 119.66 27.08 125.1 27.08 125.1 25.22"/><path d="M55.1,46.24c2.42,0,3.22-1.44,3.22-3.38V40.52H56.24V43c0,.8-.28,1.32-1.1,1.32S54,43.76,54,42.94V35.66c0-.82.34-1.4,1.16-1.4s1.1.48,1.1,1.32v1.78h2.08v-1.6c0-2-.7-3.4-3.22-3.4S51.7,33.9,51.7,36v6.56C51.7,44.68,52.7,46.24,55.1,46.24Z"/><path d="M62.72,46.24c2.42,0,3.46-1.56,3.46-3.66V36c0-2.12-1-3.66-3.46-3.66S59.27,33.9,59.27,36v6.56C59.27,44.68,60.32,46.24,62.72,46.24ZM61.56,35.66c0-.82.36-1.4,1.16-1.4s1.18.58,1.18,1.4v7.28c0,.82-.36,1.4-1.18,1.4s-1.16-.58-1.16-1.4Z"/><polygon points="67.19 32.52 67.19 46.08 69.12 46.08 69.12 37.56 71.8 46.08 73.8 46.08 73.8 32.52 71.9 32.52 71.9 40.3 69.44 32.52 67.19 32.52"/><path d="M74.69,41.34v1.82c0,1.78.9,3.08,3.23,3.08s3.32-1.32,3.32-3.18V42.4c0-1.5-.6-2.26-1.84-3.52l-1.47-1.44c-.66-.64-1.08-1.08-1.08-1.84v-.28a1,1,0,0,1,1.08-1.12c.73,0,1.08.38,1.08,1.16v1.18h2.08v-1.1c0-2-.9-3.08-3.17-3.08s-3.21,1.3-3.21,3v.46c0,1.56.6,2.34,1.9,3.62L78,40.76a2.43,2.43,0,0,1,1,1.92v.52c0,.72-.32,1.2-1,1.2s-1.11-.44-1.11-1.2V41.34Z"/><path d="M88.78,42.78V32.52h-2.1V43c0,.8-.32,1.34-1.12,1.34S84.43,43.8,84.43,43V32.52H82.16V42.78c0,2.1,1,3.46,3.4,3.46S88.78,44.88,88.78,42.78Z"/><polygon points="93.94 40.16 92.46 32.52 89.79 32.52 89.79 46.08 91.67 46.08 91.67 37.28 91.72 37.28 93.42 46.08 94.48 46.08 96.02 37.28 96.08 37.28 96.08 46.08 98.16 46.08 98.16 32.52 95.28 32.52 93.96 40.16 93.94 40.16"/><path d="M99.17,46.08h2.28v-4.6h1.11c2.3,0,3.14-1.16,3.14-3.06V35.56c0-1.9-.84-3-3.14-3H99.17Zm2.28-11.7h.85c.78,0,1.12.36,1.12,1.1V38.6a1,1,0,0,1-1.12,1.12h-.85Z"/><polygon points="108.11 46.08 110.42 46.08 110.42 34.38 112.3 34.38 112.3 32.52 106.23 32.52 106.23 34.38 108.11 34.38 108.11 46.08"/><rect x="113.07" y="32.52" width="2.28" height="13.56"/><path d="M123.29,42.58V36c0-2.12-1-3.66-3.46-3.66s-3.44,1.54-3.44,3.66v6.56c0,2.1,1,3.66,3.44,3.66S123.29,44.68,123.29,42.58Zm-2.28.36c0,.82-.36,1.4-1.18,1.4s-1.16-.58-1.16-1.4V35.66c0-.82.36-1.4,1.16-1.4s1.18.58,1.18,1.4Z"/><polygon points="124.31 46.08 126.23 46.08 126.23 37.56 128.91 46.08 130.91 46.08 130.91 32.52 129.01 32.52 129.01 40.3 126.55 32.52 124.31 32.52 124.31 46.08"/><path d="M53.9,62.6h2.42l.42,2.48h2.34L56.5,51.52H53.9L51.34,65.08H53.5Zm1.2-7.26h0l.9,5.44H54.2Z"/><polygon points="61.66 56.56 64.34 65.08 66.34 65.08 66.34 51.52 64.44 51.52 64.44 59.3 61.98 51.52 59.73 51.52 59.73 65.08 61.66 65.08 61.66 56.56"/><path d="M70.88,51.52H67.35V65.08h3.53c2.44,0,3.3-1.56,3.3-3.64V55.16C74.18,53.06,73.32,51.52,70.88,51.52Zm1,10.32c0,.82-.36,1.38-1.3,1.38h-1V53.38h1a1.19,1.19,0,0,1,1.3,1.36Z"/><path d="M79.3,60.48h1.1c2.3,0,3.14-1.16,3.14-3.06V54.56c0-1.9-.84-3-3.14-3H77V65.08H79.3Zm0-7.1h.84c.78,0,1.12.36,1.12,1.1V57.6a1,1,0,0,1-1.12,1.12H79.3Z"/><path d="M86.71,58.86l2.14,6.22h2.4l-2.17-6.16c1.3-.3,1.82-1.16,1.82-2.62V54.56c0-1.9-.84-3-3.15-3H84.43V65.08h2.28Zm0-5.48h.77c.77,0,1.11.36,1.11,1.1v2a1,1,0,0,1-1.11,1.12h-.77Z"/><path d="M95.3,51.36c-2.4,0-3.45,1.54-3.45,3.66v6.56c0,2.1,1.05,3.66,3.45,3.66s3.46-1.56,3.46-3.66V55C98.76,52.9,97.72,51.36,95.3,51.36Zm1.18,10.58c0,.82-.36,1.4-1.18,1.4s-1.16-.58-1.16-1.4V54.66c0-.82.36-1.4,1.16-1.4s1.18.58,1.18,1.4Z"/><path d="M99.77,51.52V65.08h3.52c2.45,0,3.3-1.56,3.3-3.64V55.16c0-2.1-.85-3.64-3.3-3.64Zm4.55,3.22v7.1c0,.82-.37,1.38-1.31,1.38h-1V53.38h1A1.2,1.2,0,0,1,104.32,54.74Z"/><path d="M107.61,51.52V61.78c0,2.1,1,3.46,3.4,3.46s3.23-1.36,3.23-3.46V51.52h-2.1V62c0,.8-.32,1.34-1.13,1.34s-1.12-.54-1.12-1.34V51.52Z"/><path d="M121.87,56.36v-1.6c0-2-.7-3.4-3.22-3.4s-3.4,1.54-3.4,3.66v6.56c0,2.1,1,3.66,3.4,3.66s3.22-1.44,3.22-3.38V59.52h-2.08V62c0,.8-.28,1.32-1.1,1.32s-1.16-.58-1.16-1.4V54.66c0-.82.34-1.4,1.16-1.4s1.1.48,1.1,1.32v1.78Z"/><polygon points="126.55 65.08 126.55 53.38 128.44 53.38 128.44 51.52 122.37 51.52 122.37 53.38 124.25 53.38 124.25 65.08 126.55 65.08"/><rect x="129.21" y="51.52" width="2.28" height="13.56"/><path d="M136,51.36c-2.4,0-3.44,1.54-3.44,3.66v6.56c0,2.1,1,3.66,3.44,3.66s3.46-1.56,3.46-3.66V55C139.43,52.9,138.39,51.36,136,51.36Zm1.18,10.58c0,.82-.36,1.4-1.18,1.4s-1.16-.58-1.16-1.4V54.66c0-.82.36-1.4,1.16-1.4s1.18.58,1.18,1.4Z"/><polygon points="145.15 51.52 145.15 59.3 142.69 51.52 140.45 51.52 140.45 65.08 142.37 65.08 142.37 56.56 145.05 65.08 147.05 65.08 147.05 51.52 145.15 51.52"/></svg>