<svg id="Ebene_1" data-name="Ebene 1" xmlns="http://www.w3.org/2000/svg" viewBox="0 0 160.92 160.93"><title>sdg-1</title><polygon points="22.47 21.16 22.52 21.16 22.52 46 27.97 46 27.97 13.55 23.61 13.55 18.59 19.44 18.59 25.14 18.64 25.14 22.47 21.16"/><path d="M128.39,81.23a4.46,4.46,0,1,0-4.46-4.45A4.45,4.45,0,0,0,128.39,81.23Z"/><path d="M133.59,83a3.31,3.31,0,0,0-.34,0h-9.74a2.91,2.91,0,0,0-.32,0,5.94,5.94,0,0,0-5.4,5.92v12.35a1.73,1.73,0,0,0,3.45,0V90.61c0-.4.11-.94.84-.94.5,0,.61.54.63.88v31.79a2.48,2.48,0,1,0,5,0V104a.68.68,0,0,1,.72-.73h0a.66.66,0,0,1,.7.73v18.32a2.49,2.49,0,0,0,5,0V90.55c0-.34.12-.88.62-.88.73,0,.85.54.85.94v10.61a1.73,1.73,0,0,0,3.45,0V88.87A5.94,5.94,0,0,0,133.59,83Z"/><path d="M93.22,83.34A4.23,4.23,0,1,0,89,79.12,4.22,4.22,0,0,0,93.22,83.34Z"/><path d="M98.24,91.08c.55-.16.71.58.71.58l2.82,9.52s.54,2,2.31,1.52,1.15-2.61,1.15-2.61l-3.51-11.42s-1.25-3.3-4-3.3H88.75c-2.77,0-4,3.3-4,3.3l-3.5,11.42s-.63,2.09,1.15,2.61,2.3-1.52,2.3-1.52l2.83-9.52s.15-.74.7-.58.35.94.35.94l-4.93,17.86H88.2v12.79a2.2,2.2,0,0,0,4.4,0V109.88h1.24v12.79a2.2,2.2,0,0,0,4.4,0V109.88h4.58L97.9,92S97.69,91.24,98.24,91.08Z"/><path d="M63.74,79.12A4.22,4.22,0,1,0,68,74.89,4.21,4.21,0,0,0,63.74,79.12Z"/><path d="M76.45,88.67s-1.25-3.3-4-3.3H63.49c-2.78,0-4,3.3-4,3.3L56,100.09a3,3,0,0,0-.1.7,1.27,1.27,0,0,0-1-.5,1.26,1.26,0,0,0-1.08.6h0c-.1.09-1.74,3-2.28,3.55a1.43,1.43,0,0,1-1.08.51H46.13a1.43,1.43,0,0,1-1.08-.51c-.55-.54-2.18-3.46-2.29-3.55h0a1.27,1.27,0,0,0-1.08-.6,1.25,1.25,0,0,0-1,.56v-12A5.94,5.94,0,0,0,35.24,83a3.11,3.11,0,0,0-.33,0H25.18a3.07,3.07,0,0,0-.34,0,5.94,5.94,0,0,0-5.4,5.92v12.35a1.72,1.72,0,0,0,.93,1.52.67.67,0,0,0-.06.15l-4,21a.66.66,0,0,0,.52.76H17a.65.65,0,0,0,.64-.53l3.95-21a.49.49,0,0,0,0-.24,1.73,1.73,0,0,0,1.31-1.67V90.61c0-.4.11-.94.84-.94.5,0,.61.54.63.88v31.79a2.48,2.48,0,1,0,5,0V104a.68.68,0,0,1,.71-.73h0a.67.67,0,0,1,.71.73v18.32a2.49,2.49,0,0,0,5,0V90.55c0-.34.12-.88.62-.88.73,0,.84.54.84.94v10.61a1.72,1.72,0,0,0,3.28.74c0,.09,0,.17,0,.17l3.54,6.4a2.24,2.24,0,0,1,.22.85v1.26L42.4,117.5h1.87v5.63h0a1.73,1.73,0,1,0,3.45,0V117.7a1.11,1.11,0,0,1,0-.2h1.05a1.11,1.11,0,0,1,0,.2v5.43a1.73,1.73,0,0,0,3.46,0V117.5h1.88l-1.88-6.9v-1.22a2.24,2.24,0,0,1,.22-.85l3.27-5.91s.21-.45.33-.77a1.56,1.56,0,0,0,1,.85c1.76.53,2.3-1.52,2.3-1.52l2.83-9.52s.15-.74.7-.58.35.94.35.94l-4.92,17.86h4.57v12.79a2.2,2.2,0,0,0,4.4,0V109.88h1.25v12.79a2.2,2.2,0,0,0,4.39,0V109.88h4.58L72.63,92s-.21-.78.34-.94.71.58.71.58l2.82,9.52s.54,2,2.31,1.52S80,100.09,80,100.09Z"/><path d="M111.61,102.73a3.52,3.52,0,1,0-3.52-3.52A3.51,3.51,0,0,0,111.61,102.73Z"/><path d="M119.93,112.71c0-.13-2.24-5.51-2.49-6.27-.8-2.31-2.24-2.29-3.63-2.33s-2.21,0-2.21,0-.89,0-2.72,0-2.41,1-4.43,6.19c-.29.75-1.26,3.17-1.28,3.31h0a1.21,1.21,0,0,0,.51,1.66,1.17,1.17,0,0,0,1.5-.49l1.91-6.09s.33-.41.33,0v14.33h0a1.81,1.81,0,1,0,3.61,0v-5.65s-.11-.8.54-.8.54.8.54.8v5.65a1.81,1.81,0,1,0,3.61,0V108.73c0-.42.22-.12.22-.12l1.5,4.17a10.23,10.23,0,0,0,.85,2,1.34,1.34,0,0,0,1.74-.72,1.32,1.32,0,0,0-.14-1.28Z"/><path d="M25.59,76.78A4.46,4.46,0,1,0,30,72.32,4.45,4.45,0,0,0,25.59,76.78Z"/><path d="M48.26,102.73a3.52,3.52,0,1,0-3.51-3.52A3.51,3.51,0,0,0,48.26,102.73Z"/><polygon points="47.96 18.14 50.65 26.66 52.65 26.66 52.65 13.1 50.74 13.1 50.74 20.88 48.28 13.1 46.04 13.1 46.04 26.66 47.96 26.66 47.96 18.14"/><path d="M57.38,26.82c2.42,0,3.46-1.56,3.46-3.66V16.6c0-2.12-1-3.66-3.46-3.66s-3.44,1.54-3.44,3.66v6.56C53.94,25.26,55,26.82,57.38,26.82ZM56.22,16.24c0-.82.36-1.4,1.16-1.4s1.18.58,1.18,1.4v7.28c0,.82-.36,1.4-1.18,1.4s-1.16-.58-1.16-1.4Z"/><path d="M48.32,41.06h1.1c2.3,0,3.14-1.16,3.14-3.06V35.14c0-1.9-.84-3-3.14-3H46V45.66h2.28Zm0-7.1h.84c.78,0,1.12.36,1.12,1.1v3.12a1,1,0,0,1-1.12,1.12h-.84Z"/><path d="M57.18,45.82c2.42,0,3.46-1.56,3.46-3.66V35.6c0-2.12-1-3.66-3.46-3.66s-3.44,1.54-3.44,3.66v6.56C53.74,44.26,54.78,45.82,57.18,45.82ZM56,35.24c0-.82.36-1.4,1.16-1.4s1.18.58,1.18,1.4v7.28c0,.82-.36,1.4-1.18,1.4S56,43.34,56,42.52Z"/><polygon points="66.26 45.66 68.84 32.1 66.7 32.1 65.1 41.56 65.08 41.56 63.52 32.1 61.2 32.1 63.78 45.66 66.26 45.66"/><polygon points="75.22 43.8 72.06 43.8 72.06 39.68 74.32 39.68 74.32 37.84 72.06 37.84 72.06 33.96 75.22 33.96 75.22 32.1 69.78 32.1 69.78 45.66 75.22 45.66 75.22 43.8"/><path d="M81.08,39.5c1.3-.3,1.83-1.16,1.83-2.62V35.14c0-1.9-.85-3-3.15-3H76.44V45.66h2.28V39.44l2.14,6.22h2.4Zm-.48-2.44a1,1,0,0,1-1.12,1.12h-.76V34h.76c.78,0,1.12.36,1.12,1.1Z"/><polygon points="85.56 45.66 87.86 45.66 87.86 33.96 89.75 33.96 89.75 32.1 83.68 32.1 83.68 33.96 85.56 33.96 85.56 45.66"/><polygon points="92.96 45.66 95.24 45.66 95.24 40.5 97.77 32.1 95.58 32.1 94.2 37.24 94.18 37.24 92.8 32.1 90.42 32.1 92.96 40.5 92.96 45.66"/></svg>