<svg id="Ebene_1" data-name="Ebene 1" xmlns="http://www.w3.org/2000/svg" viewBox="0 0 160.92 160.93"><title>sdg-14</title><polygon points="11.59 19.42 11.59 25.12 11.64 25.12 15.46 21.15 15.51 21.15 15.51 45.97 20.97 45.97 20.97 13.54 16.61 13.54 11.59 19.42"/><path d="M37.57,46V40.72h2.2V36.46h-2.2V13.53H32.21L22.79,37.37v3.35H32.4V46Zm-10-9.52L32.45,23.1h0V36.46Z"/><path d="M123.55,117.42c-2-2.74-15.1-19.42-33.44-19.42-15.93,0-33,14.45-33,14.45s-6.4-13.1-19.49-14.36l-.25,0h-.08a.54.54,0,0,0-.5.52,1.49,1.49,0,0,0,.21.48c1.68,2.8,6,10.77,6,18.74s-4.33,16-6,18.76l-.12.18a.65.65,0,0,0-.08.28.52.52,0,0,0,.49.51h.27c13.14-1.22,19.56-14.36,19.56-14.36s17,14.44,33,14.44c18.34,0,31.42-16.68,33.44-19.41l.15-.18a.71.71,0,0,0,0-.2.54.54,0,0,0,0-.2Zm-23.25,2.49a5.35,5.35,0,1,1,5.36-5.35A5.36,5.36,0,0,1,100.3,119.91Z"/><path d="M37.24,66.65l-.1,0a.53.53,0,0,0-.53.53v3.65a.55.55,0,0,0,.15.38c8.86,7.69,17.24.48,19.18-1.42a.5.5,0,0,1,.14-.15.58.58,0,0,1,.29-.09.5.5,0,0,1,.35.14l0,0c10,9.54,20.49,1.81,22.67,0l.21-.2a.48.48,0,0,1,.2,0,.46.46,0,0,1,.21,0l.22.2c2.18,1.81,12.66,9.54,22.66,0a0,0,0,0,0,0,0,.52.52,0,0,1,.36-.14.55.55,0,0,1,.29.09.71.71,0,0,1,.15.15c1.93,1.9,10.31,9.11,19.17,1.42a.55.55,0,0,0,.15-.38V67.16a.52.52,0,0,0-.52-.53l-.11,0-.27.14c-2.72,1.36-11.16,4.61-18.83-2.64l-.22-.22a.56.56,0,0,0-.23,0l-.15,0a.58.58,0,0,0-.27.21c-2.29,1.74-12.77,8.84-22.11.13l-.14-.14a.62.62,0,0,0-.38-.15.58.58,0,0,0-.36.15l-.15.14C70,73,59.49,65.86,57.21,64.12a.61.61,0,0,0-.26-.21.86.86,0,0,0-.17,0,.59.59,0,0,0-.22,0c-.07.08-.15.15-.22.22-7.67,7.25-16.11,4-18.83,2.64Z"/><path d="M55.94,83.05a.47.47,0,0,1,.14-.14.49.49,0,0,1,.65,0l0,0c10,9.53,20.49,1.8,22.67,0l.21-.21a.69.69,0,0,1,.2,0,.66.66,0,0,1,.21,0l.22.21c2.18,1.8,12.66,9.53,22.66,0l0,0a.49.49,0,0,1,.36-.15.48.48,0,0,1,.29.1.66.66,0,0,1,.15.14c1.93,1.91,10.31,9.12,19.17,1.42a.55.55,0,0,0,.16-.37V80.44a.52.52,0,0,0-.53-.52l-.11,0-.27.13c-2.72,1.37-11.17,4.6-18.83-2.64l-.22-.21a.43.43,0,0,0-.23,0,.26.26,0,0,0-.15,0,.41.41,0,0,0-.27.19c-2.28,1.74-12.77,8.84-22.11.13l-.14-.14a.56.56,0,0,0-.38-.14.52.52,0,0,0-.36.14l-.15.14C70,86.24,59.49,79.14,57.21,77.4a.42.42,0,0,0-.26-.19.33.33,0,0,0-.17,0,.44.44,0,0,0-.22,0l-.22.21c-7.67,7.24-16.11,4-18.83,2.64l-.27-.13-.1,0a.52.52,0,0,0-.53.52V84.1a.54.54,0,0,0,.15.37C45.62,92.17,54,85,55.94,83.05Z"/><polygon points="57.56 25.06 54.84 25.06 54.84 13.36 52.56 13.36 52.56 26.92 57.56 26.92 57.56 25.06"/><rect x="58.6" y="13.36" width="2.28" height="13.56"/><polygon points="64.48 20.94 66.76 20.94 66.76 19.1 64.48 19.1 64.48 15.22 67.54 15.22 67.54 13.36 62.2 13.36 62.2 26.92 64.48 26.92 64.48 20.94"/><polygon points="73.98 25.06 70.82 25.06 70.82 20.94 73.08 20.94 73.08 19.1 70.82 19.1 70.82 15.22 73.98 15.22 73.98 13.36 68.54 13.36 68.54 26.92 73.98 26.92 73.98 25.06"/><path d="M59.24,42.94v-1.8a2.06,2.06,0,0,0-1.7-2.26,2,2,0,0,0,1.36-2.16V35.34c0-1.92-.76-3-3-3h-3.3V45.92H56.1C58.38,45.92,59.24,44.86,59.24,42.94Zm-4.4-8.72h.78a1,1,0,0,1,1.1,1.1V37a1,1,0,0,1-1.08,1.1h-.8Zm0,9.84V39.82h1c.8,0,1.14.38,1.14,1.1v2a1,1,0,0,1-1.12,1.1Z"/><polygon points="65.82 34.22 65.82 32.36 60.38 32.36 60.38 45.92 65.82 45.92 65.82 44.06 62.66 44.06 62.66 39.94 64.92 39.94 64.92 38.1 62.66 38.1 62.66 34.22 65.82 34.22"/><polygon points="67.04 32.36 67.04 45.92 72.04 45.92 72.04 44.06 69.32 44.06 69.32 32.36 67.04 32.36"/><path d="M73,35.86v6.56c0,2.1,1,3.66,3.44,3.66s3.46-1.56,3.46-3.66V35.86c0-2.12-1-3.66-3.46-3.66S73,33.74,73,35.86Zm2.28-.36c0-.82.36-1.4,1.16-1.4s1.18.58,1.18,1.4v7.28c0,.82-.36,1.4-1.18,1.4s-1.16-.58-1.16-1.4Z"/><polygon points="84.62 45.92 85.9 37.54 85.92 37.54 87.26 45.92 89.42 45.92 91.18 32.36 89.26 32.36 88.22 40.96 88.2 40.96 86.94 32.36 85.08 32.36 83.94 40.96 83.92 40.96 82.86 32.36 80.66 32.36 82.48 45.92 84.62 45.92"/><polygon points="97.9 45.92 99.18 37.54 99.2 37.54 100.54 45.92 102.7 45.92 104.46 32.36 102.54 32.36 101.5 40.96 101.48 40.96 100.22 32.36 98.36 32.36 97.22 40.96 97.2 40.96 96.14 32.36 93.94 32.36 95.76 45.92 97.9 45.92"/><path d="M106.44,45.92l.4-2.48h2.42l.42,2.48H112l-2.58-13.56h-2.6l-2.56,13.56Zm1.6-9.74h0l.9,5.44h-1.82Z"/><polygon points="113.58 45.92 115.88 45.92 115.88 34.22 117.76 34.22 117.76 32.36 111.7 32.36 111.7 34.22 113.58 34.22 113.58 45.92"/><polygon points="118.82 45.92 124.26 45.92 124.26 44.06 121.1 44.06 121.1 39.94 123.36 39.94 123.36 38.1 121.1 38.1 121.1 34.22 124.26 34.22 124.26 32.36 118.82 32.36 118.82 45.92"/><path d="M130.12,39.76c1.3-.3,1.82-1.16,1.82-2.62V35.4c0-1.9-.84-3-3.14-3h-3.32V45.92h2.28V39.7l2.14,6.22h2.4Zm-.48-2.44a1,1,0,0,1-1.12,1.12h-.76V34.22h.76c.78,0,1.12.36,1.12,1.1Z"/></svg>