<svg id="Ebene_1" data-name="Ebene 1" xmlns="http://www.w3.org/2000/svg" viewBox="0 0 160.92 160.93"><title>sdg-9</title><path d="M121.57,105.79l-19.13-11V72.67a1.3,1.3,0,0,0-.65-1.13L82,60.12a1.31,1.31,0,0,0-1.3,0L60.93,71.54a1.28,1.28,0,0,0-.65,1.13V94.75l-19.13,11a1.31,1.31,0,0,0-.65,1.13v22.85a1.31,1.31,0,0,0,.65,1.13l19.78,11.41a1.26,1.26,0,0,0,1.3,0l19.13-11,19.12,11a1.31,1.31,0,0,0,.66.18,1.28,1.28,0,0,0,.65-.18l19.78-11.41a1.31,1.31,0,0,0,.65-1.13V106.92A1.31,1.31,0,0,0,121.57,105.79ZM60.28,138.92,43.11,129V109.19l17.17,9.91Zm2.6-64,15.87,9.16L62.88,93.25Zm0,64V120.61l15.87,9.16Zm17.17-11.41-15.86-9.16,15.86-9.16Zm0-22.85L64.19,95.51l15.86-9.16ZM99.83,74.93V93.25L84,84.09ZM82.66,86.35l15.87,9.16-15.87,9.15Zm18.48,30.49L84,106.93,101.14,97l17.17,9.9ZM119.61,129l-17.17,9.91V119.1l17.17-9.91Z"/><path d="M21.53,13c-5.79,0-8,3.16-8,8.18V26c0,5.31,2.1,8,6,8A4.66,4.66,0,0,0,24,31.31h.05v7c0,2-.77,3.35-2.73,3.35s-2.68-1.14-2.68-3.15V36.34h-5v1.72c0,4.78,1.72,8.13,7.75,8.13,5.73,0,8-3.69,8-8.76V21.65C29.47,16.63,27.27,13,21.53,13Zm2.54,13.64c-.1,1.81-.86,3-2.59,3s-2.58-1.15-2.58-3.25V20.69c0-2.05.76-3.25,2.63-3.25s2.54,1.24,2.54,3.25Z"/><rect x="38.8" y="13.52" width="2.28" height="13.56"/><polygon points="43.74 18.56 46.42 27.08 48.42 27.08 48.42 13.52 46.52 13.52 46.52 21.3 44.06 13.52 41.82 13.52 41.82 27.08 43.74 27.08 43.74 18.56"/><path d="M56,23.44V17.16c0-2.1-.86-3.64-3.3-3.64H49.14V27.08h3.52C55.1,27.08,56,25.52,56,23.44Zm-4.54,1.78V15.38h1a1.19,1.19,0,0,1,1.3,1.36v7.1c0,.82-.36,1.38-1.3,1.38Z"/><path d="M60.08,27.24c2.32,0,3.22-1.36,3.22-3.46V13.52H61.2V24c0,.8-.32,1.34-1.12,1.34S59,24.8,59,24V13.52H56.68V23.78C56.68,25.88,57.68,27.24,60.08,27.24Z"/><path d="M67.12,27.24c2.32,0,3.32-1.32,3.32-3.18V23.4c0-1.5-.6-2.26-1.84-3.52l-1.46-1.44c-.66-.64-1.08-1.08-1.08-1.84v-.28a1,1,0,0,1,1.08-1.12c.72,0,1.08.38,1.08,1.16v1.18H70.3v-1.1c0-2-.9-3.08-3.18-3.08s-3.2,1.3-3.2,3v.46c0,1.56.6,2.34,1.9,3.62l1.34,1.34a2.45,2.45,0,0,1,1,1.92v.52c0,.72-.32,1.2-1,1.2S66,25,66,24.2V22.34H63.9v1.82C63.9,25.94,64.8,27.24,67.12,27.24Z"/><polygon points="72.38 27.08 74.68 27.08 74.68 15.38 76.56 15.38 76.56 13.52 70.5 13.52 70.5 15.38 72.38 15.38 72.38 27.08"/><path d="M79.32,20.86l2.14,6.22h2.4l-2.18-6.16c1.3-.3,1.82-1.16,1.82-2.62V16.56c0-1.9-.84-3-3.14-3H77V27.08h2.28Zm0-5.48h.76c.78,0,1.12.36,1.12,1.1v2a1,1,0,0,1-1.12,1.12h-.76Z"/><polygon points="86.02 27.08 88.3 27.08 88.3 21.92 90.82 13.52 88.64 13.52 87.26 18.66 87.24 18.66 85.86 13.52 83.48 13.52 86.02 21.92 86.02 27.08"/><polygon points="89.76 28.14 91.04 28.14 92.2 25.08 92.2 24.9 90.04 24.9 89.76 28.14"/><rect x="94.44" y="13.52" width="2.28" height="13.56"/><polygon points="99.38 18.56 102.06 27.08 104.06 27.08 104.06 13.52 102.16 13.52 102.16 21.3 99.7 13.52 97.46 13.52 97.46 27.08 99.38 27.08 99.38 18.56"/><polygon points="106.7 18.56 109.38 27.08 111.38 27.08 111.38 13.52 109.48 13.52 109.48 21.3 107.02 13.52 104.78 13.52 104.78 27.08 106.7 27.08 106.7 18.56"/><path d="M115.54,27.24c2.42,0,3.46-1.56,3.46-3.66V17c0-2.12-1-3.66-3.46-3.66S112.1,14.9,112.1,17v6.56C112.1,25.68,113.14,27.24,115.54,27.24Zm-1.16-10.58c0-.82.36-1.4,1.16-1.4s1.18.58,1.18,1.4v7.28c0,.82-.36,1.4-1.18,1.4s-1.16-.58-1.16-1.4Z"/><polygon points="124.03 27.08 126.62 13.52 124.47 13.52 122.88 22.98 122.86 22.98 121.3 13.52 118.97 13.52 121.56 27.08 124.03 27.08"/><path d="M127.58,27.08,128,24.6h2.43l.42,2.48h2.34l-2.58-13.56H128l-2.56,13.56Zm1.59-9.74h0l.9,5.44h-1.82Z"/><polygon points="136.44 27.08 136.44 15.38 138.31 15.38 138.31 13.52 132.25 13.52 132.25 15.38 134.13 15.38 134.13 27.08 136.44 27.08"/><rect x="138.79" y="13.52" width="2.28" height="13.56"/><path d="M145.25,13.36c-2.4,0-3.44,1.54-3.44,3.66v6.56c0,2.1,1,3.66,3.44,3.66s3.46-1.56,3.46-3.66V17C148.71,14.9,147.67,13.36,145.25,13.36Zm1.18,10.58c0,.82-.36,1.4-1.18,1.4s-1.16-.58-1.16-1.4V16.66c0-.82.36-1.4,1.16-1.4s1.18.58,1.18,1.4Z"/><polygon points="154.13 13.52 154.13 21.3 151.67 13.52 149.43 13.52 149.43 27.08 151.35 27.08 151.35 18.56 154.03 27.08 156.03 27.08 156.03 13.52 154.13 13.52"/><path d="M41,43.6h2.42l.42,2.48h2.34L43.6,32.52H41L38.44,46.08H40.6Zm1.2-7.26h0l.9,5.44H41.3Z"/><polygon points="46.54 46.08 48.46 46.08 48.46 37.56 51.14 46.08 53.14 46.08 53.14 32.52 51.24 32.52 51.24 40.3 48.78 32.52 46.54 32.52 46.54 46.08"/><path d="M57.38,32.52H53.86V46.08h3.52c2.44,0,3.3-1.56,3.3-3.64V36.16C60.68,34.06,59.82,32.52,57.38,32.52Zm1,10.32c0,.82-.36,1.38-1.3,1.38h-1V34.38h1a1.19,1.19,0,0,1,1.3,1.36Z"/><rect x="62.92" y="32.52" width="2.28" height="13.56"/><polygon points="70.64 40.3 68.18 32.52 65.94 32.52 65.94 46.08 67.86 46.08 67.86 37.56 70.54 46.08 72.54 46.08 72.54 32.52 70.64 32.52 70.64 40.3"/><polygon points="78.6 34.38 78.6 32.52 73.26 32.52 73.26 46.08 75.54 46.08 75.54 40.1 77.82 40.1 77.82 38.26 75.54 38.26 75.54 34.38 78.6 34.38"/><path d="M85.48,37.3V35.56c0-1.9-.84-3-3.14-3H79V46.08H81.3V39.86l2.14,6.22h4.5l.39-2.48h2.43l.42,2.48h2.34L90.94,32.52H88.33L85.8,46l-2.14-6C85,39.62,85.48,38.76,85.48,37.3Zm-2.3.18a1,1,0,0,1-1.12,1.12H81.3V34.38h.76c.78,0,1.12.36,1.12,1.1Zm6.36-1.14h0l.9,5.44H88.64Z"/><path d="M96.78,46.24c2.32,0,3.32-1.32,3.32-3.18V42.4c0-1.5-.6-2.26-1.84-3.52L96.8,37.44c-.66-.64-1.08-1.08-1.08-1.84v-.28A1,1,0,0,1,96.8,34.2c.72,0,1.08.38,1.08,1.16v1.18H100v-1.1c0-2-.9-3.08-3.18-3.08s-3.2,1.3-3.2,3v.46c0,1.56.59,2.34,1.9,3.62l1.34,1.34a2.45,2.45,0,0,1,1,1.92v.52c0,.72-.32,1.2-1,1.2s-1.12-.44-1.12-1.2V41.34H93.55v1.82C93.55,44.94,94.45,46.24,96.78,46.24Z"/><polygon points="104.34 46.08 104.34 34.38 106.22 34.38 106.22 32.52 100.16 32.52 100.16 34.38 102.03 34.38 102.03 46.08 104.34 46.08"/><path d="M113.16,37.3V35.56c0-1.9-.84-3-3.14-3h-3.33V46.08H109V39.86l2.15,6.22h2.4l-2.19-6.16C112.64,39.62,113.16,38.76,113.16,37.3Zm-2.3.18a1,1,0,0,1-1.12,1.12H109V34.38h.77c.78,0,1.12.36,1.12,1.1Z"/><path d="M113.81,32.52V42.78c0,2.1,1,3.46,3.4,3.46s3.22-1.36,3.22-3.46V32.52h-2.1V43c0,.8-.32,1.34-1.12,1.34s-1.12-.54-1.12-1.34V32.52Z"/><path d="M124.55,32.36c-2.4,0-3.4,1.54-3.4,3.66v6.56c0,2.1,1,3.66,3.4,3.66s3.23-1.44,3.23-3.38V40.52H125.7V43c0,.8-.29,1.32-1.11,1.32s-1.16-.58-1.16-1.4V35.66c0-.82.35-1.4,1.16-1.4s1.11.48,1.11,1.32v1.78h2.08v-1.6C127.78,33.76,127.08,32.36,124.55,32.36Z"/><polygon points="127.97 34.38 129.85 34.38 129.85 46.08 132.15 46.08 132.15 34.38 134.03 34.38 134.03 32.52 127.97 32.52 127.97 34.38"/><path d="M139,43c0,.8-.32,1.34-1.12,1.34s-1.12-.54-1.12-1.34V32.52h-2.28V42.78c0,2.1,1,3.46,3.4,3.46s3.22-1.36,3.22-3.46V32.52H139Z"/><path d="M148.31,37.3V35.56c0-1.9-.84-3-3.14-3h-3.32V46.08h2.28V39.86l2.14,6.22h2.4l-2.18-6.16C147.79,39.62,148.31,38.76,148.31,37.3Zm-2.3.18a1,1,0,0,1-1.12,1.12h-.76V34.38h.76c.78,0,1.12.36,1.12,1.1Z"/><polygon points="148.97 46.08 154.41 46.08 154.41 44.22 151.25 44.22 151.25 40.1 153.51 40.1 153.51 38.26 151.25 38.26 151.25 34.38 154.41 34.38 154.41 32.52 148.97 32.52 148.97 46.08"/></svg>