<svg id="Ebene_1" data-name="Ebene 1" xmlns="http://www.w3.org/2000/svg" viewBox="0 0 160.92 160.93"><title>sdg-13</title><polygon points="10.94 19.38 10.94 25.07 10.98 25.07 14.81 21.11 14.86 21.11 14.86 45.93 20.31 45.93 20.31 13.5 15.96 13.5 10.94 19.38"/><path d="M30.69,46.31c5.5,0,7.89-2.91,7.89-7.41V34.12c0-3-1.29-4.88-4-5.5a5.2,5.2,0,0,0,3.73-5.27V20.53c0-4.59-2.2-7.41-7.23-7.41-5.64,0-7.6,3.34-7.6,8.13v2.87h5v-3.3c0-2,.63-3.16,2.35-3.16s2.34,1.15,2.34,2.92v3.49c0,1.72-1.15,2.63-2.92,2.63H28.16v4.16h2.29c1.91,0,2.68.91,2.68,2.64v5.35c0,1.73-.77,2.92-2.44,2.92-1.87,0-2.53-1.24-2.53-3.16V34h-5v4.26C23.18,43.16,25.14,46.31,30.69,46.31Z"/><path d="M140.73,100.75a73.61,73.61,0,0,0-118.14,0c-.18.25-.34.47-.46.66.12.19.28.41.46.67a73.62,73.62,0,0,0,118.14,0l.46-.67Zm-79-14.68c.33-.47,1.39-1.82,1.52-2a1.94,1.94,0,0,1,1.21-.49c.37-.07.88.14.94.42a3.45,3.45,0,0,1-.33,1.58,4.17,4.17,0,0,1-2.64,1.19C61.89,86.69,61.66,86.24,61.77,86.07ZM60.5,88.6l.13-.15a3.28,3.28,0,0,1,2-.71c.62-.11,1.44.2,1.54.61s-1.55,1.16-1.85,1.44c-.86.79-2.2,2.4-3,2.58a1,1,0,0,1-.64-.07A24.57,24.57,0,0,1,60.5,88.6ZM73.84,116a7.1,7.1,0,0,1-1.52,3.19,5.2,5.2,0,0,1-3.39,1.29c-1.13-.08-1.29-3.1-1.29-4.65,0-.53-.75,1.06-1.15-2.17-.25-2.07-1.58.21-1.67-1.16s-.76-1.1-1.46-2-1.55.08-2.52.51-.57.66-1.94.23l-.08,0a24.66,24.66,0,0,1-2-9.66c0-.84,0-1.67.13-2.48a1.14,1.14,0,0,1,.15-.23c1.31-1.56,1.28-1.92,1.28-1.92l1.46-.5a23.85,23.85,0,0,1,4.07,1c1.44.54,3.7,1.76,5,1.23,1-.4,1.7-.92,1.61-1.71-.11-1-.89-1.24-1.84-.56-.35.24-1.1-1.5-1.68-1.42s.72,2.06.23,2.14-1.5-2-1.67-2.39-.94-1.2-1.64-.55c-1.46,1.39-3.84,1.31-4.32,1.66-1.45,1.09-1.84-.35-1.8-1.24q.07-.3.18-.6a3,3,0,0,1,2.76-.31c.65.43,1.11-.11,1.36-.37s.16-.66,0-1,.32-.59.66-.68A19.61,19.61,0,0,0,64.7,90.5a6.12,6.12,0,0,1,3.77,0A2,2,0,0,0,71,90a6.73,6.73,0,0,1,1.8-1.5c.36-.16-.89-1.33-1.91-.06s-1.55,1.38-2,1.38-3.35-.72-3.71-1.62.9-1.59,2-2.1,4-.5,4.69-.66c1.51-.33,3.43-1.09,4.4-.43s-4.05,1.79-2.4,2.68c.59.32,3.24-1.53,4.14-2,2.14-1.1-2.07-1.46-1.52-3.7.62-2.53-5.16-1.55-8-1.34a24.83,24.83,0,0,1,37.52,15.12,4.18,4.18,0,0,1-.12,1.15,1.63,1.63,0,0,1-2.91.22c-.25-.36-1.32-1.37-1.28.35s1.67,1.9.09,2.93a6.09,6.09,0,0,1-2.61,1c-.74.26-1.45,2-1.27,3s2.44,3.53.76,3.43c-.39,0-3.36-2.06-3.85-3.36s-1.08-2.72-1.48-3.75a1.48,1.48,0,0,0-2.34-.69c-.88.61.24,1.21-.39,2.5s-1.09,2.45-2,1.38c-2.43-2.78-6-1.41-6.5-4.5-.3-1.67-1.74-1.51-3-2.46s-1.89-1.46-2.09-.77,3.8,3.75,4.08,4.55c.42,1.2-1.19,2.26-2.37,2.55s-1.69-.67-2.85-1.87-1.67-2.07-1.75-1.12a5.44,5.44,0,0,0,2.28,4.12c1,.64,2.13.93,1.81,2s0,.45-1.13,1.56-1.35,1.48-1.26,3-.33,1.64-.57,2.93S74.33,114.08,73.84,116Zm26.64-9.9c.84-.07,2.09,1.09,1.6,1.54a2.23,2.23,0,0,1-2.37-.22C99.09,106.91,100.11,106.1,100.48,106.07Zm-1-.76c-.27-.1-.51-.36-.71-1s.31-1,.81-.71a2.4,2.4,0,0,1,1.17,1.43C100.7,105.46,99.7,105.42,99.43,105.31Zm-11,0a2.27,2.27,0,0,1-2.38-.22c-.62-.48.4-1.29.77-1.32C87.7,103.66,89,104.82,88.47,105.27ZM78.33,110.2c-.35.56-1.28,4.73-1.91,4.25s.26-4.85.44-5.18C77.84,107.47,80,107.56,78.33,110.2Zm3.37,16.18a24.79,24.79,0,0,1-7-1,1,1,0,0,1-.3-1.21c.77-2,3.06-2.79,4.86-3,4-.39,9.32,2.61,10.17,2.13s2.54-2.7,5-2.61a3.94,3.94,0,0,1,2.27.57A24.74,24.74,0,0,1,81.7,126.38Zm17.52-7.23a4.61,4.61,0,0,1-.78-.28c-1.36-.69-1.2.41-1.86.17s.75-1.8-1.25-.49-1.46-.2-2.33-2.41,1-4.74,2.57-5.31a31.82,31.82,0,0,1,4.51-1.19c3-.75,3.62-2.52,4.16-1.44l.29.58a4,4,0,0,1,.38,1.61A24.94,24.94,0,0,1,99.22,119.15Zm6.8-12.53c-.67-.19-3.45-4-1.25-6.58.37-.42-.74-1.64-.44-1.67a2,2,0,0,1,2.17,1.74c0,.47,0,1,0,1.44A25,25,0,0,1,106,106.62Z"/><path d="M53.05,27.08c2.42,0,3.22-1.44,3.22-3.38V21.36H54.19v2.5c0,.8-.28,1.32-1.1,1.32s-1.16-.58-1.16-1.4V16.5c0-.82.34-1.4,1.16-1.4s1.1.48,1.1,1.32V18.2h2.08V16.6c0-2-.7-3.4-3.22-3.4s-3.4,1.54-3.4,3.66v6.56C49.65,25.52,50.65,27.08,53.05,27.08Z"/><polygon points="62.51 25.06 59.79 25.06 59.79 13.36 57.51 13.36 57.51 26.92 62.51 26.92 62.51 25.06"/><rect x="63.55" y="13.36" width="2.28" height="13.56"/><polygon points="69.03 18.12 69.07 18.12 70.77 26.92 71.83 26.92 73.37 18.12 73.43 18.12 73.43 26.92 75.51 26.92 75.51 13.36 72.63 13.36 71.31 21 71.29 21 69.81 13.36 67.15 13.36 67.15 26.92 69.03 26.92 69.03 18.12"/><path d="M79,24.44h2.42l.42,2.48h2.34L81.61,13.36H79L76.45,26.92h2.16Zm1.2-7.26h0l.9,5.44H79.31Z"/><polygon points="85.75 26.92 88.05 26.92 88.05 15.22 89.93 15.22 89.93 13.36 83.86 13.36 83.86 15.22 85.75 15.22 85.75 26.92"/><polygon points="96.43 25.06 93.27 25.06 93.27 20.94 95.53 20.94 95.53 19.1 93.27 19.1 93.27 15.22 96.43 15.22 96.43 13.36 90.98 13.36 90.98 26.92 96.43 26.92 96.43 25.06"/><path d="M51.85,43.44h2.42l.42,2.48H57L54.45,32.36h-2.6L49.29,45.92h2.16Zm1.2-7.26h0l.9,5.44H52.15Z"/><path d="M64.29,37.2V35.6c0-2-.7-3.4-3.22-3.4s-3.4,1.54-3.4,3.66v6.56c0,2.1,1,3.66,3.4,3.66s3.22-1.44,3.22-3.38V40.36H62.21v2.5c0,.8-.28,1.32-1.1,1.32S60,43.6,60,42.78V35.5c0-.82.34-1.4,1.16-1.4s1.1.48,1.1,1.32V37.2Z"/><polygon points="69.25 45.92 69.25 34.22 71.13 34.22 71.13 32.36 65.07 32.36 65.07 34.22 66.95 34.22 66.95 45.92 69.25 45.92"/><rect x="72.19" y="32.36" width="2.28" height="13.56"/><path d="M79.23,46.08c2.42,0,3.46-1.56,3.46-3.66V35.86c0-2.12-1-3.66-3.46-3.66s-3.44,1.54-3.44,3.66v6.56C75.79,44.52,76.83,46.08,79.23,46.08ZM78.07,35.5c0-.82.36-1.4,1.16-1.4s1.18.58,1.18,1.4v7.28c0,.82-.36,1.4-1.18,1.4s-1.16-.58-1.16-1.4Z"/><polygon points="88.69 40.14 86.23 32.36 83.98 32.36 83.98 45.92 85.91 45.92 85.91 37.4 88.59 45.92 90.59 45.92 90.59 32.36 88.69 32.36 88.69 40.14"/></svg>