<svg id="Ebene_1" data-name="Ebene 1" xmlns="http://www.w3.org/2000/svg" viewBox="0 0 160.92 160.93"><title>sdg-7</title><polygon points="16.51 17.94 24.93 17.94 17.65 45.93 23.06 45.93 30.19 18.51 30.19 13.49 16.51 13.49 16.51 17.94"/><path d="M80.52,125.14a23.59,23.59,0,1,0-23.58-23.59A23.59,23.59,0,0,0,80.52,125.14ZM78.77,87.29a1.76,1.76,0,0,1,3.51,0v8.09a1.76,1.76,0,0,1-3.51,0Zm-1.89,2.37v4.56a8,8,0,1,0,7.27,0V89.65a12.27,12.27,0,1,1-7.27,0Z"/><path d="M53.45,101.35a2,2,0,0,0-1.82-1.94H41.31a1.94,1.94,0,0,0,0,3.88H51.63A2,2,0,0,0,53.45,101.35Z"/><path d="M119.76,99.41H109.43a1.94,1.94,0,0,0,0,3.88h10.33a1.94,1.94,0,0,0,0-3.88Z"/><path d="M78.59,62.13V72.46a1.94,1.94,0,0,0,3.87,0V62.13a1.94,1.94,0,0,0-3.87,0Z"/><path d="M80.53,128.43a2,2,0,0,0-1.94,1.83v10.32a1.94,1.94,0,0,0,3.87,0V130.26A2,2,0,0,0,80.53,128.43Z"/><path d="M45.52,83.55l9,5.13a1.94,1.94,0,0,0,1.92-3.36l-9-5.13a1.94,1.94,0,0,0-1.93,3.36Z"/><path d="M115.54,119.16l-9-5.13a1.94,1.94,0,0,0-1.93,3.36l9,5.13a1.94,1.94,0,0,0,1.93-3.36Z"/><path d="M94,77.85a2,2,0,0,0,2.58-.61l5.13-9a1.95,1.95,0,0,0-3.37-1.93l-5.13,9A2,2,0,0,0,94,77.85Z"/><path d="M67.08,124.85a2,2,0,0,0-2.6.62l-5.13,9a1.94,1.94,0,0,0,3.37,1.92l5.13-9A2,2,0,0,0,67.08,124.85Z"/><path d="M67,77.87a2,2,0,0,0,.77-2.53l-5.14-9a1.95,1.95,0,0,0-3.37,1.94l5.15,9A2,2,0,0,0,67,77.87Z"/><path d="M96.62,125.44a1.95,1.95,0,0,0-3.37,1.94l5.15,9a2,2,0,0,0,2.59.6,2,2,0,0,0,.77-2.53Z"/><path d="M106.54,88.63l8.95-5.15a1.94,1.94,0,0,0-1.93-3.36l-9,5.15a1.94,1.94,0,0,0,1.94,3.36Z"/><path d="M54.5,114.08l-9,5.15a1.94,1.94,0,0,0,1.93,3.36l9-5.15a1.94,1.94,0,0,0-1.93-3.36Z"/><path d="M48,24.6h2.42l.42,2.48h2.34L50.64,13.52H48L45.48,27.08h2.16Zm1.2-7.26h0l.9,5.44H48.34Z"/><polygon points="56.44 21.1 58.72 21.1 58.72 19.26 56.44 19.26 56.44 15.38 59.5 15.38 59.5 13.52 54.16 13.52 54.16 27.08 56.44 27.08 56.44 21.1"/><polygon points="62.77 21.1 65.06 21.1 65.06 19.26 62.77 19.26 62.77 15.38 65.84 15.38 65.84 13.52 60.49 13.52 60.49 27.08 62.77 27.08 62.77 21.1"/><path d="M70.08,27.24c2.42,0,3.46-1.56,3.46-3.66V17c0-2.12-1-3.66-3.46-3.66S66.64,14.9,66.64,17v6.56C66.64,25.68,67.68,27.24,70.08,27.24ZM68.92,16.66c0-.82.36-1.4,1.16-1.4s1.18.58,1.18,1.4v7.28c0,.82-.36,1.4-1.18,1.4s-1.16-.58-1.16-1.4Z"/><path d="M77.12,20.86l2.14,6.22h2.4l-2.18-6.16c1.3-.3,1.82-1.16,1.82-2.62V16.56c0-1.9-.84-3-3.14-3H74.84V27.08h2.28Zm0-5.48h.76c.78,0,1.12.36,1.12,1.1v2a1,1,0,0,1-1.12,1.12h-.76Z"/><path d="M89.36,23.44V17.16c0-2.1-.86-3.64-3.31-3.64H82.53V27.08h3.52C88.5,27.08,89.36,25.52,89.36,23.44Zm-4.55,1.78V15.38h1a1.19,1.19,0,0,1,1.3,1.36v7.1c0,.82-.37,1.38-1.3,1.38Z"/><path d="M92.55,24.6H95l.42,2.48h2.34L95.16,13.52H92.55L90,27.08h2.17Zm1.2-7.26h0l.9,5.44H92.86Z"/><path d="M105.36,24.1V22.3a2.07,2.07,0,0,0-1.7-2.26A2,2,0,0,0,105,17.88V16.5c0-1.92-.77-3-3-3h-3.3V27.08h3.54C104.5,27.08,105.36,26,105.36,24.1ZM101,15.38h.78c.77,0,1.11.36,1.11,1.1v1.66a1,1,0,0,1-1.09,1.1H101Zm0,9.84V21h1c.8,0,1.15.38,1.15,1.1v2a1,1,0,0,1-1.12,1.1Z"/><polygon points="111.5 25.22 108.77 25.22 108.77 13.52 106.49 13.52 106.49 27.08 111.5 27.08 111.5 25.22"/><polygon points="117.98 25.22 114.81 25.22 114.81 21.1 117.08 21.1 117.08 19.26 114.81 19.26 114.81 15.38 117.98 15.38 117.98 13.52 112.53 13.52 112.53 27.08 117.98 27.08 117.98 25.22"/><path d="M123.49,13.52l-2.56,13.56h2.16l.4-2.48h2.42l.42,2.48h2.34l-2.58-13.56Zm.3,9.26.9-5.44h0l.9,5.44Z"/><polygon points="134.31 21.3 131.85 13.52 129.61 13.52 129.61 27.08 131.53 27.08 131.53 18.56 134.21 27.08 136.21 27.08 136.21 13.52 134.31 13.52 134.31 21.3"/><path d="M141,13.52h-3.52V27.08H141c2.44,0,3.3-1.56,3.3-3.64V17.16C144.33,15.06,143.47,13.52,141,13.52Zm1,10.32c0,.82-.36,1.38-1.3,1.38h-1V15.38h1a1.19,1.19,0,0,1,1.3,1.36Z"/><path d="M52.46,37.36v-1.6c0-2-.7-3.4-3.22-3.4s-3.4,1.54-3.4,3.66v6.56c0,2.1,1,3.66,3.4,3.66s3.22-1.44,3.22-3.38V40.52H50.38V43c0,.8-.28,1.32-1.1,1.32s-1.16-.58-1.16-1.4V35.66c0-.82.34-1.4,1.16-1.4s1.1.48,1.1,1.32v1.78Z"/><polygon points="58.7 44.22 55.98 44.22 55.98 32.52 53.7 32.52 53.7 46.08 58.7 46.08 58.7 44.22"/><polygon points="65.18 44.22 62.02 44.22 62.02 40.1 64.28 40.1 64.28 38.26 62.02 38.26 62.02 34.38 65.18 34.38 65.18 32.52 59.73 32.52 59.73 46.08 65.18 46.08 65.18 44.22"/><path d="M68.59,43.6H71l.42,2.48h2.34L71.2,32.52H68.59L66,46.08H68.2Zm1.2-7.26h0l.9,5.44H68.9Z"/><polygon points="76.64 37.56 79.31 46.08 81.31 46.08 81.31 32.52 79.42 32.52 79.42 40.3 76.95 32.52 74.71 32.52 74.71 46.08 76.64 46.08 76.64 37.56"/><polygon points="90.15 34.38 90.15 32.52 84.71 32.52 84.71 46.08 90.15 46.08 90.15 44.22 86.99 44.22 86.99 40.1 89.25 40.1 89.25 38.26 86.99 38.26 86.99 34.38 90.15 34.38"/><polygon points="96.07 40.3 93.61 32.52 91.37 32.52 91.37 46.08 93.29 46.08 93.29 37.56 95.97 46.08 97.97 46.08 97.97 32.52 96.07 32.52 96.07 40.3"/><polygon points="104.72 34.38 104.72 32.52 99.27 32.52 99.27 46.08 104.72 46.08 104.72 44.22 101.55 44.22 101.55 40.1 103.81 40.1 103.81 38.26 101.55 38.26 101.55 34.38 104.72 34.38"/><path d="M108.21,39.86l2.14,6.22h2.4l-2.18-6.16c1.3-.3,1.82-1.16,1.82-2.62V35.56c0-1.9-.84-3-3.14-3h-3.32V46.08h2.28Zm0-5.48H109c.78,0,1.12.36,1.12,1.1v2A1,1,0,0,1,109,38.6h-.76Z"/><path d="M113.63,36v6.56c0,2.1.9,3.66,2.86,3.66a2.05,2.05,0,0,0,2.18-1.64v1.48h1.64V38.84h-3.24v1.8h1.08V43c0,.88-.38,1.3-1.12,1.3s-1.12-.58-1.12-1.4V35.66c0-.82.36-1.4,1.18-1.4s1.14.48,1.14,1.32V37h2.08v-1.2c0-2-.74-3.4-3.26-3.4S113.63,33.9,113.63,36Z"/><polygon points="124.51 37.66 124.49 37.66 123.11 32.52 120.73 32.52 123.27 40.92 123.27 46.08 125.55 46.08 125.55 40.92 128.07 32.52 125.89 32.52 124.51 37.66"/></svg>